<?xml version="1.0" encoding="UTF-8" standalone="no"?>
<!-- Created with Inkscape (http://www.inkscape.org/) -->

<svg
   xmlns:dc="http://purl.org/dc/elements/1.1/"
   xmlns:cc="http://creativecommons.org/ns#"
   xmlns:rdf="http://www.w3.org/1999/02/22-rdf-syntax-ns#"
   xmlns:svg="http://www.w3.org/2000/svg"
   xmlns="http://www.w3.org/2000/svg"
   version="1.1"
   width="30"
   height="30"
   viewBox="0 0 30 30"
   id="svg2"
   xml:space="preserve"><metadata
     id="metadata81"><rdf:RDF><cc:Work
         rdf:about=""><dc:format>image/svg+xml</dc:format><dc:type
           rdf:resource="http://purl.org/dc/dcmitype/StillImage" /><dc:title></dc:title></cc:Work></rdf:RDF></metadata><defs
     id="defs79" /><g
     transform="translate(-4.5347227,-24.868248)"
     id="Layer_1" /><g
     transform="translate(-4.5347227,-24.868248)"
     id="Layer_2" /><g
     transform="matrix(0.91877986,0,0,0.91886428,0,2.4340701)"
     id="g2985"><path
       d="m 32.652,25.919002 c 0,2.255 -1.83,4.081 -4.084,4.081 H 4.08 c -2.25,0 -4.08,-1.826 -4.08,-4.081 V 1.4320017 c 0,-2.25199996 1.83,-4.081 4.08,-4.081 h 24.488 c 2.254,0 4.084,1.82900004 4.084,4.081 V 25.919002 z m -27.551,-14.287 h 8.162 c 0.568,0 1.02,-0.453 1.02,-1.017 V 2.4530017 c 0,-0.564 -0.451,-1.021 -1.02,-1.021 H 5.101 c -0.561,0 -1.021,0.457 -1.021,1.021 v 8.1620003 c 0,0.564 0.46,1.017 1.021,1.017 z m 14.283,8.165 c -0.562,0 -1.02,0.458 -1.02,1.019 v 4.084 c 0,0.564 0.457,1.02 1.02,1.02 0.57,0 1.021,-0.455 1.021,-1.02 v -4.084 c 10e-4,-0.561 -0.45,-1.019 -1.021,-1.019 z m 4.08,-2.04 c -0.561,0 -1.02,0.455 -1.02,1.021 v 6.122 c 0,0.564 0.459,1.02 1.02,1.02 0.57,0 1.025,-0.455 1.025,-1.02 v -6.122 c 10e-4,-0.566 -0.454,-1.021 -1.025,-1.021 z m 4.084,-2.042 c -0.561,0 -1.02,0.458 -1.02,1.021 v 8.163 c 0,0.564 0.459,1.02 1.02,1.02 0.564,0 1.02,-0.455 1.02,-1.02 v -8.163 c 0,-0.563 -0.455,-1.021 -1.02,-1.021 z m -4.084,-4.083 c 2.811,0 5.104,-2.2850003 5.104,-5.0990002 0,-2.8140001 -2.293,-5.1020001 -5.104,-5.1020001 -2.811,0 -5.1,2.287 -5.1,5.1020001 10e-4,2.8139999 2.29,5.0990002 5.1,5.0990002 z m -13.394,4.596 c -0.1839997,-0.316 -0.5229997,-0.513 -0.8829997,-0.513 -0.365,0 -0.703,0.196 -0.885,0.513 L 3.589,24.387002 c -0.184,0.316 -0.184,0.707 0,1.021 0.182,0.314 0.518,0.511 0.881,0.511 h 9.426 c 0.365,0 0.701,-0.196 0.885,-0.511 0.18,-0.314 0.18,-0.702 0,-1.021 l -4.711,-8.159 z"
       id="path29"
       style="fill:#99f054;fill-opacity:1" /></g></svg>