<svg width="18" height="22" viewBox="0 0 18 22" xmlns="http://www.w3.org/2000/svg">
<g id="Frame 255">
<path id="Union" fill-rule="evenodd" clip-rule="evenodd" d="M1.75 2C1.75 1.86193 1.86193 1.75 2 1.75H12.25V4C12.25 4.9665 13.0335 5.75 14 5.75H16.25V12.5C16.25 12.9142 16.5858 13.25 17 13.25C17.4142 13.25 17.75 12.9142 17.75 12.5V5V4.91421C17.75 4.45009 17.5656 4.00497 17.2374 3.67678L14.3232 0.762563C13.995 0.434374 13.5499 0.25 13.0858 0.25H13H2C1.0335 0.25 0.25 1.0335 0.25 2V20C0.25 20.9665 1.0335 21.75 2 21.75H8.5C8.91421 21.75 9.25 21.4142 9.25 21C9.25 20.5858 8.91421 20.25 8.5 20.25H2C1.86193 20.25 1.75 20.1381 1.75 20V2ZM13.75 4V2.31066L15.6893 4.25H14C13.8619 4.25 13.75 4.13807 13.75 4ZM14.75 15C14.75 14.5858 14.4142 14.25 14 14.25C13.5858 14.25 13.25 14.5858 13.25 15V17.25H11C10.5858 17.25 10.25 17.5858 10.25 18C10.25 18.4142 10.5858 18.75 11 18.75H13.25V21C13.25 21.4142 13.5858 21.75 14 21.75C14.4142 21.75 14.75 21.4142 14.75 21V18.75H17C17.4142 18.75 17.75 18.4142 17.75 18C17.75 17.5858 17.4142 17.25 17 17.25H14.75V15Z"/>
</g>
</svg>
