<svg width="22" height="18" viewBox="0 0 22 18" xmlns="http://www.w3.org/2000/svg">
<path id="Union" fill-rule="evenodd" clip-rule="evenodd" d="M1.75 0C0.783502 0 0 0.783501 0 1.75V7.59413V15.75C0 16.7165 0.783501 17.5 1.75 17.5H12.25C12.6642 17.5 13 17.1642 13 16.75C13 16.3358 12.6642 16 12.25 16H1.75C1.61193 16 1.5 15.8881 1.5 15.75V8.34413H20V8.75C20 9.16421 20.3358 9.5 20.75 9.5C21.1642 9.5 21.5 9.16421 21.5 8.75V7.59413V4.75C21.5 3.7835 20.7165 3 19.75 3H11.6199C11.5602 3 11.5025 2.97865 11.4572 2.93981L8.51896 0.421301C8.20179 0.149436 7.79782 0 7.38008 0H1.75ZM20 6.84413H1.5V1.75C1.5 1.61193 1.61193 1.5 1.75 1.5H7.38008C7.43975 1.5 7.49746 1.52135 7.54277 1.56019L10.481 4.0787C10.7982 4.35056 11.2022 4.5 11.6199 4.5H19.75C19.8881 4.5 20 4.61193 20 4.75V6.84413ZM18.5 10.75C18.5 10.3358 18.1642 10 17.75 10C17.3358 10 17 10.3358 17 10.75V13H14.75C14.3358 13 14 13.3358 14 13.75C14 14.1642 14.3358 14.5 14.75 14.5H17V16.75C17 17.1642 17.3358 17.5 17.75 17.5C18.1642 17.5 18.5 17.1642 18.5 16.75V14.5H20.75C21.1642 14.5 21.5 14.1642 21.5 13.75C21.5 13.3358 21.1642 13 20.75 13H18.5V10.75Z"/>
</svg>
