<svg width="22" height="22" viewBox="0 0 22 22" xmlns="http://www.w3.org/2000/svg" fill="currentColor">
<path fill-rule="evenodd" clip-rule="evenodd" d="M6 1C6 0.585786 5.66421 0.25 5.25 0.25C4.83579 0.25 4.5 0.585786 4.5 1C4.5 2.50405 4.17421 3.38766 3.647 3.91058C3.11855 4.43473 2.23328 4.75 0.75 4.75C0.335786 4.75 0 5.08579 0 5.5C0 5.91421 0.335786 6.25 0.75 6.25C2.22828 6.25 3.11496 6.57258 3.64526 7.10202C4.17532 7.63122 4.5 8.51756 4.5 10C4.5 10.4142 4.83579 10.75 5.25 10.75C5.66421 10.75 6 10.4142 6 10C6 8.51632 6.32286 7.63032 6.85159 7.10159C7.38032 6.57286 8.26632 6.25 9.75 6.25C10.1642 6.25 10.5 5.91421 10.5 5.5C10.5 5.08579 10.1642 4.75 9.75 4.75C8.26132 4.75 7.37674 4.43446 6.84985 3.91101C6.32396 3.38855 6 2.5053 6 1ZM4.70332 4.97557C4.91337 4.76722 5.09432 4.53714 5.24868 4.28671C5.40258 4.53695 5.58305 4.76689 5.79267 4.97514C5.9981 5.17923 6.2241 5.3551 6.4692 5.50531C6.22331 5.65737 5.99675 5.83511 5.79093 6.04093C5.58211 6.24975 5.4022 6.47992 5.24868 6.72997C5.0947 6.47972 4.91431 6.24941 4.70506 6.0405C4.4991 5.83488 4.27248 5.65728 4.02664 5.50531C4.27169 5.35519 4.49775 5.17946 4.70332 4.97557ZM14.5 7C14.5 6.58579 14.1642 6.25 13.75 6.25C13.3358 6.25 13 6.58579 13 7C13 9.38778 12.4845 10.8964 11.5499 11.8234C10.614 12.7516 9.10375 13.25 6.75 13.25C6.33579 13.25 6 13.5858 6 14C6 14.4142 6.33579 14.75 6.75 14.75C9.09875 14.75 10.6104 15.261 11.5481 16.1972C12.4856 17.1331 13 18.6444 13 21C13 21.4142 13.3358 21.75 13.75 21.75C14.1642 21.75 14.5 21.4142 14.5 21C14.5 18.6432 15.0113 17.1322 15.9467 16.1967C16.8822 15.2613 18.3932 14.75 20.75 14.75C21.1642 14.75 21.5 14.4142 21.5 14C21.5 13.5858 21.1642 13.25 20.75 13.25C18.3882 13.25 16.8786 12.7513 15.945 11.8238C15.0124 10.8973 14.5 9.38903 14.5 7ZM12.6062 12.8884C13.0837 12.4147 13.4607 11.8586 13.7484 11.2239C14.0351 11.8584 14.4111 12.4143 14.8878 12.8879C15.359 13.3561 15.9096 13.7248 16.535 14.0063C15.9086 14.2918 15.3574 14.6647 14.8861 15.1361C14.4103 15.6118 14.0349 16.1688 13.7484 16.8025C13.4609 16.1685 13.0845 15.6114 12.6079 15.1356C12.136 14.6645 11.5846 14.2917 10.9583 14.0063C11.5836 13.7249 12.1345 13.3562 12.6062 12.8884Z" />
</svg>
