<svg xmlns="http://www.w3.org/2000/svg" width="24" height="24" viewBox="0 0 24 24" fill="none">
<path d="M23.7094 0.796866C23.4484 0.531366 23.0944 0.363366 22.7494 0.252366C22.3426 0.131071 21.9235 0.0556028 21.4999 0.0273663C20.5699 -0.0461337 19.4089 0.0273663 18.1219 0.289866C15.5464 0.817866 12.3949 2.12287 9.47142 4.65037C6.54792 7.17787 4.71942 10.2364 3.83442 12.7849C3.39342 14.0554 3.17442 15.2359 3.19092 16.1869C3.19842 16.6609 3.26592 17.1169 3.42192 17.5069C3.44692 17.5679 3.47492 17.6289 3.50592 17.6899C2.32602 19.3581 1.19651 21.0613 0.118918 22.7974C0.0104079 22.9728 -0.0256874 23.1835 0.0182546 23.385C0.0621966 23.5865 0.182736 23.7631 0.354418 23.8774C0.439179 23.9325 0.534135 23.97 0.633667 23.9878C0.7332 24.0056 0.835287 24.0032 0.933886 23.9808C1.03249 23.9585 1.1256 23.9165 1.2077 23.8575C1.28981 23.7985 1.35925 23.7237 1.41192 23.6374C2.44383 21.9767 3.52327 20.346 4.64892 18.7474C5.07642 18.9589 5.57292 19.0399 6.08592 19.0204C6.85542 18.9904 7.73292 18.7384 8.67042 18.2854C10.5454 17.3779 12.7864 15.6049 15.1249 12.8224L17.4019 10.4974C17.5462 10.349 17.627 10.1501 17.627 9.94312C17.627 9.73611 17.5462 9.53727 17.4019 9.38887L16.3084 8.27287L18.2749 8.58637C18.3956 8.60587 18.5193 8.59557 18.6351 8.55635C18.7509 8.51714 18.8554 8.4502 18.9394 8.36137L19.9339 7.33537C20.9284 6.31537 21.8719 5.34787 22.5784 4.49737C23.0494 3.93037 23.4559 3.36937 23.7094 2.83687C23.9539 2.31937 24.1264 1.67737 23.8774 1.05487C23.8399 0.958174 23.7827 0.870323 23.7094 0.796866ZM5.59842 17.4304C8.07642 14.0614 10.8589 10.8229 13.9624 8.09137L15.7774 9.94237L14.0209 11.7364L13.9804 11.7814C11.7304 14.4649 9.64392 16.0819 8.01492 16.8709C7.19892 17.2654 6.52992 17.4379 6.02892 17.4559C5.88486 17.4628 5.74048 17.4553 5.59842 17.4304ZM15.7519 6.60037C17.7169 5.05837 19.8019 3.72937 22.0099 2.70037C21.8223 2.97113 21.6221 3.23292 21.4099 3.48487C20.7469 4.28437 19.8679 5.18587 18.8884 6.19087L18.1234 6.97687L15.7519 6.60037ZM20.7709 1.56487C14.3899 4.72087 9.06642 10.2004 4.72242 16.0174C4.73292 15.3214 4.90392 14.3884 5.27742 13.3084C6.07692 11.0059 7.75242 8.18587 10.4599 5.84437C13.1704 3.50287 16.0789 2.30437 18.4249 1.82437C19.1965 1.66098 19.9823 1.57406 20.7709 1.56487Z" fill="currentColor"/>
</svg>