<svg width="14" height="14" viewBox="0 0 14 14" xmlns="http://www.w3.org/2000/svg">
<path fill-rule="evenodd" clip-rule="evenodd" d="M2.69911 0.773561C2.29791 0.372354 1.64742 0.372354 1.24621 0.773561C0.845008 1.17477 0.845008 1.82525 1.24621 2.22646L6.01977 7.00001L1.24622 11.7736C0.845008 12.1748 0.845008 12.8253 1.24621 13.2265C1.64742 13.6277 2.29791 13.6277 2.69911 13.2265L7.47266 8.45291L12.2462 13.2265C12.6474 13.6277 13.2979 13.6277 13.6991 13.2265C14.1003 12.8253 14.1003 12.1748 13.6991 11.7736L8.92556 7.00001L13.6991 2.22646C14.1003 1.82525 14.1003 1.17477 13.6991 0.773561C13.2979 0.372354 12.6474 0.372354 12.2462 0.773561L7.47266 5.54711L2.69911 0.773561Z" />
</svg>
