<svg width="12" height="12" viewBox="0 0 12 12" xmlns="http://www.w3.org/2000/svg">
<g id="Union">
<path id="Union_2" fill-rule="evenodd" clip-rule="evenodd" d="M6 0.5C2.96243 0.5 0.5 2.96243 0.5 6C0.5 9.03754 2.96243 11.5 6 11.5C9.03754 11.5 11.5 9.03754 11.5 6C11.5 2.96243 9.03754 0.5 6 0.5ZM1.5 6C1.5 3.51472 3.51472 1.5 6 1.5C8.48526 1.5 10.5 3.51472 10.5 6C10.5 8.48526 8.48526 10.5 6 10.5C3.51472 10.5 1.5 8.48526 1.5 6ZM4.93964 4.23223C4.74438 4.03697 4.4278 4.03697 4.23254 4.23223C4.03727 4.42749 4.03727 4.74408 4.23254 4.93934L5.29319 6L4.23254 7.06065C4.03728 7.25591 4.03727 7.57249 4.23254 7.76775C4.4278 7.96301 4.74438 7.96302 4.93964 7.76775L6.0003 6.70711L7.06095 7.76775C7.25621 7.96302 7.57279 7.96302 7.76805 7.76775C7.96332 7.57249 7.96332 7.25591 7.76805 7.06065L6.70741 6L7.76806 4.93934C7.96332 4.74407 7.96332 4.42749 7.76805 4.23223C7.57279 4.03697 7.25621 4.03697 7.06095 4.23223L6.0003 5.29289L4.93964 4.23223Z" />
</g>
</svg>
