<svg width="17" height="22" viewBox="0 0 17 22" xmlns="http://www.w3.org/2000/svg">
<path fill-rule="evenodd" clip-rule="evenodd" d="M1.91602 2C1.91602 1.72386 2.13987 1.5 2.41602 1.5H15.0827C15.3588 1.5 15.5827 1.72386 15.5827 2V20C15.5827 20.2761 15.3588 20.5 15.0827 20.5H2.41602C2.13987 20.5 1.91602 20.2761 1.91602 20V2ZM2.41602 0.5C1.58759 0.5 0.916016 1.17157 0.916016 2V20C0.916016 20.8284 1.58759 21.5 2.41602 21.5H15.0827C15.9111 21.5 16.5827 20.8284 16.5827 20V2C16.5827 1.17157 15.9111 0.5 15.0827 0.5H2.41602ZM7.93738 8.35355C8.13264 8.15829 8.13264 7.84171 7.93738 7.64645C7.74212 7.45118 7.42553 7.45118 7.23027 7.64645L4.70503 10.1717C4.43166 10.4451 4.43166 10.8883 4.70503 11.1616L7.23027 13.6869C7.42553 13.8821 7.74212 13.8821 7.93738 13.6869C8.13264 13.4916 8.13264 13.175 7.93738 12.9798L5.62426 10.6667L7.93738 8.35355ZM10.604 7.64645C10.4088 7.45118 10.0922 7.45118 9.89694 7.64645C9.70168 7.84171 9.70168 8.15829 9.89694 8.35355L12.2101 10.6667L9.89694 12.9798C9.70168 13.175 9.70168 13.4916 9.89694 13.6869C10.0922 13.8821 10.4088 13.8821 10.604 13.6869L13.1293 11.1616C13.4027 10.8883 13.4027 10.4451 13.1293 10.1717L10.604 7.64645Z" />
</svg>
