<svg width="25" height="24" viewBox="0 0 25 24" fill="currentColor" xmlns="http://www.w3.org/2000/svg">
<path d="M4.12684 11.0228L4.55702 10.4084C4.21772 10.1708 3.75006 10.2533 3.51247 10.5926L4.12684 11.0228ZM7.17202 14.0706C7.51133 14.3082 7.97899 14.2257 8.21657 13.8864C8.45415 13.5471 8.37169 13.0795 8.03239 12.8419L7.17202 14.0706ZM1.079 14.0679C0.841412 14.4072 0.923873 14.8749 1.26318 15.1125C1.60248 15.3501 2.07014 15.2676 2.30772 14.9283L1.079 14.0679ZM20.6477 11.977L20.2175 12.5914C20.3804 12.7055 20.582 12.7501 20.7779 12.7156C20.9738 12.6811 21.148 12.5701 21.262 12.4072L20.6477 11.977ZM17.6025 8.92916C17.2632 8.69157 16.7955 8.77403 16.5579 9.11334C16.3204 9.45264 16.4028 9.9203 16.7421 10.1579L17.6025 8.92916ZM23.6955 8.93181C23.9331 8.59251 23.8506 8.12485 23.5113 7.88727C23.172 7.64968 22.7044 7.73215 22.4668 8.07145L23.6955 8.93181ZM18.4543 5.78549L19.0231 5.29663L19.0231 5.29663L18.4543 5.78549ZM13.5895 3.09086L13.4768 3.83235L13.4768 3.83235L13.5895 3.09086ZM8.14367 4.21829L8.54151 4.85408L8.14367 4.21829ZM4.03246 8.4001C3.90938 8.79561 4.13023 9.216 4.52574 9.33908C4.92124 9.46216 5.34164 9.24131 5.46471 8.8458L4.03246 8.4001ZM5.13726 12C5.13726 11.5858 4.80147 11.25 4.38726 11.25C3.97305 11.25 3.63726 11.5858 3.63726 12L5.13726 12ZM6.32022 17.7145L5.75144 18.2034L5.75144 18.2034L6.32022 17.7145ZM11.1851 20.4091L11.2978 19.6677L11.1851 20.4091ZM16.6308 19.2817L16.233 18.6459L16.6308 19.2817ZM20.7421 15.0999C20.8651 14.7044 20.6443 14.284 20.2488 14.1609C19.8533 14.0378 19.4329 14.2587 19.3098 14.6542L20.7421 15.0999ZM3.69666 11.6371L7.17202 14.0706L8.03239 12.8419L4.55702 10.4084L3.69666 11.6371ZM2.30772 14.9283L4.7412 11.4529L3.51247 10.5926L1.079 14.0679L2.30772 14.9283ZM21.0779 11.3626L17.6025 8.92916L16.7421 10.1579L20.2175 12.5914L21.0779 11.3626ZM22.4668 8.07145L20.0333 11.5468L21.262 12.4072L23.6955 8.93181L22.4668 8.07145ZM21.1373 11.5C21.1373 9.45335 20.4141 6.91508 19.0231 5.29663L17.8855 6.27436C18.9889 7.55808 19.6373 9.71984 19.6373 11.5H21.1373ZM19.0231 5.29663C17.659 3.70951 15.7712 2.66387 13.7022 2.34938L13.4768 3.83235C15.1911 4.09292 16.7553 4.95931 17.8855 6.27436L19.0231 5.29663ZM13.7022 2.34938C11.6331 2.03489 9.51993 2.47238 7.74584 3.5825L8.54151 4.85408C10.0115 3.93426 11.7624 3.57177 13.4768 3.83235L13.7022 2.34938ZM7.74584 3.5825C5.97175 4.69262 4.6543 6.40183 4.03246 8.4001L5.46471 8.8458C5.97995 7.19009 7.07155 5.77389 8.54151 4.85408L7.74584 3.5825ZM3.63726 12C3.63726 14.0466 4.36041 16.5849 5.75144 18.2034L6.88901 17.2256C5.78566 15.9419 5.13726 13.7802 5.13726 12L3.63726 12ZM5.75144 18.2034C7.11555 19.7905 9.00333 20.8361 11.0724 21.1506L11.2978 19.6677C9.58343 19.4071 8.01927 18.5407 6.88901 17.2256L5.75144 18.2034ZM11.0724 21.1506C13.1414 21.4651 15.2546 21.0276 17.0287 19.9175L16.233 18.6459C14.763 19.5657 13.0121 19.9282 11.2978 19.6677L11.0724 21.1506ZM17.0287 19.9175C18.8028 18.8074 20.1202 17.0982 20.7421 15.0999L19.3098 14.6542C18.7946 16.3099 17.703 17.7261 16.233 18.6459L17.0287 19.9175Z" />
</svg>
