<svg width="16" height="16" viewBox="0 0 16 16" fill="none" xmlns="http://www.w3.org/2000/svg">
<g clip-path="url(#clip0_1084_66678)">
<path d="M5 6.79993H5.75V13.625C5.75 13.8321 5.58211 14 5.375 14V14C5.16789 14 5 13.8321 5 13.625V6.79993Z" fill="#171817"/>
</g>
<g clip-path="url(#clip1_1084_66678)">
<path d="M8.85693 11.6H9.60693V13.625C9.60693 13.8321 9.43904 14 9.23193 14V14C9.02483 14 8.85693 13.8321 8.85693 13.625V11.6Z" fill="#171817"/>
</g>
<g clip-path="url(#clip2_1084_66678)">
</g>
<path d="M7 2.5H8.14284C8.97127 2.5 9.64284 3.17157 9.64284 4V4.80002C9.64284 5.62845 8.97127 6.30002 8.14284 6.30002H5.5V4C5.5 3.17157 6.17157 2.5 7 2.5Z" stroke="#171817"/>
<g clip-path="url(#clip3_1084_66678)">
</g>
<path d="M10.8569 7.29993H11.9998C12.8282 7.29993 13.4998 7.9715 13.4998 8.79993V9.59995C13.4998 10.4284 12.8282 11.1 11.9998 11.1H9.35693V8.79993C9.35693 7.9715 10.0285 7.29993 10.8569 7.29993Z" stroke="#171817"/>
<defs>
<clipPath id="clip0_1084_66678">
<rect width="0.75" height="7.20004" fill="white" transform="translate(5 6.79993)"/>
</clipPath>
<clipPath id="clip1_1084_66678">
<rect width="0.75" height="2.40001" fill="white" transform="translate(8.85693 11.6)"/>
</clipPath>
<clipPath id="clip2_1084_66678">
<path d="M5 4C5 2.89543 5.89543 2 7 2H8.14284C9.24741 2 10.1428 2.89543 10.1428 4V4.80002C10.1428 5.90459 9.24741 6.80002 8.14284 6.80002H5V4Z" fill="white"/>
</clipPath>
<clipPath id="clip3_1084_66678">
<path d="M8.85693 8.79993C8.85693 7.69536 9.75236 6.79993 10.8569 6.79993H11.9998C13.1043 6.79993 13.9998 7.69536 13.9998 8.79993V9.59995C13.9998 10.7045 13.1043 11.6 11.9998 11.6H8.85693V8.79993Z" fill="white"/>
</clipPath>
</defs>
</svg>
