<svg width="17" height="15" viewBox="0 0 17 15" xmlns="http://www.w3.org/2000/svg">
<path fill-rule="evenodd" clip-rule="evenodd" d="M7.10714 0.912859C7.197 0.508509 6.94205 0.107876 6.5377 0.0180204C6.13335 -0.0718352 5.73272 0.183113 5.64286 0.587463L5.1067 3.00016H1.875C1.46079 3.00016 1.125 3.33595 1.125 3.75016C1.125 4.16437 1.46079 4.50016 1.875 4.50016H4.77337L3.6067 9.75016H0.75C0.335786 9.75016 0 10.0859 0 10.5002C0 10.9144 0.335786 11.2502 0.75 11.2502H3.27337L2.64286 14.0875C2.553 14.4918 2.80795 14.8924 3.2123 14.9823C3.61665 15.0722 4.01728 14.8172 4.10714 14.4129L4.80996 11.2502H9.27337L8.64286 14.0875C8.553 14.4918 8.80795 14.8924 9.2123 14.9823C9.61665 15.0722 10.0173 14.8172 10.1071 14.4129L10.81 11.2502H14.25C14.6642 11.2502 15 10.9144 15 10.5002C15 10.0859 14.6642 9.75016 14.25 9.75016H11.1433L12.31 4.50016H15.375C15.7892 4.50016 16.125 4.16437 16.125 3.75016C16.125 3.33595 15.7892 3.00016 15.375 3.00016H12.6433L13.1071 0.912859C13.197 0.508509 12.942 0.107876 12.5377 0.0180204C12.1333 -0.0718352 11.7327 0.183113 11.6429 0.587463L11.1067 3.00016H6.6433L7.10714 0.912859ZM10.7734 4.50016H6.30996L5.1433 9.75016H9.6067L10.7734 4.50016Z" />
</svg>
