<svg width="22" height="22" viewBox="0 0 22 22" xmlns="http://www.w3.org/2000/svg">
<g>
<path fill-rule="evenodd" clip-rule="evenodd" d="M11 0.25C5.06294 0.25 0.25 5.06294 0.25 11C0.25 16.937 5.06293 21.75 11 21.75C16.937 21.75 21.75 16.937 21.75 11C21.75 5.06293 16.937 0.25 11 0.25ZM1.75 11C1.75 5.89136 5.89136 1.75 11 1.75C16.1086 1.75 20.25 5.89137 20.25 11C20.25 16.1086 16.1086 20.25 11 20.25C5.89137 20.25 1.75 16.1086 1.75 11ZM11.5118 5.94145C11.8196 6.21856 11.8446 6.69278 11.5674 7.00065L11.5574 7.01176C11.2803 7.31963 10.8061 7.34457 10.4983 7.06746C10.1904 6.79035 10.1654 6.31613 10.4426 6.00826L10.4526 5.99715C10.7297 5.68928 11.2039 5.66435 11.5118 5.94145ZM11 9.75C11.4142 9.75 11.75 10.0858 11.75 10.5V15.5C11.75 15.9142 11.4142 16.25 11 16.25C10.5858 16.25 10.25 15.9142 10.25 15.5V10.5C10.25 10.0858 10.5858 9.75 11 9.75Z" />
</g>
</svg>
