<svg width="177" height="63" viewBox="0 0 177 63" xmlns="http://www.w3.org/2000/svg">
<path fill-rule="evenodd" clip-rule="evenodd" d="M97.0424 11.929L96.4794 0.0090332H55.0014L54.3994 11.93H55.8194C55.9984 9.62702 56.5494 7.81102 57.4694 6.45502C58.3904 5.11201 59.5024 4.19102 60.8074 3.71802C61.8054 3.37302 63.4934 3.19403 65.8604 3.19403H71.9744V42.027C71.9744 44.867 71.6924 46.695 71.1424 47.488C70.2474 48.793 68.7254 49.445 66.5764 49.445H64.7734V50.826H86.3254V49.445H84.5594C82.5894 49.445 81.1184 48.922 80.1724 47.871C79.5064 47.091 79.1614 45.148 79.1614 42.027V3.19403H86.3244C88.4214 3.19403 90.1094 3.53904 91.4014 4.23004C92.6804 4.92004 93.7164 5.98203 94.4844 7.42703C94.9704 8.33503 95.3404 9.83102 95.6104 11.929H97.0424ZM42.6179 36.811L43.8489 37.079L39.5349 50.757H0.503906V49.386H2.40691C4.53891 49.386 6.06091 48.687 6.97491 47.304C7.49591 46.505 7.7489 44.665 7.7489 41.798V9.26398C7.7489 6.11697 7.4059 4.14999 6.7079 3.36398C5.7439 2.27298 4.30991 1.72696 2.40691 1.72696H0.503906V0.343964H23.3309V1.72696C20.6539 1.70196 18.7749 1.94299 17.6969 2.46298C16.6189 2.98298 15.8829 3.64295 15.4889 4.44196C15.0949 5.22896 14.8929 7.13198 14.8929 10.127V41.798C14.8929 43.855 15.0959 45.263 15.4889 46.036C15.7809 46.556 16.2379 46.936 16.8589 47.19C17.4809 47.432 19.4099 47.557 22.6579 47.557H26.3379C30.2079 47.557 32.9239 47.278 34.4839 46.707C36.0449 46.137 37.4659 45.121 38.7599 43.676C40.0419 42.229 41.3359 39.932 42.6179 36.811ZM48.6315 27.3459H33.4395L30.7825 33.5389C30.1205 35.0599 29.7945 36.1969 29.7945 36.9569C29.7945 37.5509 30.0815 38.0739 30.6445 38.5269C31.2175 38.9819 32.4415 39.2789 34.3385 39.4159V40.4839H21.9805V39.4159C23.6205 39.1209 24.6775 38.7439 25.1615 38.2809C26.1495 37.3609 27.2355 35.4759 28.4315 32.6399L42.2405 0.34787H43.2485L56.9095 32.9849C58.0065 35.6119 59.0035 37.3109 59.9025 38.0919C60.8015 38.8709 62.0555 39.3169 63.6555 39.4139V40.4819H48.1665V39.4139C49.7275 39.3359 50.7845 39.0679 51.3375 38.6249C51.8905 38.1889 52.1675 37.6459 52.1675 37.0039C52.1675 36.1559 51.7715 34.8219 51.0015 32.9839L48.6315 27.3459ZM47.8215 25.2019L41.1635 9.34787L34.3375 25.2019H47.8215ZM102.647 16.6749V35.9339H113.355C116.14 35.9339 117.992 35.5159 118.924 34.6819C120.175 33.5779 120.862 31.6399 121.009 28.8559H122.334V45.8209H121.009C120.678 43.4539 120.335 41.9319 120.003 41.2569C119.574 40.4229 118.862 39.7609 117.881 39.2819C116.9 38.8049 115.391 38.5589 113.355 38.5589H102.647V54.6269C102.647 56.7849 102.745 58.0979 102.928 58.5649C103.125 59.0319 103.456 59.3989 103.934 59.6819C104.413 59.9519 105.332 60.0859 106.67 60.0859H114.937C117.685 60.0859 119.697 59.9019 120.936 59.5099C122.187 59.1289 123.376 58.3809 124.53 57.2519C125.995 55.7875 127.496 53.5819 129.032 50.6469H122.676V49.2758C123.946 49.1488 125.025 48.8808 125.952 48.4868C127.488 47.8408 128.948 46.9769 130.333 45.8849C131.729 44.7929 133.317 43.1148 135.095 40.8558L147.006 25.8339L137.076 11.2819C134.371 7.34486 132.072 4.75485 130.193 3.53485C128.3 2.30285 126.13 1.65586 123.678 1.57886V0.194855H147.005V1.57886C145.025 1.65485 143.665 1.97285 142.929 2.54385C142.205 3.11485 141.837 3.75086 141.837 4.43686C141.837 5.36386 142.434 6.69685 143.615 8.46185L151.36 20.0298L160.326 8.67685C161.367 7.34385 162.002 6.42884 162.243 5.93384C162.472 5.42583 162.598 4.91785 162.598 4.39685C162.598 3.87585 162.446 3.41884 162.141 3.02484C161.773 2.50384 161.303 2.13586 160.732 1.93286C160.161 1.71686 158.98 1.60184 157.202 1.57684V0.192841H175.095V1.57684C173.685 1.65284 172.53 1.86885 171.628 2.23785C170.295 2.80885 169.063 3.58386 167.945 4.54886C166.828 5.51385 165.253 7.30386 163.221 9.90686L153.217 22.7089L164.049 38.8488C167.046 43.3178 169.268 46.1378 170.728 47.3178C172.176 48.4998 174.018 49.1478 176.252 49.2748V50.6458H154.601V49.2748C156.036 49.2498 157.103 49.0948 157.801 48.8178C158.322 48.6008 158.74 48.2569 159.083 47.8018C159.414 47.3428 159.579 46.8738 159.579 46.4038C159.579 45.8338 159.465 45.2609 159.248 44.6909C159.07 44.2709 158.386 43.1788 157.204 41.4138L148.645 28.4738L138.08 42.0118C136.963 43.4588 136.289 44.4118 136.074 44.8948C135.845 45.3768 135.73 45.8848 135.73 46.4048C135.73 47.2058 136.074 47.8518 136.734 48.3738C137.406 48.8948 138.689 49.1999 140.569 49.2758V50.6469H130.488L126.334 62.7479H88.7744V61.4219H90.5044C91.6454 61.4219 92.7364 61.1409 93.7674 60.5879C94.5394 60.2089 95.0554 59.6309 95.3364 58.8709C95.6074 58.0979 95.7414 56.5269 95.7414 54.1619V22.5009C95.7414 19.4099 95.4344 17.5089 94.8084 16.7849C93.9504 15.8279 92.5144 15.3499 90.5034 15.3499H88.7734V14.0129H126.333L126.872 24.6849H125.462C124.959 22.1219 124.407 20.3669 123.794 19.4109C123.181 18.4539 122.285 17.7179 121.083 17.2149C120.126 16.8599 118.433 16.6749 116.017 16.6749H102.647Z" />
</svg>
