<svg width="17" height="21" viewBox="0 0 17 21" xmlns="http://www.w3.org/2000/svg">
<path fill-rule="evenodd" clip-rule="evenodd" d="M1.91602 1.5C1.91602 1.22386 2.13987 1 2.41602 1H15.0827C15.3588 1 15.5827 1.22386 15.5827 1.5V19.5C15.5827 19.7761 15.3588 20 15.0827 20H2.41602C2.13987 20 1.91602 19.7761 1.91602 19.5V1.5ZM2.41602 0C1.58759 0 0.916016 0.671573 0.916016 1.5V19.5C0.916016 20.3284 1.58759 21 2.41602 21H15.0827C15.9111 21 16.5827 20.3284 16.5827 19.5V1.5C16.5827 0.671572 15.9111 0 15.0827 0H2.41602ZM4 3.5C3.72386 3.5 3.5 3.72386 3.5 4C3.5 4.27614 3.72386 4.5 4 4.5H13.3333C13.6095 4.5 13.8333 4.27614 13.8333 4C13.8333 3.72386 13.6095 3.5 13.3333 3.5H4ZM4 6.16667C3.72386 6.16667 3.5 6.39052 3.5 6.66667C3.5 6.94281 3.72386 7.16667 4 7.16667H13.3333C13.6095 7.16667 13.8333 6.94281 13.8333 6.66667C13.8333 6.39052 13.6095 6.16667 13.3333 6.16667H4ZM4 8.83333C3.72386 8.83333 3.5 9.05719 3.5 9.33333C3.5 9.60948 3.72386 9.83333 4 9.83333H10C10.2761 9.83333 10.5 9.60948 10.5 9.33333C10.5 9.05719 10.2761 8.83333 10 8.83333H4Z" />
</svg>
