<svg width="24" height="24" viewBox="0 0 24 24" fill="none" xmlns="http://www.w3.org/2000/svg">
<path fill-rule="evenodd" clip-rule="evenodd" d="M1.75 3C1.75 2.30964 2.30964 1.75 3 1.75H21C21.6904 1.75 22.25 2.30964 22.25 3V21C22.25 21.6904 21.6904 22.25 21 22.25H3C2.30964 22.25 1.75 21.6904 1.75 21V3ZM3 0.25C1.48122 0.25 0.25 1.48122 0.25 3V21C0.25 22.5188 1.48122 23.75 3 23.75H21C22.5188 23.75 23.75 22.5188 23.75 21V3C23.75 1.48122 22.5188 0.25 21 0.25H3ZM15 6.25C14.5858 6.25 14.25 6.58579 14.25 7C14.25 7.41421 14.5858 7.75 15 7.75H17H19C19.4142 7.75 19.75 7.41421 19.75 7C19.75 6.58579 19.4142 6.25 19 6.25H17H15ZM14.25 15.5C14.25 15.0858 14.5858 14.75 15 14.75H17H19C19.4142 14.75 19.75 15.0858 19.75 15.5C19.75 15.9142 19.4142 16.25 19 16.25H17H15C14.5858 16.25 14.25 15.9142 14.25 15.5ZM15 17.75C14.5858 17.75 14.25 18.0858 14.25 18.5C14.25 18.9142 14.5858 19.25 15 19.25H17H19C19.4142 19.25 19.75 18.9142 19.75 18.5C19.75 18.0858 19.4142 17.75 19 17.75H17H15ZM7 4.25C7.41421 4.25 7.75 4.58579 7.75 5V6.25H9C9.41421 6.25 9.75 6.58579 9.75 7C9.75 7.41421 9.41421 7.75 9 7.75H7.75V9C7.75 9.41421 7.41421 9.75 7 9.75C6.58579 9.75 6.25 9.41421 6.25 9V7.75H5C4.58579 7.75 4.25 7.41421 4.25 7C4.25 6.58579 4.58579 6.25 5 6.25H6.25V5C6.25 4.58579 6.58579 4.25 7 4.25ZM6.11642 15.0555C5.82352 14.7626 5.34865 14.7626 5.05576 15.0555C4.76287 15.3484 4.76287 15.8232 5.05576 16.1161L5.93964 17L5.05576 17.8839C4.76287 18.1768 4.76287 18.6516 5.05576 18.9445C5.34865 19.2374 5.82352 19.2374 6.11642 18.9445L7.0003 18.0607L7.88419 18.9445C8.17709 19.2374 8.65196 19.2374 8.94485 18.9445C9.23775 18.6516 9.23774 18.1768 8.94485 17.8839L8.06097 17L8.94485 16.1161C9.23774 15.8232 9.23775 15.3484 8.94485 15.0555C8.65196 14.7626 8.17709 14.7626 7.88419 15.0555L7.0003 15.9393L6.11642 15.0555Z" fill="black"/>
</svg>
