<svg width="9" height="10" viewBox="0 0 9 10" xmlns="http://www.w3.org/2000/svg">
<path fill-rule="evenodd" clip-rule="evenodd" d="M4.5 0.75C2.15279 0.75 0.25 2.65279 0.25 5C0.25 7.34719 2.15279 9.25 4.5 9.25C6.84719 9.25 8.75 7.34719 8.75 5C8.75 2.65279 6.84719 0.75 4.5 0.75ZM1.25 5C1.25 3.20507 2.70507 1.75 4.5 1.75C6.29491 1.75 7.75 3.20508 7.75 5C7.75 6.79491 6.29491 8.25 4.5 8.25C2.70508 8.25 1.25 6.79491 1.25 5ZM6.72855 4.04105C6.92382 3.84579 6.92382 3.52921 6.72855 3.33395C6.53329 3.13868 6.21671 3.13868 6.02145 3.33395L3.75 5.60539L2.97855 4.83395C2.78329 4.63868 2.46671 4.63868 2.27145 4.83395C2.07618 5.02921 2.07618 5.34579 2.27145 5.54105L3.39645 6.66605C3.59171 6.86132 3.90829 6.86132 4.10355 6.66605L6.72855 4.04105Z" />
</svg>
