<svg width="24" height="24" viewBox="0 0 24 24" fill="none" xmlns="http://www.w3.org/2000/svg">
<path fill-rule="evenodd" clip-rule="evenodd" d="M3 18.75C3 18.5511 3.07902 18.3603 3.21967 18.2197C3.36032 18.079 3.55109 18 3.75 18H14.25C14.4489 18 14.6397 18.079 14.7803 18.2197C14.921 18.3603 15 18.5511 15 18.75C15 18.9489 14.921 19.1397 14.7803 19.2803C14.6397 19.421 14.4489 19.5 14.25 19.5H3.75C3.55109 19.5 3.36032 19.421 3.21967 19.2803C3.07902 19.1397 3 18.9489 3 18.75ZM3 14.25C3 14.0511 3.07902 13.8603 3.21967 13.7197C3.36032 13.579 3.55109 13.5 3.75 13.5H20.25C20.4489 13.5 20.6397 13.579 20.7803 13.7197C20.921 13.8603 21 14.0511 21 14.25C21 14.4489 20.921 14.6397 20.7803 14.7803C20.6397 14.921 20.4489 15 20.25 15H3.75C3.55109 15 3.36032 14.921 3.21967 14.7803C3.07902 14.6397 3 14.4489 3 14.25ZM3 9.75C3 9.55109 3.07902 9.36032 3.21967 9.21967C3.36032 9.07902 3.55109 9 3.75 9H20.25C20.4489 9 20.6397 9.07902 20.7803 9.21967C20.921 9.36032 21 9.55109 21 9.75C21 9.94891 20.921 10.1397 20.7803 10.2803C20.6397 10.421 20.4489 10.5 20.25 10.5H3.75C3.55109 10.5 3.36032 10.421 3.21967 10.2803C3.07902 10.1397 3 9.94891 3 9.75ZM9 5.25C9 5.05109 9.07902 4.86032 9.21967 4.71967C9.36032 4.57902 9.55109 4.5 9.75 4.5H20.25C20.4489 4.5 20.6397 4.57902 20.7803 4.71967C20.921 4.86032 21 5.05109 21 5.25C21 5.44891 20.921 5.63968 20.7803 5.78033C20.6397 5.92098 20.4489 6 20.25 6H9.75C9.55109 6 9.36032 5.92098 9.21967 5.78033C9.07902 5.63968 9 5.44891 9 5.25Z" fill="black"/>
</svg>
