<svg width="18" height="19" viewBox="0 0 18 19" xmlns="http://www.w3.org/2000/svg">
<path fill-rule="evenodd" clip-rule="evenodd" d="M12.7683 1.81215C12.7683 1.81215 12.7683 1.81216 12.7683 1.81217L11.6455 2.99411L15.1126 6.64368L16.2001 5.49893C16.2001 5.49893 16.2001 5.49892 16.2001 5.49892C16.782 4.88639 16.782 3.88318 16.2001 3.27067C16.2001 3.27066 16.2001 3.27066 16.2001 3.27066L14.8146 1.81217C14.2464 1.21415 13.3365 1.21414 12.7683 1.81215ZM14.4229 7.36964L10.9559 3.72007L1.89735 13.2553C1.65242 13.5131 1.498 13.8576 1.46677 14.2297L0.96865 14.1879L1.46677 14.2297L1.22958 17.056C1.1993 17.4169 1.48043 17.6592 1.74721 17.6344L4.43214 17.3847L4.43217 17.3847C4.7665 17.3537 5.08465 17.1993 5.32909 16.9421C5.3291 16.9421 5.32911 16.9421 5.32913 16.9421L14.4229 7.36964ZM12.0433 1.12339C13.0057 0.110399 14.5771 0.110399 15.5396 1.12339L15.5396 1.12341L16.9251 2.58192L16.5626 2.92629L16.9251 2.58193C17.8737 3.58041 17.8737 5.18917 16.9251 6.18766L16.9251 6.18767L15.4751 7.71401L6.05409 17.6309L6.05405 17.6309C5.64781 18.0584 5.10705 18.3263 4.52473 18.3804C4.52472 18.3804 4.52471 18.3804 4.5247 18.3804L1.83982 18.6301C0.89164 18.7183 0.156042 17.8904 0.233082 16.9724L0.470271 14.1461C0.520011 13.5533 0.76656 12.9937 1.17232 12.5666L1.17234 12.5665L10.5934 2.64976L10.5934 2.64975L12.0433 1.12342L12.0433 1.12339Z" />
</svg>
