<svg width="18" height="18" viewBox="0 0 18 18" xmlns="http://www.w3.org/2000/svg" fill="currentColor">
<path d="M3.261 1.291 C 2.751 1.420,2.365 1.844,2.282 2.370 C 2.238 2.641,2.238 15.359,2.282 15.630 C 2.369 16.177,2.766 16.598,3.304 16.714 C 3.490 16.754,3.802 16.733,3.984 16.668 C 4.131 16.615,15.019 10.180,15.233 10.019 C 15.895 9.522,15.895 8.478,15.233 7.981 C 15.022 7.822,4.133 1.386,3.984 1.331 C 3.827 1.275,3.417 1.252,3.261 1.291 M14.067 9.000 C 14.067 9.008,11.746 10.387,8.909 12.065 L 3.750 15.114 3.750 9.000 L 3.750 2.886 8.909 5.935 C 11.746 7.613,14.067 8.992,14.067 9.000 " fill-rule="evenodd"></path>
</svg>