<svg width="18" height="24" viewBox="0 0 18 24" xmlns="http://www.w3.org/2000/svg">
<g id="Group 52">
<path id="print" fill-rule="evenodd" clip-rule="evenodd" d="M6.75 0.25H6.43934L6.21967 0.46967L0.21967 6.46967L0 6.68934V7V21C0 22.5188 1.23122 23.75 2.75 23.75H14.4167C15.9354 23.75 17.1667 22.5188 17.1667 21V3C17.1667 1.48122 15.9354 0.25 14.4167 0.25H6.75ZM7.5 1.75H14.4167C15.107 1.75 15.6667 2.30964 15.6667 3V21C15.6667 21.6904 15.107 22.25 14.4167 22.25H2.75C2.05964 22.25 1.5 21.6904 1.5 21V7.75H4.75C6.26878 7.75 7.5 6.51878 7.5 5V1.75ZM4.75 6.25H2.56066L6 2.81066V5C6 5.69036 5.44035 6.25 4.75 6.25ZM9.76275 13.7605L9.47748 13.9844L9.14087 14.1194C8.00646 14.5743 6.67893 14.1362 6.04995 13.0467C5.35963 11.8511 5.76929 10.3222 6.96496 9.63187C8.16063 8.94155 9.68952 9.35122 10.3798 10.5469C11.0089 11.6365 10.7244 13.0056 9.76275 13.7605ZM11.6789 9.79688C12.6237 11.4333 12.2807 13.4599 10.9644 14.7031C10.8771 14.7855 10.7856 14.8645 10.6899 14.9397L10.689 14.9404L12.9142 18.7945L13.2802 19.4285C13.438 19.7018 13.3443 20.0512 13.071 20.209C12.7977 20.3668 12.4482 20.2732 12.2905 19.9999L11.9244 19.3659L9.69925 15.5118L9.69917 15.5116C9.58582 15.5571 9.47128 15.597 9.3559 15.6314C7.62139 16.1491 5.6955 15.4328 4.75091 13.7967C3.64638 11.8836 4.30186 9.43736 6.21496 8.33283C8.12807 7.2283 10.5743 7.88378 11.6789 9.79688Z" />
</g>
</svg>
