<svg width="22" height="22" viewBox="0 0 22 22" fill="none" xmlns="http://www.w3.org/2000/svg">
<path fill-rule="evenodd" clip-rule="evenodd" d="M8.75173 7.35766C8.82728 4.24779 11.3719 1.75 14.5 1.75C17.6757 1.75 20.25 4.32436 20.25 7.5C20.25 10.6281 17.7523 13.1727 14.6423 13.2483C14.1201 10.2473 11.7527 7.87992 8.75173 7.35766ZM7.25409 7.25409C7.38375 3.36388 10.5782 0.25 14.5 0.25C18.5041 0.25 21.75 3.49594 21.75 7.5C21.75 11.4218 18.6362 14.6163 14.7459 14.7459C14.6163 18.6362 11.4218 21.75 7.5 21.75C3.49594 21.75 0.25 18.5041 0.25 14.5C0.25 10.5782 3.36388 7.38375 7.25409 7.25409ZM1.75 14.5C1.75 11.3243 4.32436 8.75 7.5 8.75C10.6757 8.75 13.25 11.3243 13.25 14.5C13.25 17.6757 10.6757 20.25 7.5 20.25C4.32436 20.25 1.75 17.6757 1.75 14.5ZM21 15.25C21.4142 15.25 21.75 15.5858 21.75 16C21.75 18.0711 20.0711 19.75 18 19.75H17.8107L18.5303 20.4697C18.8232 20.7626 18.8232 21.2374 18.5303 21.5303C18.2374 21.8232 17.7626 21.8232 17.4697 21.5303L15.4697 19.5303C15.1768 19.2374 15.1768 18.7626 15.4697 18.4697L17.4697 16.4697C17.7626 16.1768 18.2374 16.1768 18.5303 16.4697C18.8232 16.7626 18.8232 17.2374 18.5303 17.5303L17.8107 18.25H18C19.2427 18.25 20.25 17.2427 20.25 16C20.25 15.5858 20.5858 15.25 21 15.25ZM4.53033 0.46967C4.23744 0.176777 3.76256 0.176777 3.46967 0.46967C3.17678 0.762563 3.17678 1.23744 3.46967 1.53033L4.18934 2.25H4C1.92894 2.25 0.25 3.92894 0.25 6C0.25 6.41421 0.585786 6.75 1 6.75C1.41421 6.75 1.75 6.41421 1.75 6C1.75 4.75736 2.75736 3.75 4 3.75H4.18934L3.46967 4.46967C3.17678 4.76256 3.17678 5.23744 3.46967 5.53033C3.76256 5.82322 4.23744 5.82322 4.53033 5.53033L6.53033 3.53033C6.82322 3.23744 6.82322 2.76256 6.53033 2.46967L4.53033 0.46967Z" fill="black"/>
</svg>
