<svg width="20" height="20" viewBox="0 0 20 20" xmlns="http://www.w3.org/2000/svg">
<path id="settings" fill-rule="evenodd" clip-rule="evenodd" d="M9.06583 0.0833334C8.72513 0.0833334 8.42724 0.312975 8.34053 0.642457L7.85521 2.48661L6.20709 3.18135L4.99836 2.10626C4.70157 1.84229 4.25045 1.85548 3.96959 2.13634L2.13625 3.96967C1.86449 4.24143 1.84214 4.67464 2.08449 4.97293L3.13691 6.26828L2.45956 7.93363L0.662795 8.35296C0.32337 8.43218 0.083252 8.73479 0.083252 9.08333V10.9167C0.083252 11.2548 0.309525 11.5511 0.63573 11.6402L2.48485 12.145L3.18084 13.796L2.10674 15.0009C1.84222 15.2977 1.85516 15.7492 2.13625 16.0303L3.96959 17.8637C4.24165 18.1357 4.67546 18.1578 4.97372 17.9147L6.26945 16.8588L7.89583 17.5278L8.35608 19.3503C8.44019 19.6833 8.73977 19.9167 9.08325 19.9167H10.9166C11.2599 19.9167 11.5593 19.6836 11.6436 19.3508L12.1054 17.5277L13.7813 16.8337C13.9522 16.9754 14.1579 17.1516 14.3596 17.3272C14.532 17.4772 14.6921 17.6185 14.8092 17.7225C14.8677 17.7744 14.9154 17.8169 14.9484 17.8463L14.9863 17.8801L14.996 17.8889L14.9984 17.891L14.999 17.8915L14.9991 17.8917L14.9992 17.8917C15.2957 18.1577 15.7485 18.1454 16.0302 17.8637L17.8636 16.0303C18.1396 15.7543 18.1578 15.3127 17.9053 15.015L16.8409 13.7594L17.5294 12.0967L19.3553 11.6216C19.6858 11.5356 19.9165 11.2373 19.9165 10.8958L19.9166 9.08337C19.9166 8.74033 19.6839 8.44101 19.3514 8.35647L17.5362 7.89488L16.8487 6.23467L17.906 4.98425C18.1578 4.68647 18.1393 4.24542 17.8636 3.96967L16.0302 2.13634C15.7534 1.85952 15.3103 1.84217 15.0127 2.0965L13.7705 3.15804L12.0584 2.45396L11.5827 0.642783C11.4961 0.313141 11.1981 0.0833334 10.8573 0.0833334H9.06583ZM9.2119 3.22525L9.644 1.58333H10.2788L10.7025 3.19615C10.7623 3.42356 10.9252 3.6098 11.1426 3.69923L13.624 4.71967C13.8842 4.82671 14.1825 4.77903 14.3965 4.5962L15.46 3.68737L16.3151 4.54253L15.4082 5.61515C15.227 5.82947 15.1806 6.12705 15.288 6.38636L16.2942 8.81608C16.3847 9.03464 16.573 9.19768 16.8023 9.25598L18.4166 9.66648L18.4165 10.3159L16.7905 10.739C16.5629 10.7982 16.3763 10.9607 16.2864 11.1779L15.2799 13.6083C15.1724 13.868 15.219 14.1659 15.4007 14.3803L16.3145 15.4581L15.4685 16.3041L15.3445 16.1958C15.004 15.8994 14.5745 15.5325 14.3366 15.3624C14.126 15.2119 13.8526 15.1806 13.6135 15.2796L11.1837 16.2858C10.965 16.3764 10.8018 16.5651 10.7437 16.7946L10.3329 18.4167H9.66739L9.25767 16.7943C9.19949 16.5639 9.03558 16.3747 8.81584 16.2843L6.42715 15.3017C6.17268 15.197 5.88132 15.2401 5.66801 15.4139L4.55124 16.324L3.69768 15.4704L4.61586 14.4405C4.80848 14.2244 4.85956 13.9168 4.74713 13.6501L3.72537 11.2262C3.63592 11.014 3.45394 10.8547 3.23179 10.794L1.58325 10.344V9.67845L3.1785 9.30615C3.41558 9.25082 3.61105 9.08386 3.70278 8.85835L4.69357 6.42235C4.79669 6.16883 4.75352 5.87927 4.58094 5.66685L3.6752 4.55204L4.53004 3.6972L5.56385 4.6167C5.7799 4.80887 6.08718 4.85972 6.35362 4.7474L8.77792 3.72548C8.99235 3.63509 9.15267 3.45029 9.2119 3.22525ZM9.99992 6.5C8.06688 6.5 6.49992 8.06696 6.49992 10C6.49992 11.933 8.06688 13.5 9.99992 13.5C11.933 13.5 13.4999 11.933 13.4999 10C13.4999 8.06696 11.933 6.5 9.99992 6.5ZM7.99992 10C7.99992 8.89539 8.89531 8 9.99992 8C11.1045 8 11.9999 8.89539 11.9999 10C11.9999 11.1046 11.1045 12 9.99992 12C8.89531 12 7.99992 11.1046 7.99992 10Z"/>
</svg>
