<svg width="20" height="20" viewBox="0 0 20 20" fill="none" xmlns="http://www.w3.org/2000/svg">
<g id="settings" clip-path="url(#clip0_411_7649)">
<path id="Vector" d="M10 12.75C11.5188 12.75 12.75 11.5188 12.75 10C12.75 8.48117 11.5188 7.25 10 7.25C8.48117 7.25 7.25 8.48117 7.25 10C7.25 11.5188 8.48117 12.75 10 12.75Z" stroke-width="1.5" stroke-linecap="round" stroke-linejoin="round"/>
<path id="Vector_2" d="M16.9872 8.52913L15.981 6.09941L17.3333 4.50001L15.5 2.66668L13.9093 4.02605L11.428 3.00561L10.8573 0.833344H9.0659L8.48665 3.03438L6.06236 4.05631L4.49998 2.66668L2.66665 4.50001L3.9989 6.13979L3.0081 8.57578L0.833313 9.08334V10.9167L3.03433 11.5176L4.05608 13.9414L2.66665 15.5L4.49998 17.3333L6.14188 15.9953L8.53056 16.978L9.08331 19.1667H10.9166L11.4708 16.9788L13.9005 15.9726C14.3055 16.262 15.5 17.3333 15.5 17.3333L17.3333 15.5L15.9729 13.8953L16.9794 11.4648L19.1666 10.8958L19.1666 9.08334L16.9872 8.52913Z" stroke-width="1.5" stroke-linecap="round" stroke-linejoin="round"/>
</g>
<defs>
<clipPath id="clip0_411_7649">
<rect width="20" height="20"/>
</clipPath>
</defs>
</svg>
