<svg width="24" height="24" viewBox="0 0 24 24" xmlns="http://www.w3.org/2000/svg">
<g id="Frame">
<path id="Union" fill-rule="evenodd" clip-rule="evenodd" d="M7.43652 4.67854C6.55123 3.97964 5.25 4.61018 5.25 5.73814V18.2619C5.25 19.39 6.55131 20.0202 7.43649 19.3215L7.43652 19.3215L15.3682 13.0596C16.0529 12.5191 16.0529 11.4809 15.3682 10.9404L7.43652 4.67855L7.43652 4.67854ZM14.2896 12L6.75 6.04767V17.9523L14.2896 12ZM18.75 6.99999C18.75 6.58578 18.4142 6.24999 18 6.24999C17.5858 6.24999 17.25 6.58578 17.25 6.99999V17C17.25 17.4142 17.5858 17.75 18 17.75C18.4142 17.75 18.75 17.4142 18.75 17V6.99999Z" />
</g>
</svg>
