<svg width="24" height="20" viewBox="0 0 24 20" xmlns="http://www.w3.org/2000/svg">
<path id="Union" fill-rule="evenodd" clip-rule="evenodd" d="M1 1.5C1 1.22386 1.22386 1 1.5 1H11.25V18.75H1.5C1.22386 18.75 1 18.5261 1 18.25V1.5ZM11.25 19.75H1.5C0.671573 19.75 0 19.0784 0 18.25V1.5C0 0.671573 0.671573 0 1.5 0H11.25H11.75H12.25H22C22.8284 0 23.5 0.671573 23.5 1.5V18.25C23.5 19.0784 22.8284 19.75 22 19.75H12.25H11.75H11.25ZM12.25 18.75H22C22.2761 18.75 22.5 18.5261 22.5 18.25V1.5C22.5 1.22386 22.2761 1 22 1H12.25V18.75ZM5.22855 7.72855C5.42382 7.53329 5.42382 7.21671 5.22855 7.02145C5.03329 6.82618 4.71671 6.82618 4.52145 7.02145L2.16287 9.38002C1.8895 9.65339 1.8895 10.0966 2.16287 10.37L4.52145 12.7286C4.71671 12.9238 5.03329 12.9238 5.22855 12.7286C5.42382 12.5333 5.42382 12.2167 5.22855 12.0214L3.08211 9.875L5.22855 7.72855ZM7.72855 7.02145C7.53329 6.82618 7.21671 6.82618 7.02145 7.02145C6.82618 7.21671 6.82618 7.53329 7.02145 7.72855L9.16789 9.875L7.02145 12.0214C6.82618 12.2167 6.82618 12.5333 7.02145 12.7286C7.21671 12.9238 7.53329 12.9238 7.72855 12.7286L10.0871 10.37C10.3605 10.0966 10.3605 9.65339 10.0871 9.38002L7.72855 7.02145ZM13.625 3.125C13.3489 3.125 13.125 3.34886 13.125 3.625C13.125 3.90114 13.3489 4.125 13.625 4.125H21.125C21.4011 4.125 21.625 3.90114 21.625 3.625C21.625 3.34886 21.4011 3.125 21.125 3.125H13.625ZM13.625 5.625C13.3489 5.625 13.125 5.84886 13.125 6.125C13.125 6.40114 13.3489 6.625 13.625 6.625H21.125C21.4011 6.625 21.625 6.40114 21.625 6.125C21.625 5.84886 21.4011 5.625 21.125 5.625H13.625ZM13.625 8.125C13.3489 8.125 13.125 8.34886 13.125 8.625C13.125 8.90114 13.3489 9.125 13.625 9.125H18.625C18.9011 9.125 19.125 8.90114 19.125 8.625C19.125 8.34886 18.9011 8.125 18.625 8.125H13.625Z" />
</svg>
