<svg width="24" height="21" viewBox="0 0 24 21" xmlns="http://www.w3.org/2000/svg">
<path id="Union" fill-rule="evenodd" clip-rule="evenodd" d="M11.75 0C8.56736 0 6.77939 1.07662 5.85688 2.61413C5.16727 3.76348 5.03248 5.07248 5.00627 6.05083C4.14099 6.16468 3.10065 6.48336 2.18677 7.14135C0.951982 8.0304 0 9.50556 0 11.75C0 13.2434 0.421581 14.4116 1.09232 15.2958C1.75705 16.1721 2.63208 16.7248 3.47642 17.0556C3.86209 17.2067 4.29722 17.0166 4.44832 16.6309C4.59942 16.2452 4.40926 15.8101 4.02358 15.659C3.3742 15.4046 2.74923 14.9981 2.28739 14.3893C1.83156 13.7884 1.5 12.9455 1.5 11.75C1.5 9.99444 2.21468 8.9696 3.06323 8.35865C3.95001 7.72016 5.03668 7.5 5.75 7.5C6.16421 7.5 6.5 7.16421 6.5 6.75C6.5 5.72236 6.51553 4.43186 7.14312 3.38587C7.72061 2.42338 8.93264 1.5 11.75 1.5C14.5674 1.5 15.7794 2.42338 16.3569 3.38587C16.9845 4.43186 17 5.72236 17 6.75C17 7.16421 17.3358 7.5 17.75 7.5C18.4633 7.5 19.55 7.72016 20.4368 8.35865C21.2853 8.9696 22 9.99444 22 11.75C22 12.9455 21.6684 13.7884 21.2126 14.3893C20.7508 14.9981 20.1258 15.4046 19.4764 15.659C19.0907 15.8101 18.9006 16.2452 19.0517 16.6309C19.2028 17.0166 19.6379 17.2067 20.0236 17.0556C20.8679 16.7248 21.7429 16.1721 22.4077 15.2958C23.0784 14.4116 23.5 13.2434 23.5 11.75C23.5 9.50556 22.548 8.0304 21.3132 7.14135C20.3994 6.48335 19.359 6.16468 18.4937 6.05083C18.4675 5.07248 18.3327 3.76348 17.6431 2.61413C16.7206 1.07662 14.9326 0 11.75 0ZM16.2803 15.2803C16.5732 14.9874 16.5732 14.5126 16.2803 14.2197C15.9874 13.9268 15.5126 13.9268 15.2197 14.2197L10.75 18.6893L8.28033 16.2197C7.98744 15.9268 7.51256 15.9268 7.21967 16.2197C6.92678 16.5126 6.92678 16.9874 7.21967 17.2803L10.2197 20.2803C10.5126 20.5732 10.9874 20.5732 11.2803 20.2803L16.2803 15.2803Z" />
</svg>
