<!-- placeholder icon -->
<svg id="Layer_1" data-name="Layer 1" xmlns="http://www.w3.org/2000/svg" viewBox="0 0 24 24" stroke-width="1.5" width="24" height="24" color="#000000">
  <defs>
    <style>
      .cls-637b7b44f95e86b59c579f7b-1{fill:none;stroke:currentColor;stroke-miterlimit:10;}
    </style>
  </defs>
  <path class="cls-637b7b44f95e86b59c579f7b-1" d="M1.5,18.68H8.18A3.82,3.82,0,0,1,12,22.5v0a0,0,0,0,1,0,0H1.5a0,0,0,0,1,0,0V18.68A0,0,0,0,1,1.5,18.68Z"></path><path class="cls-637b7b44f95e86b59c579f7b-1" d="M15.82,18.68H22.5a0,0,0,0,1,0,0V22.5a0,0,0,0,1,0,0H12a0,0,0,0,1,0,0v0A3.82,3.82,0,0,1,15.82,18.68Z"></path><path class="cls-637b7b44f95e86b59c579f7b-1" d="M1.5,6.27H8.18A3.82,3.82,0,0,1,12,10.09V22.5a0,0,0,0,1,0,0H1.5a0,0,0,0,1,0,0V6.27A0,0,0,0,1,1.5,6.27Z"></path>
  <path class="cls-637b7b44f95e86b59c579f7b-1" d="M19.64,6.27H22.5V22.5H12V10.09a3.82,3.82,0,0,1,3.82-3.82"></path>
  <path class="cls-637b7b44f95e86b59c579f7b-1" d="M19.64,13l-1.91,1.91L15.82,13V3.41A1.9,1.9,0,0,1,17.73,1.5h0a1.91,1.91,0,0,1,1.91,1.91Z"></path>
</svg>