<?xml version="1.0" encoding="UTF-8" standalone="no"?>
<svg
   xmlns:dc="http://purl.org/dc/elements/1.1/"
   xmlns:cc="http://creativecommons.org/ns#"
   xmlns:rdf="http://www.w3.org/1999/02/22-rdf-syntax-ns#"
   xmlns:svg="http://www.w3.org/2000/svg"
   xmlns="http://www.w3.org/2000/svg"
   xmlns:sodipodi="http://sodipodi.sourceforge.net/DTD/sodipodi-0.dtd"
   xmlns:inkscape="http://www.inkscape.org/namespaces/inkscape"
   viewBox="0 0 943 193"
   width="200"
   version="1.1"
   id="svg953"
   sodipodi:docname="ArgosCI.svg"
   inkscape:version="0.92.3 (unknown)">
  <metadata
     id="metadata957">
    <rdf:RDF>
      <cc:Work
         rdf:about="">
        <dc:format>image/svg+xml</dc:format>
        <dc:type
           rdf:resource="http://purl.org/dc/dcmitype/StillImage" />
      </cc:Work>
    </rdf:RDF>
  </metadata>
  <sodipodi:namedview
     pagecolor="#ffffff"
     bordercolor="#666666"
     borderopacity="1"
     objecttolerance="10"
     gridtolerance="10"
     guidetolerance="10"
     inkscape:pageopacity="0"
     inkscape:pageshadow="2"
     inkscape:window-width="1869"
     inkscape:window-height="1056"
     id="namedview955"
     showgrid="false"
     inkscape:zoom="4.8393782"
     inkscape:cx="100"
     inkscape:cy="96.5"
     inkscape:window-x="51"
     inkscape:window-y="24"
     inkscape:window-maximized="1"
     inkscape:current-layer="svg953" />
  <title
     id="title914">Argos CI</title>
  <defs
     id="defs936">
    <linearGradient
       x1="120.91251"
       y1="55.584087"
       x2="53.76858"
       y2="100.97417"
       id="linearGradient-1"
       gradientTransform="matrix(1.2632531,0,0,0.791607,40,25.76779)"
       gradientUnits="userSpaceOnUse">
      <stop
         stop-color="#804FCE"
         offset="0%"
         id="stop916" />
      <stop
         stop-color="#2D3383"
         offset="100%"
         id="stop918" />
    </linearGradient>
    <radialGradient
       cx="106.48063"
       cy="59.553371"
       fx="106.48063"
       fy="59.553371"
       r="47.23472"
       id="radialGradient-2"
       gradientUnits="userSpaceOnUse"
       gradientTransform="translate(40,25.76779)">
      <stop
         stop-color="#311476"
         offset="0%"
         id="stop921" />
      <stop
         stop-color="#2B214F"
         offset="100%"
         id="stop923" />
    </radialGradient>
    <radialGradient
       cx="80.458765"
       cy="48.032673"
       fx="80.458765"
       fy="48.032673"
       r="53.859584"
       gradientTransform="matrix(0.92727388,-0.37464297,0.37457023,0.92709384,24.710586,66.122613)"
       id="radialGradient-3"
       gradientUnits="userSpaceOnUse">
      <stop
         stop-color="#1B357A"
         offset="0%"
         id="stop926" />
      <stop
         stop-color="#512BCD"
         offset="100%"
         id="stop928" />
    </radialGradient>
    <radialGradient
       cx="82.633787"
       cy="42.352417"
       fx="82.633787"
       fy="42.352417"
       r="55.267524"
       gradientTransform="matrix(0.935577,-0.37799764,0.37124596,0.91886599,25.49199,66.623495)"
       id="radialGradient-4"
       gradientUnits="userSpaceOnUse">
      <stop
         stop-color="#493CA8"
         offset="0%"
         id="stop931" />
      <stop
         stop-color="#512BCC"
         offset="100%"
         id="stop933" />
    </radialGradient>
  </defs>
  <path
     inkscape:connector-curvature="0"
     style="fill:url(#linearGradient-1);fill-rule:evenodd;stroke:none;stroke-width:1"
     id="Path"
     d="M 40,85.324307 C 69.538029,45.619963 101.3842,25.76779 135.53853,25.76779 c 34.15432,0 65.85558,19.852173 95.10379,59.556517 -29.24821,39.938603 -60.94947,59.907903 -95.10379,59.907903 -34.15433,0 -66.000501,-19.9693 -95.53853,-59.907903 z" />
  <path
     style="fill:#ffffff;fill-rule:evenodd;stroke:none;stroke-width:1"
     inkscape:connector-curvature="0"
     id="Oval"
     d="m 136.00499,135.21723 c 27.57425,0 49.92759,-22.33923 49.92759,-49.896069 0,-27.556837 -22.35334,-49.896068 -49.92759,-49.896068 -27.57426,0 -49.927603,22.339231 -49.927603,49.896068 0,7.7143 -1.581625,42.189979 2.584337,33.168539 4.165962,-9.02144 4.724026,-11.32068 7.355401,-8.1653 9.158435,10.98223 24.564255,24.89283 39.987865,24.89283 z" />
  <circle
     style="fill:url(#radialGradient-2);fill-rule:evenodd;stroke:none;stroke-width:1"
     r="34.158241"
     cy="85.321159"
     cx="136.03651"
     id="circle940" />
  <path
     inkscape:connector-curvature="0"
     style="fill:url(#radialGradient-3);fill-rule:evenodd;stroke:none;stroke-width:1"
     id="path942"
     d="m 148.9725,116.97974 c 17.51541,-7.0748 25.97769,-27.0053 18.90103,-44.516003 -4e-5,35.492553 -38.44677,42.757973 -51.65996,29.540143 -13.2132,-13.217822 -11.1918,-40.846617 7.13208,-48.436006 -17.5154,7.074809 -25.97768,27.005303 -18.90102,44.516007 7.07662,17.510719 27.01247,25.970669 44.52787,18.895859 z" />
  <path
     inkscape:connector-curvature="0"
     style="fill:url(#radialGradient-4);fill-rule:evenodd;stroke:none;stroke-width:1"
     id="path944"
     d="m 148.82914,112.85294 c 14.59652,-5.72319 25.12746,-25.078116 18.05083,-42.588744 0,35.492384 -29.13642,39.018784 -42.34954,25.801005 -13.21311,-13.217779 -7.08451,-35.668694 2.89532,-42.124838 -17.51526,7.074789 -25.98844,24.614211 -18.91181,42.124838 7.07659,17.510639 25.71868,22.510919 40.3152,16.787739 z" />
  <path
     style="fill:#5b5b5b;fill-rule:nonzero;stroke:none;stroke-width:1;fill-opacity:1"
     inkscape:connector-curvature="0"
     id="argos"
     d="m 353.28,41.42 c 2.52001,0 4.58999,0.809992 6.21,2.43 1.62001,1.620008 2.43,3.749987 2.43,6.39 v 78.12 c 0,2.40001 -0.80999,4.43999 -2.43,6.12 -1.62001,1.68001 -3.68999,2.52 -6.21,2.52 -2.52001,0 -4.55999,-0.80999 -6.12,-2.43 -1.56001,-1.62001 -2.34,-3.68999 -2.34,-6.21 v -4.68 c -3.12002,4.20002 -7.37997,7.76998 -12.78,10.71 -5.40003,2.94001 -11.21997,4.41 -17.46,4.41 -8.16004,0 -15.56997,-2.09998 -22.23,-6.3 -6.66003,-4.20002 -11.87998,-10.04996 -15.66,-17.55 -3.78002,-7.50004 -5.67,-15.929953 -5.67,-25.29 0,-9.360047 1.88998,-17.789963 5.67,-25.29 3.78002,-7.500038 8.96997,-13.349979 15.57,-17.55 6.60003,-4.200021 13.85996,-6.3 21.78,-6.3 6.36003,0 12.26997,1.319987 17.73,3.96 5.46003,2.640013 9.80998,5.99998 13.05,10.08 v -4.32 c 0,-2.520013 0.77999,-4.619992 2.34,-6.3 1.56001,-1.680008 3.59999,-2.52 6.12,-2.52 z m -36.72,81.54 c 5.64003,0 10.64998,-1.43999 15.03,-4.32 4.38002,-2.88001 7.79999,-6.83998 10.26,-11.88 2.46001,-5.04003 3.69,-10.739968 3.69,-17.1 0,-6.240031 -1.22999,-11.879975 -3.69,-16.92 -2.46001,-5.040025 -5.87998,-9.029985 -10.26,-11.97 -4.38002,-2.940015 -9.38997,-4.41 -15.03,-4.41 -5.64003,0 -10.64998,1.439986 -15.03,4.32 -4.38002,2.880014 -7.79999,6.839975 -10.26,11.88 -2.46001,5.040025 -3.69,10.739968 -3.69,17.1 0,6.360032 1.22999,12.05997 3.69,17.1 2.46001,5.04002 5.87998,8.99999 10.26,11.88 4.38002,2.88001 9.38997,4.32 15.03,4.32 z M 434.28,40.52 c 3.12002,0 5.81999,0.809992 8.1,2.43 2.28001,1.620008 3.42,3.629988 3.42,6.03 0,2.880014 -0.74999,5.069993 -2.25,6.57 -1.50001,1.500007 -3.32999,2.25 -5.49,2.25 -1.08001,0 -2.69999,-0.359996 -4.86,-1.08 -2.52001,-0.840004 -4.49999,-1.26 -5.94,-1.26 -3.72002,0 -7.34998,1.289987 -10.89,3.87 -3.54002,2.580013 -6.41999,6.119977 -8.64,10.62 -2.22001,4.500023 -3.33,9.509972 -3.33,15.03 v 43.38 c 0,2.40001 -0.80999,4.43999 -2.43,6.12 -1.62001,1.68001 -3.68999,2.52 -6.21,2.52 -2.52001,0 -4.55999,-0.80999 -6.12,-2.43 -1.56001,-1.62001 -2.34,-3.68999 -2.34,-6.21 V 51.32 c 0,-2.400012 0.80999,-4.439992 2.43,-6.12 1.62001,-1.68 3.62999,-2.52 6.03,-2.52 2.52001,0 4.58999,0.84 6.21,2.52 1.62001,1.680008 2.43,3.719988 2.43,6.12 v 9.18 c 2.64001,-5.880029 6.59997,-10.649982 11.88,-14.31 5.28003,-3.660018 11.27997,-5.549999 18,-5.67 z m 103.5,0.9 c 2.52001,0 4.58999,0.809992 6.21,2.43 1.62001,1.620008 2.43,3.749987 2.43,6.39 v 79.2 c 0,9.72005 -2.06998,17.84997 -6.21,24.39 -4.14002,6.54003 -9.74997,11.36998 -16.83,14.49 -7.08004,3.12002 -15.05996,4.68 -23.94,4.68 -4.80002,0 -10.40997,-0.83999 -16.83,-2.52 -6.42003,-1.68001 -10.52999,-3.41999 -12.33,-5.22 -3.72002,-1.92001 -5.58,-4.31999 -5.58,-7.2 0,-0.72 0.24,-1.67999 0.72,-2.88 1.32001,-3.00001 3.53998,-4.5 6.66,-4.5 1.56001,0 3.23999,0.36 5.04,1.08 9.60005,3.72002 17.09997,5.58 22.5,5.58 9.60005,0 16.94997,-2.30998 22.05,-6.93 5.10002,-4.62002 7.65,-10.94996 7.65,-18.99 v -9.72 c -2.52001,4.68002 -6.74997,8.69998 -12.69,12.06 -5.94003,3.36002 -12.20997,5.04 -18.81,5.04 -8.28004,0 -15.83997,-2.09998 -22.68,-6.3 -6.84003,-4.20002 -12.20998,-10.04996 -16.11,-17.55 -3.90002,-7.50004 -5.85,-15.929953 -5.85,-25.29 0,-9.360047 1.94998,-17.789963 5.85,-25.29 3.90002,-7.500038 9.23997,-13.349979 16.02,-17.55 6.78003,-4.200021 14.24996,-6.3 22.41,-6.3 6.60003,0 12.74997,1.499985 18.45,4.5 5.70003,3.000015 10.16998,6.659978 13.41,10.98 v -5.76 c 0,-2.520013 0.77999,-4.619992 2.34,-6.3 1.56001,-1.680008 3.59999,-2.52 6.12,-2.52 z m -37.98,81.54 c 5.88003,0 11.09998,-1.40999 15.66,-4.23 4.56002,-2.82001 8.12999,-6.77998 10.71,-11.88 2.58001,-5.10003 3.87,-10.829968 3.87,-17.19 0,-6.360032 -1.28999,-12.059975 -3.87,-17.1 -2.58001,-5.040025 -6.14998,-8.999986 -10.71,-11.88 -4.56002,-2.880014 -9.77997,-4.32 -15.66,-4.32 -5.76003,0 -10.91998,1.439986 -15.48,4.32 -4.56002,2.880014 -8.12999,6.869974 -10.71,11.97 -2.58001,5.100025 -3.87,10.769969 -3.87,17.01 0,6.240031 1.28999,11.90997 3.87,17.01 2.58001,5.10003 6.14998,9.08999 10.71,11.97 4.56002,2.88001 9.71997,4.32 15.48,4.32 z M 657.48,89.84 c 0,9.360047 -2.09998,17.75996 -6.3,25.2 -4.20002,7.44004 -9.92996,13.25998 -17.19,17.46 -7.26004,4.20002 -15.26996,6.3 -24.03,6.3 -8.76004,0 -16.76996,-2.09998 -24.03,-6.3 -7.26004,-4.20002 -12.98998,-10.01996 -17.19,-17.46 -4.20002,-7.44004 -6.3,-15.839953 -6.3,-25.2 0,-9.360047 2.09998,-17.819962 6.3,-25.38 4.20002,-7.560038 9.92996,-13.439979 17.19,-17.64 7.26004,-4.200021 15.26996,-6.3 24.03,-6.3 8.76004,0 16.76996,2.099979 24.03,6.3 7.26004,4.200021 12.98998,10.079962 17.19,17.64 4.20002,7.560038 6.3,16.019953 6.3,25.38 z m -17.1,0 c 0,-6.480032 -1.34999,-12.269975 -4.05,-17.37 -2.70001,-5.100025 -6.35998,-9.059986 -10.98,-11.88 -4.62002,-2.820014 -9.74997,-4.23 -15.39,-4.23 -5.64003,0 -10.76998,1.409986 -15.39,4.23 -4.62002,2.820014 -8.27999,6.779975 -10.98,11.88 -2.70001,5.100025 -4.05,10.889968 -4.05,17.37 0,6.360032 1.34999,12.05998 4.05,17.1 2.70001,5.04002 6.35998,8.96999 10.98,11.79 4.62002,2.82001 9.74997,4.23 15.39,4.23 5.64003,0 10.76998,-1.40999 15.39,-4.23 4.62002,-2.82001 8.27999,-6.74998 10.98,-11.79 2.70001,-5.04003 4.05,-10.739968 4.05,-17.1 z m 31.5,32.4 c -1.08,-1.68001 -1.62,-3.29999 -1.62,-4.86 0,-2.40001 1.25999,-4.43999 3.78,-6.12 1.20001,-0.84 2.57999,-1.26 4.14,-1.26 2.16001,0 4.13999,0.89999 5.94,2.7 3.60002,4.08002 7.46998,7.13999 11.61,9.18 4.14002,2.04001 9.08997,3.06 14.85,3.06 4.56002,-0.12 8.57998,-1.16999 12.06,-3.15 3.48002,-1.98001 5.22,-5.18998 5.22,-9.63 0,-4.08002 -1.76998,-7.19999 -5.31,-9.36 -3.54002,-2.16001 -8.72997,-4.139991 -15.57,-5.94 -6.72003,-1.800009 -12.29998,-3.68999 -16.74,-5.67 -4.44002,-1.98001 -8.18999,-4.859981 -11.25,-8.64 -3.06002,-3.780019 -4.59,-8.729969 -4.59,-14.85 0,-5.400027 1.52998,-10.13998 4.59,-14.22 3.06001,-4.08002 7.13997,-7.259989 12.24,-9.54 5.10003,-2.280011 10.64997,-3.42 16.65,-3.42 5.76003,0 11.48997,1.079989 17.19,3.24 5.70003,2.160011 10.34998,5.459978 13.95,9.9 1.44001,1.680008 2.16,3.419991 2.16,5.22 0,1.92001 -0.95999,3.779991 -2.88,5.58 -1.20001,1.080005 -2.69999,1.62 -4.5,1.62 -2.16001,0 -3.89999,-0.719993 -5.22,-2.16 -2.52001,-2.880014 -5.60998,-5.099992 -9.27,-6.66 -3.66002,-1.560008 -7.70998,-2.34 -12.15,-2.34 -4.56002,0 -8.42998,0.929991 -11.61,2.79 -3.18002,1.860009 -4.77,5.009978 -4.77,9.45 0.12,4.200021 1.94998,7.31999 5.49,9.36 3.54002,2.04001 8.96996,4.01999 16.29,5.94 6.36003,1.680008 11.63998,3.47999 15.84,5.4 4.20002,1.92001 7.73999,4.769981 10.62,8.55 2.88001,3.78002 4.32,8.72997 4.32,14.85 0,5.64003 -1.61998,10.52998 -4.86,14.67 -3.24002,4.14002 -7.46997,7.31999 -12.69,9.54 -5.22003,2.22001 -10.76997,3.33 -16.65,3.33 -7.56004,0 -14.54997,-1.31999 -20.97,-3.96 -6.42003,-2.64001 -11.84998,-6.83997 -16.29,-12.6 z" />
  <path
     style="fill:#727272;fill-rule:nonzero;stroke:none;stroke-width:1;fill-opacity:1"
     inkscape:connector-curvature="0"
     id="CI"
     d="m 836.465,138.89 c -25.11,0 -38.07,-17.55 -38.07,-40.635 v -17.01 c 0,-23.085 12.96,-40.635 38.07,-40.635 21.33,0 34.83,14.58 36.45,31.995 h -6.345 c -1.89,-14.31 -12.015,-26.46 -30.24,-26.46 -20.79,0 -31.32,14.85 -31.32,34.965 v 17.28 c 0,20.115 10.53,34.965 31.32,34.965 18.225,0 28.35,-12.15 30.24,-26.46 h 6.345 c -1.62,17.415 -15.12,31.995 -36.45,31.995 z M 896.135,137 V 42.5 h 6.615 V 137 Z" />
</svg>
