<svg fill="none" height="64" viewBox="0 0 64 64" width="64" xmlns="http://www.w3.org/2000/svg"><path d="m0 0v64h64v-64zm32 49.0667c-9.4933 0-17.1733-7.68-17.1733-17.1734 0-9.4933 7.68-17.1733 17.1733-17.1733s17.1733 7.68 17.1733 17.1733c0 9.4934-7.68 17.1734-17.1733 17.1734z" fill="#6f6"/><path d="m46.5067 49.1733c9.4845 0 17.1733-7.6887 17.1733-17.1733s-7.6888-17.1733-17.1733-17.1733c-9.4846 0-17.1734 7.6887-17.1734 17.1733s7.6888 17.1733 17.1734 17.1733z" fill="#2568ef"/><path d="m46.5066 14.8267c-2.6667 0-5.2267.64-7.36 1.7066 5.76 2.7734 9.7067 8.64 9.7067 15.4667s-3.9467 12.6933-9.7067 15.4667c2.24 1.0666 4.8 1.7066 7.36 1.7066 9.4933 0 17.1733-7.68 17.1733-17.1733s-7.7866-17.1733-17.1733-17.1733z" fill="#0f6860"/></svg>