<svg width="256" height="64" viewBox="0 0 256 64" fill="none" xmlns="http://www.w3.org/2000/svg">
<path d="M0 0V64H64V0H0ZM32 49.0667C22.5067 49.0667 14.8267 41.3867 14.8267 31.8933C14.8267 22.4 22.5067 14.72 32 14.72C41.4933 14.72 49.1733 22.4 49.1733 31.8933C49.1733 41.3867 41.4933 49.0667 32 49.0667Z" fill="#66FF66"/>
<path d="M46.5067 49.1733C55.9913 49.1733 63.68 41.4846 63.68 32C63.68 22.5154 55.9913 14.8267 46.5067 14.8267C37.0221 14.8267 29.3333 22.5154 29.3333 32C29.3333 41.4846 37.0221 49.1733 46.5067 49.1733Z" fill="white" fill-opacity="0.4"/>
<path d="M46.5066 14.8267C43.8399 14.8267 41.2799 15.4667 39.1466 16.5333C44.9066 19.3067 48.8533 25.1733 48.8533 32C48.8533 38.8267 44.9066 44.6933 39.1466 47.4667C41.3866 48.5333 43.9466 49.1733 46.5066 49.1733C55.9999 49.1733 63.6799 41.4933 63.6799 32C63.6799 22.5067 55.8933 14.8267 46.5066 14.8267Z" fill="#0F6860"/>
<path d="M103.747 39.64C103.747 45.2933 97.9867 49.0267 91.6933 49.0267C85.4 49.0267 81.0267 45.8267 79 42.4133L84.3333 39C85.9333 41.7733 88.6 43.2667 91.6933 43.3733C94.36 43.48 96.3867 42.52 97.0267 40.7067C97.56 39 96.7067 37.2933 94.68 36.44C92.8667 35.6933 87.96 33.3467 86.8933 32.92C83.16 31.1067 80.6 28.8667 80.6 24.4933C80.4933 18.84 85.6133 15 91.9067 15C97.24 15 101.08 17.4533 103.32 20.9733L97.9867 23.96C96.92 22.1467 94.7867 20.3333 92.0133 20.3333C88.8133 20.3333 87.1067 21.8267 86.68 23.5333C86.36 25.4533 87.7467 26.84 89.88 27.6933C91.2667 28.3333 95.96 30.5733 97.6667 31.32C100.973 32.92 103.747 35.3733 103.747 39.64Z" fill="white"/>
<path d="M124.547 46.8934C122.84 47.96 120.493 48.7067 118.36 48.7067C113.773 48.7067 111.32 45.2934 111.32 41.0267V29.6134H106.093V25.0267H111.427V17.88H117.4V25.0267H124.333V29.6134H117.507V40.7067C117.507 42.7334 118.467 43.48 120.28 43.48C121.133 43.5867 122.2 43.16 122.733 42.84L124.547 46.8934Z" fill="white"/>
<path d="M146.627 38.7867H132.12C132.973 41.4533 135.533 43.3733 138.093 43.3733C140.547 43.3733 142.467 42.3067 143.427 41.24C143.64 40.92 143.96 40.6 143.96 40.6L148.227 44.2267C146.413 46.4667 142.787 48.7067 138.2 48.7067C131.587 48.7067 126.147 43.2667 126.147 36.5467C126.147 29.8267 131.693 24.3867 138.2 24.3867C141.933 24.3867 145.773 26.2 147.907 29.2933C149.4 31.32 150.04 33.4533 150.04 35.9067C149.933 37.4 148.867 38.7867 146.627 38.7867ZM132.013 34.52H143.853C143.32 32.4933 141.507 30.04 138.093 30.04C135.213 29.9333 132.867 31.96 132.013 34.52Z" fill="white"/>
<path d="M176.6 35.2667V48.1733H170.733V35.3733C170.733 32.3867 168.28 30.04 165.293 30.04C162.307 30.04 159.853 32.28 159.853 35.6933V48.0667H153.987V25.0267H159.427V27.6933C161.24 25.4533 163.907 24.4933 166.573 24.4933C172.653 24.4933 176.6 29.1867 176.6 35.2667Z" fill="white"/>
<path d="M203.8 44.2267C201.56 47.1067 197.827 48.92 193.88 48.92C187.053 48.92 181.293 43.3733 181.293 36.6533C181.293 29.9333 187.053 24.3867 193.88 24.3867C197.827 24.3867 201.453 26.2 203.693 28.9733L198.893 32.28C197.72 30.8933 195.8 30.1467 193.88 30.1467C190.253 30.1467 187.373 33.0267 187.373 36.76C187.373 40.3867 190.253 43.3733 193.88 43.3733C195.907 43.3733 197.933 42.52 199.107 41.0267L203.8 44.2267Z" fill="white"/>
<path d="M206.893 18.9467C206.893 17.0267 208.6 15.4267 210.733 15.4267C212.76 15.4267 214.467 17.0267 214.467 18.9467C214.467 20.8667 212.76 22.4667 210.733 22.4667C208.6 22.4667 206.893 20.8667 206.893 18.9467ZM207.64 25.0267H213.507V48.1733H207.64V25.0267Z" fill="white"/>
<path d="M228.44 43.48L230.04 47.4267C228.44 48.3867 226.627 48.8133 225.56 48.8133C221.827 48.8133 219.693 46.1467 219.693 42.3067V15.4267H225.667V41.88C225.667 42.52 225.987 42.9467 226.307 43.2667C226.733 43.48 227.267 43.6933 228.44 43.48Z" fill="white"/>
<path d="M255.64 25.0267V48.1733H250.2V45.72C248.493 47.64 245.827 48.92 242.947 48.92C236.12 48.92 230.893 43.3733 230.893 36.6533C230.893 29.8267 236.12 24.3867 242.947 24.3867C245.827 24.3867 248.6 25.6667 250.2 27.48V25.0267H255.64ZM249.667 39.2133V33.9867C248.6 31.64 246.253 29.9333 243.587 29.9333C242.2 29.9333 240.813 30.36 239.747 31.1067C238.04 32.28 236.867 34.3067 236.867 36.5467C236.867 38.7867 238.04 40.8133 239.747 41.9867C240.813 42.7333 242.093 43.16 243.587 43.16C246.253 43.2667 248.6 41.56 249.667 39.2133Z" fill="white"/>
</svg>
