<svg width="15" height="15" viewBox="0 0 15 15" fill="none" xmlns="http://www.w3.org/2000/svg">
<g clip-path="url(#clip0_508_7714)">
<rect width="15" height="15" fill="#D9F2D9"/>
<path fill-rule="evenodd" clip-rule="evenodd" d="M3.375 10.5938C3.375 10.5026 3.41122 10.4151 3.47568 10.3507C3.54015 10.2862 3.62758 10.25 3.71875 10.25H8.53125C8.62242 10.25 8.70985 10.2862 8.77432 10.3507C8.83878 10.4151 8.875 10.5026 8.875 10.5938C8.875 10.6849 8.83878 10.7724 8.77432 10.8368C8.70985 10.9013 8.62242 10.9375 8.53125 10.9375H3.71875C3.62758 10.9375 3.54015 10.9013 3.47568 10.8368C3.41122 10.7724 3.375 10.6849 3.375 10.5938ZM3.375 8.53125C3.375 8.44008 3.41122 8.35265 3.47568 8.28818C3.54015 8.22372 3.62758 8.1875 3.71875 8.1875H11.2812C11.3724 8.1875 11.4599 8.22372 11.5243 8.28818C11.5888 8.35265 11.625 8.44008 11.625 8.53125C11.625 8.62242 11.5888 8.70985 11.5243 8.77432C11.4599 8.83878 11.3724 8.875 11.2812 8.875H3.71875C3.62758 8.875 3.54015 8.83878 3.47568 8.77432C3.41122 8.70985 3.375 8.62242 3.375 8.53125ZM3.375 6.46875C3.375 6.37758 3.41122 6.29015 3.47568 6.22568C3.54015 6.16122 3.62758 6.125 3.71875 6.125H11.2812C11.3724 6.125 11.4599 6.16122 11.5243 6.22568C11.5888 6.29015 11.625 6.37758 11.625 6.46875C11.625 6.55992 11.5888 6.64735 11.5243 6.71182C11.4599 6.77628 11.3724 6.8125 11.2812 6.8125H3.71875C3.62758 6.8125 3.54015 6.77628 3.47568 6.71182C3.41122 6.64735 3.375 6.55992 3.375 6.46875ZM6.125 4.40625C6.125 4.31508 6.16122 4.22765 6.22568 4.16318C6.29015 4.09872 6.37758 4.0625 6.46875 4.0625H11.2812C11.3724 4.0625 11.4599 4.09872 11.5243 4.16318C11.5888 4.22765 11.625 4.31508 11.625 4.40625C11.625 4.49742 11.5888 4.58485 11.5243 4.64932C11.4599 4.71378 11.3724 4.75 11.2812 4.75H6.46875C6.37758 4.75 6.29015 4.71378 6.22568 4.64932C6.16122 4.58485 6.125 4.49742 6.125 4.40625Z" fill="#0B4C46"/>
</g>
<defs>
<clipPath id="clip0_508_7714">
<path d="M0 5C0 2.23858 2.23858 0 5 0H10C12.7614 0 15 2.23858 15 5V10C15 12.7614 12.7614 15 10 15H0V5Z" fill="white"/>
</clipPath>
</defs>
</svg>
