<svg version="1.1" xmlns="http://www.w3.org/2000/svg" xmlns:xlink="http://www.w3.org/1999/xlink"
	viewBox="-50 0 305 305" fill="white">
	<path
		d="M105.3,0C47.7-0.5,0.5,45.8,0,103.4s45.8,104.8,103.4,105.3h36.2v-39.1h-34.3c-36,0.4-65.6-28.4-66-64.5
			s28.4-65.6,64.5-66l0,0c0.5,0,1,0,1.5,0c36,0,65.2,29.2,65.4,65.2l0,0v96.1l0,0c0,35.7-29.1,64.8-64.7,65.2
			c-17.1-0.1-33.4-7-45.4-19.1l-27.7,27.7c19.2,19.3,45.2,30.3,72.4,30.5h1.4c56.9-0.8,102.6-47,102.9-103.9v-99.1
			C208.2,45.2,161.9,0.1,105.3,0z" />
</svg>
