<svg xmlns="http://www.w3.org/2000/svg" viewBox="0 0 26 24" fill="#222222" stroke="black">
    <path d="M23.6365 0H18.9092V4.79438H23.6365V0Z" />
    <path d="M26.0002 0H21.2729V4.79438H26.0002V0Z" />
    <path d="M4.72727 0H0V4.79438H4.72727V0Z" />
    <path d="M4.72727 4.79443H0V9.58882H4.72727V4.79443Z" />
    <path d="M4.72727 9.58875H0V14.3831H4.72727V9.58875Z" />
    <path d="M4.72727 14.3832H0V19.1776H4.72727V14.3832Z" />
    <path d="M4.72727 19.1775H0V23.9719H4.72727V19.1775Z" />
    <path d="M7.09104 0H2.36377V4.79438H7.09104V0Z" />
    <path d="M26.0002 4.79443H21.2729V9.58882H26.0002V4.79443Z" />
    <path d="M7.09104 4.79443H2.36377V9.58882H7.09104V4.79443Z" />
    <path d="M18.9089 4.79443H14.1816V9.58882H18.9089V4.79443Z" />
    <path d="M21.2727 4.79443H16.5454V9.58882H21.2727V4.79443Z" />
    <path d="M11.8181 4.79443H7.09082V9.58882H11.8181V4.79443Z" />
    <path d="M16.5456 9.58875H11.8184V14.3831H16.5456V9.58875Z" />
    <path d="M21.2727 9.58875H16.5454V14.3831H21.2727V9.58875Z" />
    <path d="M11.8181 9.58875H7.09082V14.3831H11.8181V9.58875Z" />
    <path d="M14.1819 14.3832H9.45459V19.1776H14.1819V14.3832Z" />
    <path d="M16.5456 14.3832H11.8184V19.1776H16.5456V14.3832Z" />
    <path d="M26.0002 9.58875H21.2729V14.3831H26.0002V9.58875Z" />
    <path d="M7.09104 9.58875H2.36377V14.3831H7.09104V9.58875Z" />
    <path d="M23.6365 14.3832H18.9092V19.1776H23.6365V14.3832Z" />
    <path d="M26.0002 14.3832H21.2729V19.1776H26.0002V14.3832Z" />
    <path d="M23.6365 19.1775H18.9092V23.9719H23.6365V19.1775Z" />
    <path d="M7.09104 14.3832H2.36377V19.1776H7.09104V14.3832Z" />
    <path d="M26.0002 19.1775H21.2729V23.9719H26.0002V19.1775Z" />
    <path d="M7.09104 19.1775H2.36377V23.9719H7.09104V19.1775Z" />
</svg>