<svg xmlns="http://www.w3.org/2000/svg" viewBox="0 0 24 32" fill="white">
    <path id="Vector"
        d="M5.22461 0.0089143C4.92854 0.0567405 4.57326 0.211605 4.32275 0.402911C3.56437 0.9791 2.97679 2.20209 2.72855 3.72568C2.63518 4.30187 2.57141 5.10126 2.57141 5.71163C2.57141 6.4313 2.65567 7.35136 2.77638 7.98676C2.80371 8.12798 2.81737 8.25325 2.80599 8.26235C2.79688 8.27146 2.68528 8.36255 2.56002 8.46275C2.13187 8.80436 1.64221 9.33046 1.30515 9.81102C0.658362 10.7288 0.239313 11.7719 0.0639503 12.9015C-0.00437267 13.3479 -0.0225922 14.2497 0.0320663 14.6961C0.15277 15.7255 0.462502 16.5955 0.993143 17.3926L1.16623 17.65L1.11613 17.7342C0.760845 18.3309 0.457947 19.1941 0.316746 20.023C0.205152 20.6789 0.191487 20.8543 0.191487 21.7334C0.191487 22.6193 0.202874 22.7947 0.307636 23.4073C0.432895 24.1407 0.687968 24.9172 0.972646 25.4342C1.06602 25.6028 1.29377 25.9535 1.3211 25.9717C1.33021 25.9762 1.30288 26.0605 1.25961 26.1584C0.931653 26.8758 0.651529 27.8301 0.535378 28.634C0.453392 29.1852 0.442005 29.3628 0.442005 29.9436C0.442005 30.6837 0.482998 31.0436 0.637865 31.6334L0.660639 31.7199H1.63538H2.6124L2.54863 31.5992C2.15464 30.8705 2.1182 29.5177 2.45754 28.1672C2.6124 27.5431 2.78777 27.0854 3.11572 26.4545L3.31158 26.0719V25.8373C3.31158 25.6187 3.30702 25.5937 3.23642 25.4502C3.18176 25.3408 3.10888 25.2475 2.97907 25.1199C2.75816 24.9059 2.59874 24.6804 2.4712 24.4025C1.91095 23.1864 1.80163 21.3804 2.19563 19.8408C2.35961 19.1986 2.63062 18.627 2.9153 18.315C3.10888 18.1009 3.20909 17.8618 3.20909 17.6135C3.20909 17.3562 3.11799 17.1444 2.91302 16.9235C2.32544 16.2949 1.96333 15.5296 1.83352 14.6392C1.64905 13.3706 1.98383 11.9882 2.74449 10.8928C3.48922 9.81782 4.53455 9.12777 5.7029 8.94331C5.96478 8.90003 6.45444 8.90686 6.72773 8.95698C7.02609 9.00936 7.21282 8.99339 7.40415 8.90229C7.64099 8.79073 7.75943 8.65178 7.89834 8.33294C8.02131 8.04829 8.11698 7.8934 8.37433 7.5723C8.68406 7.18741 8.98239 6.92549 9.46064 6.60892C10.0073 6.25137 10.629 5.99175 11.2485 5.86648C11.4739 5.82093 11.5787 5.81409 12 5.81409C12.4213 5.81409 12.5261 5.82093 12.7515 5.86648C13.6602 6.05097 14.5621 6.52012 15.2818 7.1851C15.4366 7.32858 15.8079 7.78863 15.9263 7.97996C15.9719 8.05509 16.0516 8.21454 16.1017 8.33294C16.2406 8.65178 16.359 8.79073 16.5958 8.90229C16.7803 8.99112 16.9739 9.00936 17.2609 8.96151C17.7141 8.88409 18.0625 8.89092 18.5066 8.98202C20.0189 9.28718 21.3352 10.533 21.9182 12.2023C22.4261 13.6667 22.2826 15.1994 21.5265 16.37C21.399 16.5682 21.2714 16.7276 21.087 16.9235C20.6884 17.3493 20.6884 17.8777 21.0847 18.315C21.736 19.0278 22.1437 20.7814 22.0207 22.3278C21.9387 23.3481 21.6768 24.2614 21.317 24.7783C21.2532 24.8694 21.1212 25.0243 21.0209 25.1199C20.8911 25.2475 20.8183 25.3408 20.7636 25.4502C20.693 25.5937 20.6884 25.6187 20.6884 25.8373V26.0719L20.8843 26.4545C21.2122 27.0854 21.3876 27.5431 21.5425 28.1672C21.8773 29.4995 21.8477 30.8249 21.465 31.5788C21.4332 31.6425 21.4058 31.7017 21.4058 31.7086C21.4058 31.7154 21.8408 31.7199 22.3737 31.7199H23.3394L23.3644 31.622C23.3781 31.5697 23.4009 31.4899 23.4122 31.4444C23.4373 31.3442 23.4874 31.0481 23.5284 30.7634C23.5671 30.4765 23.5671 29.4197 23.5284 29.1009C23.3827 27.944 23.1389 27.0262 22.7404 26.1584C22.6971 26.0605 22.6698 25.9762 22.6789 25.9717C22.6903 25.9649 22.754 25.8738 22.8224 25.7713C23.3189 25.0197 23.624 24.0746 23.7789 22.8266C23.8199 22.4827 23.8199 21.0046 23.7789 20.6744C23.6696 19.8226 23.5375 19.2441 23.3189 18.6588C23.2278 18.4152 22.9864 17.9005 22.8839 17.7342L22.8338 17.65L23.0069 17.3926C23.5375 16.5955 23.8472 15.7255 23.9679 14.6961C24.0226 14.2497 24.0044 13.3479 23.9361 12.9015C23.7584 11.7696 23.3416 10.7311 22.6949 9.81102C22.3578 9.33046 21.8681 8.80436 21.44 8.46275C21.3147 8.36255 21.2031 8.27146 21.194 8.26235C21.1826 8.25325 21.1963 8.12798 21.2236 7.98676C21.4992 6.5497 21.4901 4.75739 21.2008 3.35675C20.9503 2.13604 20.4948 1.16585 19.9073 0.605603C19.4381 0.159225 18.9599 -0.0320802 18.3859 0.00435879C17.0696 0.0817915 16.0083 1.59629 15.5892 3.98303C15.5209 4.36793 15.4617 4.81887 15.4617 4.94185C15.4617 4.98966 15.4526 5.02837 15.4412 5.02837C15.4298 5.02837 15.341 4.98282 15.2453 4.92591C14.2296 4.32465 13.1 4.00354 12 4.00354C10.9 4.00354 9.77038 4.32465 8.75465 4.92591C8.65898 4.98282 8.57019 5.02837 8.55879 5.02837C8.54742 5.02837 8.53828 4.98966 8.53828 4.94185C8.53828 4.8143 8.47679 4.34972 8.41077 3.98303C8.03041 1.83997 7.15817 0.42113 5.99896 0.0635715C5.83954 0.0157454 5.38633 -0.0161375 5.22461 0.0089143ZM5.6118 1.86275C5.93974 2.12238 6.30412 2.86482 6.51366 3.69609C6.55237 3.84639 6.59335 4.01948 6.60476 4.08323C6.61386 4.14476 6.6389 4.28367 6.65941 4.3907C6.74823 4.87352 6.78921 5.39506 6.79378 6.03047L6.79605 6.65677L6.6389 6.88904L6.48178 7.12362H6.1151C5.68696 7.12362 5.26105 7.1783 4.85339 7.2876C4.70764 7.32405 4.56643 7.3605 4.53912 7.36733C4.49584 7.37643 4.489 7.36276 4.46396 7.176C4.32959 6.16254 4.33642 5.03978 4.48447 4.10601C4.64842 3.06524 5.03105 2.12238 5.40453 1.84453C5.49336 1.77848 5.5093 1.78076 5.6118 1.86275ZM18.5977 1.8468C18.8232 2.01306 19.0715 2.45488 19.2559 3.01968C19.6271 4.14929 19.7319 5.70022 19.536 7.176C19.511 7.36276 19.5042 7.37643 19.4609 7.36733C19.4336 7.3605 19.2924 7.32405 19.1466 7.2876C18.7389 7.1783 18.313 7.12362 17.8849 7.12362H17.5182L17.3611 6.88904L17.2039 6.65677L17.2062 6.03047C17.2108 5.14681 17.2928 4.45676 17.4886 3.68925C17.6959 2.86482 18.0625 2.12238 18.3882 1.86275C18.4907 1.78076 18.5066 1.77848 18.5977 1.8468Z" />
    <path id="Vector_2"
        d="M11.647 13.3091C11.1528 13.3569 11.0185 13.3751 10.7816 13.423C10.3967 13.5027 9.88198 13.6803 9.52443 13.8557C8.28096 14.4637 7.42466 15.4772 7.16274 16.6501C7.11035 16.8824 7.10352 16.9598 7.10352 17.3515C7.10352 17.7387 7.11035 17.823 7.16047 18.0439C7.50892 19.5766 8.9209 20.7085 10.7474 20.9157C11.1437 20.959 12.8563 20.959 13.2526 20.9157C14.7193 20.7495 15.981 19.9546 16.5481 18.8387C16.6984 18.5404 16.7712 18.3468 16.8396 18.0439C16.8897 17.823 16.8965 17.7387 16.8965 17.3515C16.8965 16.9598 16.8897 16.8824 16.8373 16.6501C16.4569 14.9466 14.8035 13.6052 12.7766 13.3501C12.5124 13.3182 11.8201 13.2909 11.647 13.3091ZM12.4988 14.548C13.1752 14.6209 13.8561 14.8623 14.4027 15.2267C14.6965 15.4225 15.111 15.8325 15.2886 16.1012C15.5073 16.4337 15.6325 16.773 15.6895 17.1853C15.7145 17.3743 15.7009 17.5178 15.6325 17.823C15.5255 18.2784 15.193 18.7544 14.7443 19.0869C14.5348 19.2395 14.0998 19.4605 13.8334 19.547C13.3278 19.7087 12.9975 19.7383 11.8178 19.7292C11.0481 19.7223 10.9114 19.7155 10.6905 19.6745C9.93667 19.5333 9.33997 19.2327 8.90727 18.7749C8.55652 18.406 8.3971 18.0689 8.31057 17.5246C8.27186 17.2718 8.34472 16.8528 8.49277 16.4998C8.67269 16.0693 9.13727 15.5342 9.59732 15.2267C10.1302 14.8714 10.8317 14.6186 11.4762 14.5503C11.7244 14.523 12.2505 14.523 12.4988 14.548Z" />
    <path id="Vector_3"
        d="M11.1301 16.2106C10.957 16.3039 10.8363 16.5408 10.8727 16.7161C10.9137 16.9052 11.08 17.0965 11.3396 17.2537C11.4785 17.3379 11.4876 17.3493 11.4945 17.4335C11.499 17.4837 11.4808 17.6271 11.4557 17.7547C11.4284 17.8799 11.4079 18.012 11.4079 18.0485C11.4102 18.1464 11.5013 18.3058 11.5969 18.3833C11.6812 18.4516 11.6972 18.4538 11.934 18.4607C12.1504 18.4675 12.1959 18.4629 12.2824 18.422C12.5057 18.3126 12.5626 18.1122 12.4806 17.7273C12.4123 17.4062 12.4259 17.3561 12.5967 17.2582C12.7766 17.1534 12.968 16.969 13.0249 16.8437C13.1342 16.6046 13.034 16.3336 12.7926 16.2083C12.7334 16.1787 12.6605 16.165 12.5535 16.165C12.3872 16.165 12.2802 16.2038 12.0843 16.329L11.9727 16.3996L11.9021 16.3563C11.6129 16.1855 11.5605 16.165 11.3851 16.1673C11.2599 16.1673 11.1916 16.1787 11.1301 16.2106Z" />
    <path id="Vector_4"
        d="M5.60026 13.5665C5.19716 13.6941 4.89653 13.9901 4.74168 14.4115C4.66652 14.6119 4.63008 14.9285 4.66195 15.0993C4.73711 15.5069 5.07188 15.8781 5.45224 15.9806C5.9305 16.1059 6.28805 16.0239 6.60461 15.7096C6.78907 15.5297 6.88931 15.3726 6.98951 15.1175C7.06236 14.9376 7.06693 14.9057 7.06693 14.6506L7.0692 14.3773L6.97357 14.1815C6.82095 13.8717 6.5454 13.6417 6.22656 13.5574C6.04663 13.5119 5.75741 13.5142 5.60026 13.5665Z" />
    <path id="Vector_5"
        d="M17.7642 13.5597C17.4522 13.6439 17.1743 13.8762 17.0263 14.1814L16.9307 14.3773L16.9329 14.6506C16.9329 14.9056 16.9375 14.9375 17.0104 15.1174C17.1106 15.3725 17.2108 15.5296 17.3952 15.7096C17.7118 16.0238 18.0694 16.1058 18.5477 15.9806C18.8232 15.9077 19.0988 15.6754 19.2309 15.4044C19.3447 15.1744 19.3721 15.0081 19.3356 14.7462C19.2514 14.1472 18.9006 13.7123 18.3791 13.5597C18.2265 13.5141 17.9305 13.5141 17.7642 13.5597Z" />
</svg>