<svg xmlns="http://www.w3.org/2000/svg" viewBox="0 0 24 24" fill="dark">
    <path d="M22.7418 9.82271C23.2897 8.18842 23.101 6.39813 22.2248 4.9116C20.907 2.63155 18.2579 1.45853 15.6707 2.01054C14.5197 0.72201 12.8661 -0.0107551 11.1325 -0.000254891C8.48789 -0.00625502 6.14143 1.68578 5.32782 4.18633C3.62892 4.53209 2.16247 5.58886 1.30434 7.08665C-0.0232341 9.3607 0.279414 12.2273 2.05304 14.1773C1.5051 15.8116 1.69378 17.6019 2.57003 19.0884C3.88779 21.3685 6.53691 22.5415 9.12413 21.9895C10.2743 23.278 11.9287 24.0108 13.6623 23.9995C16.3084 24.0063 18.6557 22.3127 19.4693 19.8099C21.1682 19.4642 22.6346 18.4074 23.4927 16.9096C24.8188 14.6356 24.5154 11.7712 22.7425 9.82121L22.7418 9.82271ZM13.6639 22.4312C12.605 22.4327 11.5793 22.0645 10.7664 21.3902C10.8034 21.3707 10.8676 21.3355 10.9091 21.31L15.7182 18.5499C15.9643 18.4111 16.1152 18.1509 16.1137 17.8696V11.1322L18.1462 12.2985C18.1681 12.309 18.1824 12.33 18.1855 12.354V17.9334C18.1824 20.4144 16.1605 22.426 13.6639 22.4312ZM3.93987 18.3039C3.40929 17.3934 3.21834 16.3261 3.40024 15.2903C3.43571 15.3113 3.49835 15.3496 3.54288 15.3751L8.35204 18.1351C8.59582 18.2769 8.89771 18.2769 9.14225 18.1351L15.0133 14.7661V17.0986C15.0148 17.1226 15.0035 17.1459 14.9846 17.1609L10.1234 19.9502C7.95807 21.1892 5.19273 20.4527 3.94062 18.3039H3.93987ZM2.67418 7.87191C3.2025 6.95989 4.03648 6.26238 5.0297 5.90012C5.0297 5.94137 5.02744 6.01412 5.02744 6.06513V11.586C5.02593 11.8665 5.17688 12.1268 5.42217 12.2655L11.2932 15.6338L9.26074 16.8001C9.24036 16.8136 9.2147 16.8159 9.19206 16.8061L4.33007 14.0145C2.16927 12.771 1.42812 10.0237 2.67343 7.87266L2.67418 7.87191ZM19.3734 11.7337L13.5023 8.36467L15.5348 7.19915C15.5552 7.18565 15.5809 7.1834 15.6035 7.19315L20.4655 9.98246C22.6301 11.2252 23.372 13.977 22.1214 16.1281C21.5923 17.0386 20.7591 17.7361 19.7666 18.0991V12.4133C19.7689 12.1328 19.6187 11.8732 19.3742 11.7337H19.3734ZM21.3961 8.70818C21.3606 8.68643 21.298 8.64893 21.2534 8.62343L16.4443 5.86337C16.2005 5.72162 15.8986 5.72162 15.6541 5.86337L9.78301 9.23244V6.89989C9.7815 6.87589 9.79282 6.85264 9.81169 6.83764L14.6729 4.05058C16.8383 2.80931 19.6066 3.54807 20.8549 5.70062C21.3825 6.60964 21.5735 7.67391 21.3946 8.70818H21.3961ZM8.67808 12.8655L6.64483 11.6992C6.62295 11.6887 6.60861 11.6677 6.60559 11.6437V6.06438C6.6071 3.58032 8.63507 1.56728 11.1347 1.56878C12.1921 1.56878 13.2155 1.93779 14.0284 2.6098C13.9914 2.6293 13.928 2.66455 13.8857 2.69005L9.07658 5.45011C8.83054 5.58886 8.67959 5.84837 8.6811 6.12963L8.67808 12.864V12.8655ZM9.78226 10.5L12.3974 8.99919L15.0126 10.4992V13.5L12.3974 15.0001L9.78226 13.5V10.5Z" />
</svg>