<svg width="25" height="25" viewBox="0 0 25 25" fill="none" xmlns="http://www.w3.org/2000/svg">
    <path fill-rule="evenodd" clip-rule="evenodd"
        d="M1.70508 2.95581C1.70508 2.26545 2.26472 1.70581 2.95508 1.70581H21.5433C22.2337 1.70581 22.7933 2.26545 22.7933 2.95581V9.30929C21.7534 7.41578 19.7403 6.13234 17.4275 6.13234C16.5017 6.13234 15.624 6.33798 14.8374 6.70608C14.0509 6.33798 13.1731 6.13234 12.2474 6.13234C8.86867 6.13234 6.12971 8.8713 6.12971 12.25C6.12971 15.6287 8.86867 18.3676 12.2474 18.3676C13.1731 18.3676 14.0509 18.162 14.8374 17.7939C15.624 18.162 16.5017 18.3676 17.4275 18.3676C19.7403 18.3676 21.7534 17.0842 22.7933 15.1907V21.544C22.7933 22.2344 22.2337 22.794 21.5433 22.794H2.95508C2.26472 22.794 1.70508 22.2344 1.70508 21.544V2.95581ZM2.95508 0.205811C1.4363 0.205811 0.205078 1.43702 0.205078 2.95581V21.544C0.205078 23.0628 1.43629 24.294 2.95508 24.294H21.5433C23.0621 24.294 24.2933 23.0628 24.2933 21.544V2.95581C24.2933 1.43703 23.0621 0.205811 21.5433 0.205811H2.95508ZM12.2474 16.8676C12.6038 16.8676 12.9508 16.8273 13.284 16.7508C12.0703 15.6329 11.3099 14.0302 11.3099 12.25C11.3099 10.4697 12.0703 8.86711 13.284 7.74916C12.9508 7.67272 12.6038 7.63234 12.2474 7.63234C9.6971 7.63234 7.62971 9.69973 7.62971 12.25C7.62971 14.8002 9.6971 16.8676 12.2474 16.8676ZM17.4275 7.63234C17.0711 7.63234 16.7241 7.67272 16.3909 7.74916C17.6046 8.86711 18.365 10.4697 18.365 12.25C18.365 14.0302 17.6046 15.6329 16.3909 16.7508C16.7241 16.8273 17.0711 16.8676 17.4275 16.8676C19.9778 16.8676 22.0452 14.8002 22.0452 12.25C22.0452 9.69973 19.9778 7.63234 17.4275 7.63234ZM16.865 12.25C16.865 10.6597 16.0611 9.25712 14.8374 8.42658C13.6138 9.25712 12.8099 10.6597 12.8099 12.25C12.8099 13.8403 13.6138 15.2428 14.8374 16.0734C16.0611 15.2428 16.865 13.8403 16.865 12.25Z"
        fill="black" />
</svg>