<?xml version="1.0" encoding="UTF-8" standalone="no"?><!DOCTYPE svg PUBLIC "-//W3C//DTD SVG 1.1//EN" "http://www.w3.org/Graphics/SVG/1.1/DTD/svg11.dtd"><svg width="100%" height="100%" viewBox="0 0 15842 15875" version="1.1" xmlns="http://www.w3.org/2000/svg" xmlns:xlink="http://www.w3.org/1999/xlink" xml:space="preserve" xmlns:serif="http://www.serif.com/" style="fill-rule:evenodd;clip-rule:evenodd;stroke-linecap:round;stroke-linejoin:round;stroke-miterlimit:2;"><rect id="references" x="0" y="0" width="15839.9" height="15872.3" style="fill:none;"/><clipPath id="_clip1"><rect x="0" y="0" width="15839.9" height="15872.3"/></clipPath><g clip-path="url(#_clip1)"><g><path d="M12324.1,3573.92c1591.6,1392.14 3331.74,2835.17 3501.53,4443.74c174.022,1612.8 -1230.85,3391.17 -2822.45,4388.56c-1591.58,997.41 -3369.93,1213.86 -5509.05,1566.14c-2134.87,356.498 -4626.23,853.084 -6069.29,-144.306c-1443.04,-997.409 -1837.74,-3488.78 -937.977,-5080.37c899.767,-1591.6 3098.33,-2279.18 4541.36,-3675.53c1443.06,-1392.12 2130.61,-3488.78 3195.93,-3862.28c1065.3,-377.74 2508.33,971.93 4099.95,2364.05Zm2283.59,4539.09c0,-788.511 -639.226,-1427.76 -1427.74,-1427.76c-788.551,0 -1427.78,639.246 -1427.78,1427.76c-0,788.531 639.226,1427.78 1427.78,1427.78c788.51,0 1427.74,-639.245 1427.74,-1427.78Z" style="fill:#e6eefe;fill-opacity:0.51;fill-rule:nonzero;"/><circle cx="8891.28" cy="5527.83" r="175.588" style="fill:#90b3f8;"/><path d="M8030.43,4904.74c332.662,-112.6 713.85,124.236 850.704,528.552c136.854,404.316 -22.118,823.987 -354.78,936.587c-332.663,112.601 -713.851,-124.235 -850.705,-528.551c-136.854,-404.316 22.118,-823.987 354.781,-936.588Z" style="fill:#90b3f8;"/><path d="M8551.2,6223.83l204.893,342.634l135.182,411.552l536.05,-481.622c-0,0 -397.244,-312.331 -569.24,-656.061c-171.996,-343.731 -306.885,383.497 -306.885,383.497Z" style="fill:#90b3f8;"/><rect x="9716.05" y="637.025" width="4833.37" height="3659.58" style="fill:#cdddfc;"/><rect x="12325.4" y="1325.12" width="1415.45" height="2537.49" style="fill:#ecf2fa;"/><path d="M11859.3,1883.33c-0,322.263 -261.223,583.507 -583.487,583.507c-322.283,0 -583.527,-261.244 -583.527,-583.507c0,-322.263 261.244,-583.506 583.527,-583.506c322.264,-0 583.487,261.243 583.487,583.506Z" style="fill:#90b3f8;fill-rule:nonzero;"/><rect x="12432.9" y="5461.94" width="3059.33" height="3059.33" style="fill:none;stroke:#cdddfc;stroke-width:60.24px;"/><path d="M7416.5,15837.1l7591.5,-0" style="fill:none;stroke:#1c4fb5;stroke-width:74.09px;"/><path d="M37.374,15837.1l5593.77,-0" style="fill:none;stroke:#1c4fb5;stroke-width:74.09px;"/><path d="M8767.19,5516.59l-31.202,149.948l-208.819,64.874c-0,0 -103.365,-322.324 -117.581,-395.31c-101.357,74.995 -679.142,237.17 -778.993,251.587c-13.734,-77.705 -13.815,-751.004 547.546,-751.004c494.558,-0 716.327,495.221 729.339,553.249c-29.014,16.987 -140.29,58.227 -140.29,126.656Z" style="fill:#2568ef;fill-rule:nonzero;"/><path d="M8905.94,6813.19c-125.573,-0 -1036.26,918.982 -1073.71,1111.38c-16.324,83.989 -293.39,1517.69 -293.39,1517.69l1519.44,-424.383l89.069,-1933.34l-216.469,-271.343l-24.937,-0Z" style="fill:#6f6;fill-rule:nonzero;"/><path d="M7029.08,9481.61c-2.671,-105.875 869.688,-2859.45 967.974,-2952.95c101.578,-96.639 204.963,-98.546 248.353,-96.478c43.33,2.068 251.747,100.474 295.78,204.341c-75.155,177.817 -255.943,276.624 -255.943,276.624l-351.94,2174.93l-904.224,393.542Z" style="fill:#90b3f8;fill-rule:nonzero;"/><path d="M8091.18,11132.8l1260.62,1560.5l-611.457,614.549l-1850.47,-1617.8l437.776,-602.321l763.533,45.077Z" style="fill:#1c4fb5;fill-rule:nonzero;"/><path d="M7759.93,13925.8c-170.368,-154.305 -2162.64,-2636.72 -2162.64,-2944c0,-684.765 777.026,-927.617 989.158,-980.926c291.964,-26.463 1587.94,-134.948 1791.8,-126.555c146.997,159.244 1853.67,526.584 2100.97,494.94c0,123.825 -196.711,990.06 -1592.62,990.06c-146.293,0 -1246.67,-43.912 -1267.13,-43.912c-0,257.51 705.245,1934.38 772.568,2048.53" style="fill:#2568ef;fill-rule:nonzero;"/><path d="M9565.89,6364.18c1129.71,-0 1374.31,2038.17 1374.31,2616.62c0,737.611 -299.233,1326.92 -442.574,1382.1c-403.763,155.228 -1885.89,-353.305 -1979.94,-594.009c-458.096,-1172.46 296.08,-3404.7 1048.21,-3404.7Z" style="fill:#6f6;fill-rule:nonzero;"/><path d="M8601.3,4968.98c89.109,79.251 167.877,179.564 228.455,297.327c9.858,19.154 19.055,38.45 27.608,57.825" style="fill:none;stroke:#1c4fb5;stroke-width:74.09px;"/><path d="M7666.72,5864.62c-210.907,-410.027 -121.516,-876.314 199.643,-1041.52c104.951,-53.99 221.628,-69.13 338.567,-50.798" style="fill:none;stroke:#1c4fb5;stroke-width:74.09px;"/><path d="M8782.19,6189.63c-42.728,47.948 -93.587,88.086 -152.137,118.204c-219.219,112.762 -489.719,56.119 -706.449,-121.557" style="fill:none;stroke:#1c4fb5;stroke-width:74.09px;"/><path d="M8695.39,5444.77c28.291,-71.12 97.763,-121.416 178.982,-121.416c106.316,0 192.494,86.197 192.494,192.514c0,106.317 -86.178,192.515 -192.494,192.515c-30.058,-0 -58.509,-6.887 -83.849,-19.155" style="fill:none;stroke:#1c4fb5;stroke-width:74.09px;"/><path d="M8858.09,6852.37c-28.432,-101.397 -130.19,-413.862 -257.208,-530.68" style="fill:none;stroke:#1c4fb5;stroke-width:74.09px;"/><path d="M8959.47,5756.67c39.134,131.616 393.081,606.558 480.263,672.376c-5.221,57.244 -117.903,167.797 -244.559,261.947" style="fill:none;stroke:#1c4fb5;stroke-width:74.09px;"/><path d="M8507.11,5643.53l157.096,-48.792l31.162,-149.967" style="fill:none;stroke:#1c4fb5;stroke-width:74.09px;"/><path d="M8084.24,5369.34c116.899,-39.013 216.69,-77.805 253.535,-105.052c10.3,53.068 67.825,238.073 98.426,335.013" style="fill:none;stroke:#1c4fb5;stroke-width:74.09px;"/><path d="M7558.76,5515.87c38.531,-5.562 148.06,-33.069 273.974,-69.11" style="fill:none;stroke:#1c4fb5;stroke-width:74.09px;"/><path d="M8709.41,9884.53c-158.461,-79.11 -268.733,-156.032 -292.246,-216.208c-141.333,-361.698 -167.275,-824.251 -113.504,-1291" style="fill:none;stroke:#1c4fb5;stroke-width:74.09px;"/><path d="M10683.3,7717.6c117.641,471.749 156.333,932.635 156.333,1162.68c-0,737.612 -299.233,1326.92 -442.596,1382.08c-189.241,72.766 -615.432,-0.281 -1024.56,-123.263" style="fill:none;stroke:#1c4fb5;stroke-width:74.09px;"/><path d="M9315.3,6292.41c49.796,-18.833 99.932,-28.753 150.048,-28.753c297.828,0 534.134,141.636 720.665,360.855" style="fill:none;stroke:#1c4fb5;stroke-width:74.09px;"/><path d="M8529.02,7402.77c85.074,-240.442 187.656,-459.902 301.201,-640.591" style="fill:none;stroke:#1c4fb5;stroke-width:74.09px;"/><path d="M7826.35,6577.49c33.37,-84.412 57.826,-137.66 70.154,-149.366c101.559,-96.638 204.964,-98.566 248.334,-96.498c43.37,2.068 251.767,100.494 295.82,204.341" style="fill:none;stroke:#1c4fb5;stroke-width:74.09px;"/><path d="M7174.39,8521.21c148.06,-473.074 335.977,-1051.54 484.218,-1480.76" style="fill:none;stroke:#1c4fb5;stroke-width:74.09px;"/><path d="M6928.53,9366.7c-0.482,-19.758 29.435,-131.014 79.069,-299.575" style="fill:none;stroke:#1c4fb5;stroke-width:74.09px;"/><path d="M8178.69,6513.4c42.908,6.786 146.755,69.994 200.968,133.202" style="fill:none;stroke:#1c4fb5;stroke-width:74.09px;"/><path d="M8058.32,6665.82c42.868,6.766 146.755,69.994 200.928,133.202" style="fill:none;stroke:#1c4fb5;stroke-width:74.09px;"/><path d="M7832.75,8975.87c3.513,-96.338 241.768,-1758.49 345.956,-2085.15" style="fill:none;stroke:#1c4fb5;stroke-width:74.09px;"/><path d="M8343.01,7091.97c146.213,-156.434 323.287,-324.493 465.364,-392.399" style="fill:none;stroke:#1c4fb5;stroke-width:74.09px;"/><path d="M3733.2,7933.24l923.962,1501.04" style="fill:none;stroke:#1c4fb5;stroke-width:74.09px;"/><path d="M10378.7,10268.7c-0,123.806 -196.712,990.041 -1592.62,990.041c-146.293,0 -1246.65,-43.892 -1267.13,-43.892c0,257.529 705.265,1934.36 772.549,2048.49" style="fill:none;stroke:#1c4fb5;stroke-width:74.09px;"/><path d="M6485.89,9900.3c-204.843,76.64 -989.137,296.12 -989.137,980.924c-0,307.285 1992.25,2789.68 2162.64,2943.98" style="fill:none;stroke:#1c4fb5;stroke-width:74.09px;"/><path d="M7559.86,13936.5l913.019,-582.362" style="fill:none;stroke:#1c4fb5;stroke-width:74.09px;"/><path d="M7659.35,14097.4l942.294,-570.657" style="fill:none;stroke:#1c4fb5;stroke-width:74.09px;"/><path d="M8036.13,12678.2l585.676,529.094" style="fill:none;stroke:#1c4fb5;stroke-width:74.09px;"/><path d="M8379.72,11510.4l871.556,1082.38" style="fill:none;stroke:#1c4fb5;stroke-width:74.09px;"/><path d="M9352.17,12515l-770.059,748.373" style="fill:none;stroke:#1c4fb5;stroke-width:74.09px;"/><path d="M9449.39,12659.4l-770.099,748.353" style="fill:none;stroke:#1c4fb5;stroke-width:74.09px;"/><path d="M3315.6,15171.8l0,665.247" style="fill:none;stroke:#1c4fb5;stroke-width:74.09px;"/><path d="M3315.59,9900.32l-0,4036.1" style="fill:none;stroke:#1c4fb5;stroke-width:74.09px;"/><path d="M6388.31,9900.3l-0,5936.73" style="fill:none;stroke:#1c4fb5;stroke-width:74.09px;"/><path d="M9961.86,6857.29c537.909,187.234 263.995,1339.33 112.582,1378.16c-151.393,38.832 -1063.57,-322.223 -1092.74,-419.283c-29.215,-97.061 351.738,-1177.66 980.161,-958.879Z" style="fill:#6f6;fill-rule:nonzero;"/><path d="M9278.8,6926.66c155.73,-156.093 352.562,-250.041 582.544,-169.987c537.908,187.254 263.975,1339.35 112.561,1378.18c-151.394,38.833 -1063.57,-322.223 -1092.76,-419.263c-6.907,-22.93 9.096,-100.735 45.8,-203.317" style="fill:none;stroke:#1c4fb5;stroke-width:74.09px;"/><path d="M9044.56,7872.63c-43.852,64.232 -286.162,848.064 -286.162,848.064c0,0 -1712.05,737.632 -1797.49,776.464c-31.043,-42.707 -133.424,-120.352 -341.62,-120.352c-380.531,0 -446.47,252.33 -446.47,306.683c0,54.353 578.468,174.684 733.757,170.829c155.288,-3.895 2325.45,-333.868 2403.1,-372.701c77.624,-38.812 596.88,-1265.32 596.88,-1265.32c-140.29,-7.469 -788.591,-208.075 -861.999,-343.667Z" style="fill:#90b3f8;fill-rule:nonzero;"/><path d="M7965.25,9591.44c-547.767,83.668 -1084.79,160.409 -1159.2,162.296c-155.308,3.855 -733.736,-116.497 -733.736,-170.85c0,-54.333 65.918,-306.662 446.451,-306.662c208.195,-0 310.577,77.625 341.618,120.332c85.415,-38.832 1797.49,-776.444 1797.49,-776.444c0,0 242.31,-783.832 286.162,-848.064" style="fill:none;stroke:#1c4fb5;stroke-width:74.09px;"/><path d="M9805.95,8115.74c-0,0 -519.236,1226.53 -596.88,1265.32c-22.087,11.044 -213.457,45.659 -479.58,89.591" style="fill:none;stroke:#1c4fb5;stroke-width:74.09px;"/><rect x="8309.42" y="11303.5" width="3313.57" height="307.465" style="fill:#cdddfc;"/><path d="M10282.5,11510.3l-2073.71,-0l-0,-307.486l3313.57,0l0,307.486l-582.242,-0" style="fill:none;stroke:#1c4fb5;stroke-width:74.09px;"/><rect x="2417.32" y="9733.42" width="5041.56" height="253.112" style="fill:#8387c2;"/><path d="M3733.2,9647.24l3639.55,-0l-0,253.091l-5041.54,0l-0,-253.091l775.961,-0" style="fill:none;stroke:#1c4fb5;stroke-width:74.09px;"/><rect x="4743.3" y="9520.53" width="1775.58" height="212.894" style="fill:#fff;"/><rect x="4657.14" y="9434.35" width="1775.58" height="212.895" style="fill:none;stroke:#1c4fb5;stroke-width:74.09px;"/><path d="M7832.53,14153.9l581.74,636.696l-318.307,882.659l976.688,-759.657l-566.179,-1167.84" style="fill:#90b3f8;fill-rule:nonzero;"/><path d="M8744.91,14344.5l-338.99,-699.201" style="fill:none;stroke:#1c4fb5;stroke-width:74.09px;"/><path d="M7731.98,14053.4l581.76,636.696l-318.327,882.659l976.708,-759.677l-98.948,-204.08" style="fill:none;stroke:#1c4fb5;stroke-width:74.09px;"/><path d="M9427.86,12878.6l324.191,550.498l223.958,116.536l-426.03,989.459l-97.281,-622.44l-561.421,-512.609" style="fill:#90b3f8;fill-rule:nonzero;"/><path d="M8934.35,13430.6l-143.623,-131.134" style="fill:none;stroke:#1c4fb5;stroke-width:74.09px;"/><path d="M9327.31,12778l324.191,550.498l223.958,116.557l-426.03,989.439l-97.281,-622.44l-120.493,-110.011" style="fill:none;stroke:#1c4fb5;stroke-width:74.09px;"/><path d="M9064.4,11510.4l-0,4297.51" style="fill:none;stroke:#1c4fb5;stroke-width:74.09px;"/><path d="M10666.9,13150.5l-0,2657.4" style="fill:none;stroke:#1c4fb5;stroke-width:74.09px;"/><path d="M10666.9,11510.3l-0,905.148" style="fill:none;stroke:#1c4fb5;stroke-width:74.09px;"/><path d="M8096.3,5594.02c9.738,34.013 32.608,57.324 51.14,52.024c18.513,-5.281 25.621,-37.166 15.882,-71.179c-9.717,-34.033 -32.607,-57.325 -51.14,-52.045c-18.512,5.302 -25.6,37.166 -15.882,71.2Z" style="fill:#1c4fb5;fill-rule:nonzero;"/><path d="M7873.47,5969.27c-2.651,13.01 -6.466,25.439 -11.766,36.784" style="fill:none;stroke:#1c4fb5;stroke-width:63.05px;"/><path d="M7852.03,5770.27c9.658,23.553 24.798,80.255 26.183,137.901" style="fill:none;stroke:#1c4fb5;stroke-width:63.05px;"/><path d="M8401.46,5949.91c5.883,45.097 -25.62,114.891 -86.459,155.691" style="fill:none;stroke:#1c4fb5;stroke-width:63.05px;"/><rect x="421.54" y="5110.28" width="5289.37" height="1595.79" style="fill:#cdddfc;"/><path d="M5255.95,5900.26c0,257.248 -208.557,465.806 -465.806,465.806c-257.248,-0 -465.785,-208.558 -465.785,-465.806c-0,-257.248 208.537,-465.785 465.785,-465.785c257.249,-0 465.806,208.537 465.806,465.785Z" style="fill:#fff;fill-rule:nonzero;"/><path d="M3910.24,5630.08l-2629.07,-0" style="fill:none;stroke:#ecf2fa;stroke-width:74.09px;"/><path d="M3910.24,6170.44l-1392.98,-0" style="fill:none;stroke:#ecf2fa;stroke-width:74.09px;"/><rect x="4375.42" y="1.855" width="3143.48" height="3988.88" style="fill:#e6eefe;fill-opacity:0.51;"/><path d="M5597.25,1432.1l921.653,2166.17l1933.7,-1343.05l-2855.35,-823.127Z" style="fill:none;stroke:#cdddfc;stroke-width:60.24px;"/><rect x="1044.38" y="2007.2" width="1810" height="755.863" style="fill:#e6eefe;fill-opacity:0.51;"/><rect x="202.2" y="2941.62" width="1810.04" height="755.884" style="fill:#e6eefe;fill-opacity:0.51;"/></g></g></svg>