<?xml version="1.0" encoding="UTF-8" standalone="no"?><!DOCTYPE svg PUBLIC "-//W3C//DTD SVG 1.1//EN" "http://www.w3.org/Graphics/SVG/1.1/DTD/svg11.dtd"><svg width="100%" height="100%" viewBox="0 0 13930 13367" version="1.1" xmlns="http://www.w3.org/2000/svg" xmlns:xlink="http://www.w3.org/1999/xlink" xml:space="preserve" xmlns:serif="http://www.serif.com/" style="fill-rule:evenodd;clip-rule:evenodd;stroke-linecap:round;stroke-linejoin:round;stroke-miterlimit:2;"><rect id="demos" x="0" y="-0" width="13927" height="13365.4" style="fill:none;"/><clipPath id="_clip1"><rect x="0" y="-0" width="13927" height="13365.4"/></clipPath><g clip-path="url(#_clip1)"><g><path d="M12491.4,147.446c1002.45,532.158 919.934,2664.91 961.199,4533.67c41.249,1868.74 206.264,3473.47 -259.891,5123.59c-466.155,1650.1 -1563.48,3345.6 -2945.45,3543.61c-1386.1,202.144 -3060.94,-1089.07 -4954.45,-1777.99c-1893.49,-688.931 -4005.64,-775.552 -4843.08,-1802.75c-837.404,-1027.2 -396.017,-2994.95 486.788,-4343.9c886.94,-1348.97 2215.28,-2075.02 3353.86,-2582.44c1134.44,-507.391 2083.26,-796.169 3597.24,-1476.83c1518.1,-676.54 3601.36,-1749.11 4603.79,-1216.95Z" style="fill:#e6eefe;fill-opacity:0.51;fill-rule:nonzero;"/><path d="M1413.33,7868.07c-103.383,-29.538 -413.533,-221.536 -472.609,-295.381c-59.076,-73.845 -199.367,105.259 55.399,348.003" style="fill:#fff;fill-rule:nonzero;"/><path d="M1295.18,7749.91c-103.383,-29.538 -413.533,-221.535 -472.609,-295.38c-59.077,-73.846 -199.368,105.244 55.398,348.002" style="fill:none;stroke:#1c4fb5;stroke-width:70.61px;"/><path d="M2594.85,8325.91c-73.845,-88.614 -324.919,-457.84 -369.226,-575.993c-44.307,-118.152 -345.935,-236.304 -150.806,575.993" style="fill:#fff;fill-rule:nonzero;"/><path d="M2447.16,8178.21c-73.845,-88.614 -324.919,-457.84 -369.226,-575.992c-38.163,-101.788 -267.29,-203.562 -205.319,289.443" style="fill:none;stroke:#1c4fb5;stroke-width:70.61px;"/><path d="M4239.96,9666.37c-94.36,195.513 -507.893,963.503 -507.893,963.503c0,0 -945.218,-2023.36 -1048.6,-2067.67c-103.384,-44.307 -1683.67,-590.761 -1979.05,-753.221c-118.152,-59.076 -472.609,44.308 177.229,472.61c649.837,428.302 1284.91,782.759 1358.75,930.449c73.846,147.691 605.531,2436.89 605.531,2436.89l1980.94,-0c131.031,-0 574.102,-1447.37 574.102,-1447.37c-0,-0 -1051.89,-656.838 -1161.01,-535.201Z" style="fill:#fff;fill-rule:nonzero;"/><path d="M2556.4,10896.9c82.16,347.309 141.842,604.319 141.842,604.319l1980.94,0c131.031,0 574.102,-1447.37 574.102,-1447.37c0,0 -1051.89,-656.838 -1161.01,-535.2c-94.36,195.513 -507.893,963.503 -507.893,963.503c-0,-0 -945.219,-2023.36 -1048.6,-2067.67c-31.827,-13.647 -203.695,-74.894 -434.963,-157.896" style="fill:none;stroke:#1c4fb5;stroke-width:70.61px;"/><path d="M1131.02,8389.38c491.794,310.8 903.141,557.871 961.686,674.975c38.946,77.862 205.171,751.168 353.645,1370.32" style="fill:none;stroke:#1c4fb5;stroke-width:70.61px;"/><path d="M1713.08,8116.76c-471.148,-171.202 -998.122,-368.443 -1156.36,-455.462c-107.593,-53.804 -411.17,27.146 26.23,365.49" style="fill:none;stroke:#1c4fb5;stroke-width:70.61px;"/><path d="M6915.74,7247.72c885.286,459.715 -105.658,2747.54 -649.483,3326.02c-445.583,96.545 -2017.51,-658.374 -2211.8,-1159.65c163.168,-494.039 1599.65,-2821.52 2861.28,-2166.37Z" style="fill:#6f6;fill-rule:nonzero;"/><path d="M13010.5,3215.85l884.09,2027.66l-3605.02,613.698l2720.93,-2641.35Z" style="fill:none;stroke:#cdddfc;stroke-width:70.61px;"/><path d="M5126.08,7555.85c499.12,-455.521 1087.43,-743.784 1641.98,-455.831c885.286,459.73 -105.657,2747.56 -649.483,3326.03c-445.582,96.545 -2017.51,-658.375 -2211.8,-1159.65c50.998,-154.395 226.336,-487.821 481.811,-853.325" style="fill:none;stroke:#1c4fb5;stroke-width:70.61px;"/><path d="M6712.6,6711.24c356.791,-239.125 772.938,-379.15 1258.19,-379.15c1831.36,-0 2599.35,2422.12 2643.66,5183.93" style="fill:none;stroke:#1c4fb5;stroke-width:70.61px;"/><path d="M5140.52,9211.18c236.393,-764.313 571.975,-1499.29 1047.15,-2035.35" style="fill:none;stroke:#1c4fb5;stroke-width:70.61px;"/><path d="M4678.91,11503.6c38.09,-331.757 91.45,-702.932 165.665,-1090.07" style="fill:none;stroke:#1c4fb5;stroke-width:70.61px;"/><path d="M10758.6,11501.2c-71.453,-2693.64 -844.804,-5021.47 -2640.17,-5021.47c-2277.49,-0 -3032.45,3084.34 -3273.88,5021.47l5914.06,0Z" style="fill:#6f6;fill-rule:nonzero;"/><path d="M11781.8,10434.5l-428.952,-1000.88l-1639.36,1004.3c50.215,180.743 223.293,730.151 328.981,1063.37" style="fill:none;stroke:#1c4fb5;stroke-width:70.61px;"/><path d="M11773.8,11508.6l-0,-1289.83l-273.227,-637.535l-1639.36,1004.3c43.658,157.142 180.198,592.933 284.556,923.065l1628.04,-0Z" style="fill:#fff;fill-rule:nonzero;"/><path d="M9580.61,7085.31c900.911,-428.303 2126.74,1742.75 2259.66,2525.51c-191.998,413.533 -1742.75,1211.06 -2259.66,1063.37c-295.381,-428.302 -1283.87,-2978.5 -0,-3588.88Z" style="fill:#6f6;fill-rule:nonzero;"/><path d="M10329.4,7175.91c663.81,554.725 1271.76,1749.05 1363.14,2287.21c-191.997,413.533 -1742.75,1211.06 -2259.66,1063.37c-27.174,-39.389 -60.198,-96.738 -96.767,-168.87" style="fill:none;stroke:#1c4fb5;stroke-width:70.61px;"/><path d="M8895.71,9086.69c-175.486,-790.956 -184.702,-1677.04 400.758,-2071.46" style="fill:none;stroke:#1c4fb5;stroke-width:70.61px;"/><path d="M11270,2314.91l511.215,-0l-0,9186.34l-9186.34,0l0,-441.387" style="fill:none;stroke:#1c4fb5;stroke-width:70.61px;"/><path d="M2594.85,3026.32l0,-711.41l6701.61,-0" style="fill:none;stroke:#1c4fb5;stroke-width:70.61px;"/><path d="M2594.85,8490.49l0,-3217.38" style="fill:none;stroke:#1c4fb5;stroke-width:70.61px;"/><path d="M8805.24,5084.1c-73.845,295.38 -206.767,930.449 -162.459,1787.05c-251.074,221.536 -1092.91,265.843 -1476.9,-29.538c73.845,-457.84 73.845,-900.911 59.076,-1196.29c-14.769,-295.381 1580.29,-561.223 1580.29,-561.223Z" style="fill:#fff;fill-rule:nonzero;"/><path d="M7047.72,6723.46c73.845,-457.84 73.845,-900.911 59.076,-1196.29c-14.769,-295.381 1580.29,-561.224 1580.29,-561.224c-73.845,295.381 -206.767,930.45 -162.46,1787.05c-148.591,131.12 -504.14,200.15 -849.248,173.418" style="fill:none;stroke:#1c4fb5;stroke-width:70.61px;"/><path d="M9167.08,4057.65c0,1076.68 -684.382,1949.51 -1528.61,1949.51c-844.198,-0 -1528.58,-872.836 -1528.58,-1949.51c-0,-1076.69 684.382,-1949.51 1528.58,-1949.51c844.228,0 1528.61,872.821 1528.61,1949.51Z" style="fill:#fff;fill-rule:nonzero;"/><path d="M8202.81,5654.85c-205.422,130.958 -437.193,204.625 -682.477,204.625c-468.74,0 -888.195,-269.077 -1168.6,-692.727" style="fill:none;stroke:#1c4fb5;stroke-width:70.61px;"/><path d="M6071.1,4531.65c-51.47,-195.246 -79.369,-404.317 -79.369,-621.688c0,-1076.69 684.383,-1949.51 1528.6,-1949.51c844.213,-0 1528.6,872.821 1528.6,1949.51c0,265.783 -41.707,519.161 -117.221,750.031" style="fill:none;stroke:#1c4fb5;stroke-width:70.61px;"/><path d="M6892.65,3732.73c-14.769,147.69 -206.767,561.223 -354.457,708.913" style="fill:none;stroke:#1c4fb5;stroke-width:70.61px;"/><path d="M6996.03,5032.41c73.845,0 221.536,-29.538 339.688,-206.767" style="fill:none;stroke:#1c4fb5;stroke-width:70.61px;"/><path d="M6529.84,3858.8c-13.838,82.456 -56.033,144.102 -94.241,137.677c-38.207,-6.41 -57.968,-78.438 -44.13,-160.894c13.839,-82.456 56.034,-144.102 94.241,-137.692c38.208,6.41 57.969,78.454 44.13,160.909Z" style="fill:#1c4fb5;fill-rule:nonzero;"/><path d="M9462.46,3260.12c0,-782.759 -856.604,-1314.44 -1432.6,-1491.67c-465.608,-143.26 -1196.29,-369.226 -1580.29,-369.226c-472.61,0 -841.836,487.379 -841.836,974.757c0,531.685 280.612,930.449 620.3,1019.06c59.076,-177.229 88.614,-251.074 88.614,-251.074c59.076,73.845 1639.36,265.843 2171.05,251.074c-44.307,191.997 -73.846,871.373 221.535,886.142c162.46,14.769 753.221,191.998 753.221,-1019.06Z" style="fill:#2568ef;fill-rule:nonzero;"/><path d="M8392.12,1842.27c-175.471,-98.716 -353.113,-173.255 -509.946,-221.506c-465.608,-143.26 -1196.29,-369.226 -1580.29,-369.226c-367.202,-0 -672.006,294.229 -789.685,654.091" style="fill:none;stroke:#1c4fb5;stroke-width:70.61px;"/><path d="M8340.01,3245.36c-44.307,191.998 -73.845,871.374 221.536,886.143c162.459,14.769 753.221,191.997 753.221,-1019.06c-0,-350.558 -171.793,-650.768 -413.267,-891.311" style="fill:none;stroke:#1c4fb5;stroke-width:70.61px;"/><path d="M5497.65,2552.76c87.359,364.116 316.958,623.269 582.698,692.594c59.076,-177.228 88.614,-251.073 88.614,-251.073c42.328,52.887 865.082,166.403 1523.94,221.121" style="fill:none;stroke:#1c4fb5;stroke-width:70.61px;"/><path d="M9211.38,4323.49c-0,220.221 -178.528,398.764 -398.764,398.764c-220.236,0 -398.765,-178.543 -398.765,-398.764c0,-220.236 178.529,-398.764 398.765,-398.764c220.236,0 398.764,178.528 398.764,398.764Z" style="fill:#fff;fill-rule:nonzero;"/><path d="M8295.7,4205.34c0,-178.425 117.193,-329.483 278.781,-380.407" style="fill:none;stroke:#1c4fb5;stroke-width:70.61px;"/><path d="M8574.48,3824.94c37.883,-11.933 78.172,-18.357 119.983,-18.357c220.237,-0 398.764,178.528 398.764,398.764c0,220.221 -178.527,398.764 -398.764,398.764c-34.47,-0 -67.923,-4.386 -99.823,-12.599" style="fill:none;stroke:#1c4fb5;stroke-width:70.61px;"/><path d="M2935.19,3156.11l1818.16,1529.14l-1738.09,2066.63l-1818.19,-1529.16l1738.12,-2066.62Z" style="fill:#cdddfc;stroke:#cdddfc;stroke-width:70.61px;"/></g></g></svg>