<?xml version="1.0" encoding="UTF-8" standalone="no"?><!DOCTYPE svg PUBLIC "-//W3C//DTD SVG 1.1//EN" "http://www.w3.org/Graphics/SVG/1.1/DTD/svg11.dtd"><svg width="100%" height="100%" viewBox="0 0 13892 13925" version="1.1" xmlns="http://www.w3.org/2000/svg" xmlns:xlink="http://www.w3.org/1999/xlink" xml:space="preserve" xmlns:serif="http://www.serif.com/" style="fill-rule:evenodd;clip-rule:evenodd;stroke-linecap:round;stroke-linejoin:round;stroke-miterlimit:2;"><rect id="guides" x="0" y="0" width="13891.6" height="13921.5" style="fill:none;"/><clipPath id="_clip1"><rect x="0" y="0" width="13891.6" height="13921.5"/></clipPath><g clip-path="url(#_clip1)"><g><path d="M11164.6,1634.15c1300.15,1040.12 2203.91,2603.47 2115.12,4055.84c-88.789,1449.19 -1173.3,2787.38 -1994.63,4331.7c-821.305,1544.32 -1385.75,3301.12 -2467.1,3751.41c-1084.53,450.339 -2689.1,-405.896 -4230.24,-1106.7c-1541.16,-703.991 -3018.89,-1255.77 -3833.86,-2346.63c-814.968,-1087.67 -973.521,-2717.62 -437.61,-3957.52c535.911,-1239.89 1763.13,-2092.92 2901.55,-3161.58c1141.6,-1068.66 2194.4,-2349.78 3570.65,-2733.47c1376.27,-383.709 3072.81,126.84 4376.12,1166.95Z" style="fill:#e6eefe;fill-opacity:0.51;fill-rule:nonzero;"/><path d="M1993.4,43.221c-1298.06,1015.87 -814.967,5129.95 1846.45,5648.9c3116.91,607.77 3327.48,-2574.39 5690.03,-2288.94c2054.88,248.272 2671.66,2470.36 1399.34,3863.69" style="fill:none;stroke:#fff;stroke-width:83.2px;stroke-dasharray:499.21,499.21;"/><path d="M4833.66,7074.78c-151.924,-58.366 -914.142,-672.805 -973.437,-769.748c-59.322,-96.943 -453.487,-713.004 -453.487,-713.004l663.292,-505.876c0,0 597.799,537.284 714.044,645.431c116.232,108.161 565.933,280.762 614.772,280.623c48.853,-0.139 -565.184,1062.57 -565.184,1062.57Z" style="fill:#fff;fill-rule:nonzero;"/><path d="M4658.73,6899.94c-91.008,-52.403 -823.426,-661.42 -895.575,-733.569c-72.163,-72.149 -360.787,-531.072 -406.963,-640.744" style="fill:none;stroke:#1c4fb5;stroke-width:75.32px;"/><path d="M9668.55,11168.8c-156.127,69.404 -2955.96,711.507 -3441.73,717.29c111.878,626.503 527.592,1852.23 556.698,1976.58c248.674,-60.279 3277.04,-1199.52 3389.26,-1274.19c-92.534,-179.27 -452.183,-1055.35 -504.225,-1419.67Z" style="fill:#2568ef;fill-rule:nonzero;"/><path d="M7464.8,3316.28l-5280.49,2855.04c-541.527,292.798 -1224.15,89.275 -1516.93,-452.238l-0,-0.015c-292.798,-541.513 -89.289,-1224.13 452.239,-1516.92l5280.5,-2855.03c541.527,-292.799 1224.14,-89.289 1516.93,452.238c292.784,541.514 89.274,1224.14 -452.253,1516.92Z" style="fill:#cdddfc;fill-rule:nonzero;"/><path d="M3932.31,4369.71l-569.552,-182.862l182.862,-569.566" style="fill:none;stroke:#fff;stroke-width:73.51px;"/><path d="M4880.61,2931.2l569.566,182.862l-182.875,569.552" style="fill:none;stroke:#fff;stroke-width:73.51px;"/><path d="M4076.81,2879.01l409.571,1693.89" style="fill:none;stroke:#fff;stroke-width:73.51px;"/><path d="M3567.07,2939.14c-106.401,-231.34 -770.691,12.799 -1054,248.424c78.667,258.797 158.748,486.711 204.328,538.338c56.784,5.671 885.216,-413.426 849.676,-786.762Z" style="fill:#fff;fill-rule:nonzero;"/><path d="M6581.8,6456.03c-395.468,-318.493 -940.351,-532.472 -1097.8,-597.508c-114.651,49.519 -261.874,311.019 -391.627,607.77c-232.213,435.889 -305.679,965.56 -305.679,965.56c359.538,223.492 1105.09,366.126 1236.52,366.126c131.416,-0 558.583,-1341.95 558.583,-1341.95Z" style="fill:#6f6;fill-rule:nonzero;"/><path d="M7312.79,6121.29c1390.52,-333.483 2026.01,3649.37 2328.03,5033.61c-295.724,220.22 -2919.49,880.877 -3441.73,717.29c-962.676,-2535.69 -1296.74,-5172.84 1113.7,-5750.9Z" style="fill:#6f6;fill-rule:nonzero;"/><path d="M7201.82,5982.62c1390.55,-333.484 2026.04,3649.37 2328.06,5033.61c-295.725,220.219 -2919.49,880.876 -3441.73,717.289c-962.676,-2535.69 -1296.74,-5172.84 1113.67,-5750.9Z" style="fill:none;stroke:#1c4fb5;stroke-width:73.51px;"/><path d="M8061.44,8608.15c-73.065,105.527 -738.714,856.402 -844.24,909.165c-105.513,52.763 -524.152,45.871 -604.76,-0c-470.82,-267.879 -1988.82,-2626.06 -2098.41,-2849.29c-109.576,-223.242 -267.879,-539.822 -409.945,-657.523c-22.908,-173.225 101.172,-399.92 -119.102,-674.164c40.449,-193.303 -71.941,-1047.49 568.692,-703.561c168.593,92.159 400.433,453.723 368.414,751.444c-32.005,297.706 -70.693,635.835 -6.684,774.808c64.023,138.973 1804.14,1991.14 1848.96,2013.56c55.758,-72.509 276.449,-362.146 276.449,-362.146l1020.63,797.703Z" style="fill:#fff;fill-rule:nonzero;"/><path d="M8714.15,6625.47c672.721,533.345 -145.448,1769.68 -448.481,2109.09c-139.389,6.046 -1343.11,-703.02 -1404.89,-993.946c174.597,-260.599 1103.52,-1709.61 1853.37,-1115.14Z" style="fill:#6f6;fill-rule:nonzero;"/><path d="M4995.34,7416.23c-151.052,-62.067 -223.159,-102.379 -305.708,-150.774c-8.154,-33.072 4.52,-107.273 45.094,-246.829" style="fill:none;stroke:#1c4fb5;stroke-width:75.32px;"/><path d="M5007.98,6271.19c129.738,-296.736 264.302,-529.546 378.953,-579.065c157.444,65.022 677.269,259.144 1072.74,577.623" style="fill:none;stroke:#1c4fb5;stroke-width:73.51px;"/><path d="M5917.01,7255.59c-472.762,-480.263 -1009.49,-1050.63 -1098.67,-1262.96c-59.516,-124.981 -17.458,-944.289 95.39,-1119.97" style="fill:none;stroke:#1c4fb5;stroke-width:75.32px;"/><path d="M6861.95,7758.11c-72.732,76.559 -137.24,175.332 -194.649,248.077c-16.293,-18.872 -109.936,-111.045 -247.287,-247.079" style="fill:none;stroke:#1c4fb5;stroke-width:75.32px;"/><path d="M7247.4,9241.82c-58.976,57.548 -104.833,97.886 -127.27,109.091c-105.526,52.763 -524.152,45.858 -604.76,-0c-470.82,-267.879 -1988.82,-2626.06 -2098.41,-2849.29c-109.589,-223.242 -267.879,-539.835 -409.945,-657.537" style="fill:none;stroke:#1c4fb5;stroke-width:75.32px;"/><path d="M7922.03,8496.08c-23.116,33.377 -101.297,125.924 -200.736,238.523" style="fill:none;stroke:#1c4fb5;stroke-width:75.32px;"/><path d="M4645.41,5258.45c-13.659,-235.527 -153.616,-737.285 -259.42,-846.514" style="fill:none;stroke:#1c4fb5;stroke-width:75.32px;"/><path d="M4406.47,5258.45c-37.551,-153.602 -187.729,-634.878 -341.346,-873.818" style="fill:none;stroke:#1c4fb5;stroke-width:75.32px;"/><path d="M4201.67,5374.5c-6.836,-81.925 -136.547,-426.668 -228.706,-522.239" style="fill:none;stroke:#1c4fb5;stroke-width:75.32px;"/><path d="M4044.65,5541.75c-17.07,-85.322 -122.888,-314.028 -204.799,-392.528" style="fill:none;stroke:#1c4fb5;stroke-width:75.32px;"/><path d="M10034.1,12435.9c-68.655,-150.15 -438.053,-1104.41 -504.225,-1419.67" style="fill:none;stroke:#1c4fb5;stroke-width:73.51px;"/><path d="M8133.55,13109.5c-111.545,-90.093 -544.855,-652.101 -729.339,-905.226" style="fill:none;stroke:#1c4fb5;stroke-width:73.51px;"/><path d="M6644.85,13710.1c-64.356,-141.581 -499.899,-1627.86 -556.698,-1976.58" style="fill:none;stroke:#1c4fb5;stroke-width:73.51px;"/><path d="M5215.75,5873.54c-113.417,-50.183 -344.203,-164.973 -424.394,-181.42" style="fill:none;stroke:#1c4fb5;stroke-width:75.32px;"/><path d="M2377.93,6066.39l898.944,736.217l-123.775,-1155.33" style="fill:#cdddfc;fill-rule:nonzero;"/><path d="M3394.4,2748.58c-54.705,-57.741 -537.88,-264.385 -164.1,568.262" style="fill:none;stroke:#1c4fb5;stroke-width:75.32px;"/><path d="M3046.28,2866.16c-54.691,-57.728 -537.866,-264.371 -164.086,568.262" style="fill:none;stroke:#1c4fb5;stroke-width:75.32px;"/><path d="M2639.99,3060.38c-52.985,-48.658 -464.081,-180.407 -19.663,582.324" style="fill:none;stroke:#1c4fb5;stroke-width:75.32px;"/><path d="M12715.2,9165.86l1059.47,-430.8l-3031.22,-1070.09l1004.67,3053.53l453.473,-1049.95" style="fill:#cdddfc;fill-rule:nonzero;"/><path d="M12715.2,9165.86l1180.41,1206.04l-513.64,502.687l-1180.39,-1206.04" style="fill:#cdddfc;fill-rule:nonzero;"/><path d="M7354.55,8155.47c-295.128,-199.669 -562.563,-420.387 -590.838,-553.522" style="fill:none;stroke:#1c4fb5;stroke-width:73.51px;"/><path d="M8817.03,7438.83c-136.199,479.585 -475.854,963.772 -648.426,1157.06c-56.493,2.454 -287.82,-112.557 -547.088,-269.585" style="fill:none;stroke:#1c4fb5;stroke-width:73.51px;"/><path d="M7119.89,7108.09c381.504,-472.818 981.673,-1029.99 1497.2,-621.289c21.023,16.667 40.589,34.029 58.754,52.014" style="fill:none;stroke:#1c4fb5;stroke-width:73.51px;"/><path d="M11110.3,173.32l-1328.3,1336l3176,734.983l-1847.7,-2070.98Z" style="fill:none;stroke:#cdddfc;stroke-width:54.71px;"/><path d="M4391.39,10875.5l-208.003,2083.52l-2368.26,-236.387l208.002,-2083.57l2368.26,236.443Z" style="fill:none;stroke:#cdddfc;stroke-width:54.71px;"/><path d="M1335.42,11632.6c614.078,-164.335 1245.1,200.237 1409.44,814.302c164.35,614.065 -200.237,1245.09 -814.302,1409.42c-614.064,164.35 -1245.1,-200.223 -1409.44,-814.288c-164.335,-614.078 200.237,-1245.1 814.302,-1409.44Z" style="fill:none;stroke:#cdddfc;stroke-width:54.71px;"/><path d="M8062.84,2437.52c-59.779,-216.655 -313.001,-262.72 -440.77,194.275c-56.161,-160.051 -171.269,-387.495 -292.022,-387.495c-75.463,-0 -180.546,77.876 -261.084,219.914" style="fill:none;stroke:#1c4fb5;stroke-width:75.32px;"/><path d="M7985.4,5161.06c-58.63,196.452 -252.155,847.403 -258.02,1298.96c-93.838,55.703 -724.251,79.165 -894.328,-46.925c46.926,-199.392 126.091,-765.297 105.569,-961.762c87.957,-17.583 1046.78,-290.275 1046.78,-290.275Z" style="fill:#fff;fill-rule:nonzero;"/><path d="M6846.21,5782.84c20.481,-178.091 32.67,-350.609 23.075,-442.434c87.957,-17.583 1046.78,-290.275 1046.78,-290.275c-58.629,196.451 -252.154,847.402 -258.019,1298.96c-57.479,34.113 -316.192,56.133 -547.186,39.118" style="fill:none;stroke:#1c4fb5;stroke-width:73.51px;"/><path d="M8249.46,4650.6c-132.83,617.809 -632.299,1034.41 -1115.61,930.492c-483.301,-103.905 -767.418,-688.973 -634.588,-1306.78c132.83,-617.822 632.286,-1034.41 1115.61,-930.505c483.3,103.917 767.418,688.986 634.587,1306.8Z" style="fill:#fff;fill-rule:nonzero;"/><path d="M7339.91,5486.39c-95.016,18.374 -192.472,18.443 -289.263,-2.371c-245.456,-52.777 -439.55,-229.662 -553.729,-471.93" style="fill:none;stroke:#1c4fb5;stroke-width:75.32px;"/><path d="M6397.49,4676.83c-23.102,-157.499 -18.484,-327.271 18.568,-499.594c132.83,-617.822 632.3,-1034.41 1115.61,-930.505c483.3,103.917 767.418,688.987 634.587,1306.8c-28.981,134.855 -75.449,260.128 -135.395,372.491" style="fill:none;stroke:#1c4fb5;stroke-width:75.32px;"/><path d="M8271,4743.63c17.777,-59.794 198.046,-400.461 180.671,-942.292c-11.427,-356.836 -293.506,-1057.86 -292.785,-1150.56c2.288,-295.545 -307.594,-430.33 -453.611,91.95c-56.161,-160.051 -171.269,-387.495 -292.022,-387.495c-120.739,0 -317.301,199.364 -367.845,541.93c-16.848,-109.506 -115.122,-235.861 -171.283,-235.861c-56.161,0 -190.932,8.431 -185.33,474.537c-44.915,-56.147 -143.203,-89.843 -193.747,-89.843c-104.321,-0 -250.588,500.606 164.987,824.272c23.296,-44.014 88.54,-137.254 92.422,-137.254c76.393,20.717 815.245,205.02 1263.75,266.686c-11.218,67.269 -165.389,770.857 5.603,983.893c190.599,-70.083 249.187,-239.965 249.187,-239.965Z" style="fill:#2568ef;fill-rule:nonzero;"/><path d="M6956.77,4347.8c-19.053,76.226 -134.55,202.456 -193.054,225.1" style="fill:none;stroke:#1c4fb5;stroke-width:75.32px;"/><path d="M7499.82,4319.71c-18.332,49.838 -57.145,81.412 -86.696,70.541c-29.55,-10.872 -38.632,-60.085 -20.314,-109.909c18.332,-49.823 57.159,-81.412 86.709,-70.527c29.55,10.872 38.633,60.072 20.301,109.895Z" style="fill:#1c4fb5;fill-rule:nonzero;"/><path d="M7281.36,4926.01c-22.353,49.186 -156.487,163.198 -228.026,172.143" style="fill:none;stroke:#1c4fb5;stroke-width:75.32px;"/><path d="M7932.99,3888.77c-5.797,34.791 -49.824,239.743 -67.338,459.033" style="fill:none;stroke:#1c4fb5;stroke-width:75.32px;"/><path d="M6962.21,2786.23c-16.848,-109.506 -115.122,-235.86 -171.283,-235.86c-56.161,-0 -190.946,8.43 -185.33,474.536c-44.915,-56.147 -143.203,-89.857 -193.747,-89.857c-104.321,0 -250.588,500.62 164.987,824.286c23.296,-44.013 88.54,-137.254 92.422,-137.254c62.859,17.042 574.157,144.825 1003.22,223.935" style="fill:none;stroke:#1c4fb5;stroke-width:75.32px;"/><path d="M8248.09,4477.54c57.187,-159.427 131.86,-429.442 120.379,-787.136c-6.393,-199.419 -97.29,-506.334 -176.151,-754.494" style="fill:none;stroke:#1c4fb5;stroke-width:75.32px;"/><path d="M8299.94,4869.43c-0,126.383 -102.462,228.831 -228.845,228.831c-126.382,-0 -228.844,-102.448 -228.844,-228.831c0,-126.396 102.462,-228.844 228.844,-228.844c126.383,0 228.845,102.448 228.845,228.844Z" style="fill:#fff;fill-rule:nonzero;"/><path d="M7961.56,4584.59c22.741,-7.585 47.091,-11.69 72.384,-11.69c126.396,0 228.844,102.449 228.844,228.844c0,126.383 -102.448,228.831 -228.844,228.831c-31.602,0 -61.693,-6.393 -89.066,-17.985" style="fill:none;stroke:#1c4fb5;stroke-width:75.32px;"/></g></g></svg>