<?xml version="1.0" encoding="UTF-8" standalone="no"?><!DOCTYPE svg PUBLIC "-//W3C//DTD SVG 1.1//EN" "http://www.w3.org/Graphics/SVG/1.1/DTD/svg11.dtd"><svg width="100%" height="100%" viewBox="0 0 20838 16784" version="1.1" xmlns="http://www.w3.org/2000/svg" xmlns:xlink="http://www.w3.org/1999/xlink" xml:space="preserve" xmlns:serif="http://www.serif.com/" style="fill-rule:evenodd;clip-rule:evenodd;stroke-linecap:round;stroke-linejoin:round;"><rect id="projects" x="1.832" y="2.083" width="20832.8" height="16779.6" style="fill:none;"/><clipPath id="_clip1"><rect x="1.832" y="2.083" width="20832.8" height="16779.6"/></clipPath><g clip-path="url(#_clip1)"><g id="Layer-1" serif:id="Layer 1"><path d="M17877.7,4095.77l2670.66,-1008.31l-1146.08,-3035.57l-2670.66,1008.3l1146.08,3035.57Z" style="fill:none;stroke:#cdddfc;stroke-width:74.58px;"/><rect x="3800.64" y="2081.66" width="14829.3" height="10756.2" style="fill:#e6eefe;fill-opacity:0.51;"/><rect x="3800.64" y="2012.85" width="14829.3" height="1179.46" style="fill:#cfdefc;"/><path d="M15965.3,2602.57c0,161.932 -131.307,293.214 -293.239,293.214c-161.907,0 -293.214,-131.282 -293.214,-293.214c-0,-161.932 131.307,-293.215 293.214,-293.215c161.932,0 293.239,131.283 293.239,293.215" style="fill:#fff;fill-rule:nonzero;"/><path d="M17092.3,2602.57c-0,161.932 -131.282,293.214 -293.215,293.214c-161.932,0 -293.239,-131.282 -293.239,-293.214c0,-161.932 131.307,-293.215 293.239,-293.215c161.933,0 293.215,131.283 293.215,293.215" style="fill:#fff;fill-rule:nonzero;"/><path d="M18219.3,2602.57c-0,161.932 -131.307,293.214 -293.215,293.214c-161.957,0 -293.214,-131.282 -293.214,-293.214c-0,-161.932 131.257,-293.215 293.214,-293.215c161.908,0 293.215,131.283 293.215,293.215" style="fill:#fff;fill-rule:nonzero;"/><path d="M16785.1,4608.21c-154.313,-0 -195.08,306.374 -469.939,306.374l-1620.53,0l-0,1628.87l2591.73,-0l-0,-1935.25l-501.258,-0Z" style="fill:#cdddfc;fill-rule:nonzero;"/><path d="M13478.6,4608.21c-154.337,-0 -195.105,306.374 -469.939,306.374l-1620.51,0l-0,1628.87l2591.71,-0l-0,-1935.25l-501.258,-0Z" style="fill:#cdddfc;fill-rule:nonzero;"/><path d="M9702.18,4914.55l-1620.53,-0l0,1628.89l2591.71,-0l0,-1935.27l-501.233,-0c-154.337,-0 -195.105,306.375 -469.939,306.375" style="fill:#cdddfc;fill-rule:nonzero;"/><path d="M13347.2,7959.39l-623.807,2271.58l2050.94,-397.409l-1427.14,-1874.17Z" style="fill:none;fill-rule:nonzero;stroke:#cdddfc;stroke-width:74.58px;"/><path d="M11487.9,12876.9c0,-436.754 -354.588,-791.343 -791.342,-791.343c-436.754,-0 -791.343,354.589 -791.343,791.343c0,436.753 354.589,791.342 791.343,791.342c436.754,0 791.342,-354.589 791.342,-791.342Z" style="fill:none;stroke:#cdddfc;stroke-width:74.58px;"/><path d="M12144.4,11595.7c0,-232.191 -188.509,-420.7 -420.699,-420.7c-232.191,0 -420.7,188.509 -420.7,420.7c0,232.19 188.509,420.699 420.7,420.699c232.19,0 420.699,-188.509 420.699,-420.699Z" style="fill:none;stroke:#cdddfc;stroke-width:74.58px;"/><rect x="16315.1" y="7563.78" width="4233.27" height="6278.22" style="fill:#e6eefe;fill-opacity:0.51;"/><path d="M19751.7,9495.85c0,728.992 -590.956,1319.92 -1319.92,1319.92c-728.992,0 -1319.95,-590.931 -1319.95,-1319.92c0,-728.991 590.956,-1319.9 1319.95,-1319.9c728.966,0 1319.92,590.907 1319.92,1319.9" style="fill:#cdddfc;fill-rule:nonzero;"/><rect x="16786.9" y="11419.2" width="3289.55" height="723.055" style="fill:#cdddfc;"/><rect x="16786.9" y="12654.7" width="3289.55" height="723.079" style="fill:#cdddfc;"/><g><path d="M1225.78,14300.1c-8.033,178.347 -139.575,1454.66 -300.304,1936.75c538.327,-71.09 3470.93,-652.469 4353.17,-1161.11c-70.346,-477.069 -3795.06,-825.263 -4052.87,-775.637" style="fill:#2568ef;fill-rule:nonzero;"/><path d="M2974.37,4753.97c-0,440.22 -356.91,797.099 -797.131,797.099c-440.221,0 -797.1,-356.879 -797.1,-797.099c0,-440.252 356.879,-797.1 797.1,-797.1c440.221,-0 797.131,356.848 797.131,797.1" style="fill:#2568ef;fill-rule:nonzero;"/><path d="M5466.33,6135.58c56.947,-26.519 139.234,-206.137 139.234,-472.354c0,-661.091 -503.681,-973.12 -1305.93,-973.12c-561.031,-0 -1222.49,209.456 -1644.63,996.755c-314.168,585.999 -442.175,1878.19 -704.887,2342.6c-166.249,293.853 -519.065,888.785 -789.686,1448.36c-101.735,141.839 -613.078,1225.6 167.769,1581.58c780.909,356.011 4407.73,209.488 4504.16,56.544c96.4,-152.975 -445.68,-1245.14 -623.996,-1465.76c-178.315,-220.592 -435.258,-502.379 -288.517,-1590.35c146.771,-1087.97 14.081,-1728.87 138.924,-1780.55c124.842,-51.674 276.948,-54.9 407.56,-143.701" style="fill:#2568ef;fill-rule:nonzero;"/><path d="M3450.54,6896.84c0,186.814 -151.455,338.3 -338.3,338.3c-186.814,-0 -338.299,-151.486 -338.299,-338.3c-0,-186.845 151.485,-338.3 338.299,-338.3c186.845,0 338.3,151.455 338.3,338.3" style="fill:#fff;fill-rule:nonzero;"/><path d="M1097.72,14172c-8.002,178.347 -139.575,1454.65 -300.273,1936.75" style="fill:none;fill-rule:nonzero;stroke:#1c4fb5;stroke-width:93.51px;"/><path d="M8595.02,8898.77c262.092,-415.19 185.728,-893.655 73.603,-746.449c-37.655,49.379 -526.913,1041.64 -624.926,1142.53l0.868,1.488c-75.836,2.389 -136.411,12.407 -161.876,33.095c-99.347,80.706 -62.096,645.862 -99.347,695.551c-37.282,49.658 -1453.17,2223.22 -1515.26,2291.52c-6.234,24.844 -186.317,-813.508 -241.217,-962.078c-141.405,113.955 -493.508,315.812 -599.43,350.365c11.879,95.966 71.525,1280.59 -0,1665.63c59.986,119.198 423.627,480.078 577.997,480.078c297.699,-0 613.853,-114.483 697.195,-171.709c346.923,-238.302 1686.35,-3314.14 1784.3,-3378.25c195.684,-128.161 521.608,-571.205 567.172,-851.596c0,-125.091 101.797,-205.176 -459.079,-550.176" style="fill:#cfdefc;fill-rule:nonzero;"/><path d="M4641.52,9322.86c873.649,-285.231 1668.55,1698.76 1606.45,1858.74c-62.096,159.985 -943.933,638.17 -1136.45,613.295c-192.49,-24.845 -809.414,-2361.21 -469.997,-2472.04" style="fill:#6f6;fill-rule:nonzero;"/><path d="M4513.42,9194.79c873.68,-285.261 1668.55,1698.76 1606.48,1858.71c-62.096,159.985 -943.964,638.17 -1136.49,613.326c-192.49,-24.876 -809.414,-2361.24 -469.997,-2472.04Z" style="fill:#6f6;fill-rule:nonzero;"/><path d="M3589.54,8827.13c2473.18,57.908 1848.26,5580.94 1734.74,5778.36c-152.664,265.442 -3318.36,506.504 -4073.65,-234.269c-174.501,-171.12 -8.716,-5599.05 2338.91,-5544.09" style="fill:#6f6;fill-rule:nonzero;"/><path d="M3174.93,8720.73c91.686,-16.47 187.156,-23.976 286.533,-21.65c760.004,17.804 1227.43,551.665 1507.07,1288.53" style="fill:none;fill-rule:nonzero;stroke:#1c4fb5;stroke-width:93.51px;"/><path d="M5332.69,11986.2c66.996,1251.87 -85.823,2402.99 -136.536,2491.2c-152.633,265.441 -3318.36,506.503 -4073.62,-234.239c-158.806,-155.766 -35.887,-4663.15 1755.8,-5433.18" style="fill:none;fill-rule:nonzero;stroke:#1c4fb5;stroke-width:93.51px;"/><path d="M5259.08,5524.55c4.901,307.066 -2135.53,597.972 -2147.51,1034.01c-12.004,436.064 -18.921,688.013 -18.921,688.013c76.798,406.599 -89.111,1844.04 -136.039,1994.35c179.525,166.933 1080.31,154.34 1177.95,53.938c-12.623,-101.176 -10.855,-789.717 15.013,-867.507l-0.218,-0.249c37.655,4.994 75.712,7.817 114.235,7.817c688.945,-0 1247.43,-813.012 1247.43,-1815.91c0,-524.276 -8.56,-662.766 -251.949,-1094.46" style="fill:#cfdefc;fill-rule:nonzero;"/><path d="M2313.28,8994.73c957.333,297.637 384.298,2616.92 201.268,2708.38c-182.999,91.53 -1976.36,-420.898 -2012.99,-622.165c-36.6,-201.299 591.893,-2465.46 1811.72,-2086.22" style="fill:#6f6;fill-rule:nonzero;"/><path d="M2723.71,10062.3c-7.972,704.918 -234.301,1461.26 -337.277,1512.72c-182.967,91.53 -1976.39,-420.867 -2012.99,-622.166c-10.732,-59.118 35.855,-296.179 137.962,-591.955" style="fill:none;fill-rule:nonzero;stroke:#1c4fb5;stroke-width:93.51px;"/><path d="M1015.92,9371.23c293.325,-388.671 684.633,-655.26 1169.27,-504.612c40.352,12.562 77.945,28.691 113.025,48.107" style="fill:none;fill-rule:nonzero;stroke:#1c4fb5;stroke-width:93.51px;"/><path d="M6819.64,11168.6c393.727,-599.306 815.462,-1244.89 835.592,-1271.66c37.282,-49.72 -0,-614.815 99.377,-695.551c99.347,-80.706 731.996,-0.124 731.996,72.021c0,72.145 -258.525,309.64 -321.644,327.661" style="fill:none;fill-rule:nonzero;stroke:#1c4fb5;stroke-width:93.51px;"/><path d="M5905.57,11246.4c54.9,148.57 228.159,966.947 234.363,942.103c15.818,-17.431 119.662,-171.616 266.185,-392.579" style="fill:none;fill-rule:nonzero;stroke:#1c4fb5;stroke-width:93.51px;"/><path d="M8466.92,8770.67c262.091,-415.19 185.728,-893.655 73.603,-746.449c-37.655,49.379 -526.913,1041.64 -624.895,1142.5" style="fill:none;fill-rule:nonzero;stroke:#1c4fb5;stroke-width:93.51px;"/><path d="M8554.54,8879.32c-35.049,66.562 -195.747,334.113 -195.747,334.113" style="fill:none;fill-rule:nonzero;stroke:#1c4fb5;stroke-width:93.51px;"/><path d="M8726.21,8984.46c-34.987,87.561 -170.871,350.428 -239.604,445.06" style="fill:none;fill-rule:nonzero;stroke:#1c4fb5;stroke-width:93.51px;"/><path d="M8880.43,9100.1c-31.544,84.118 -218.606,427.536 -274.002,501.107" style="fill:none;fill-rule:nonzero;stroke:#1c4fb5;stroke-width:93.51px;"/><path d="M8465.2,10084.7c-37.809,36.506 -73.913,66.469 -106.418,87.715c-97.889,64.143 -1437.32,3139.98 -1784.27,3378.28c-83.342,57.226 -399.496,171.74 -697.194,171.74c-154.371,-0 -484.668,-309.299 -544.686,-428.466" style="fill:none;fill-rule:nonzero;stroke:#1c4fb5;stroke-width:93.51px;"/><path d="M8925.98,9320.89c-18.982,116.964 -86.723,262.123 -173.414,400.954" style="fill:none;fill-rule:nonzero;stroke:#1c4fb5;stroke-width:93.51px;"/><path d="M5101.62,7639.64c-228.779,407.219 -576.601,667.139 -966.172,667.139c-248.723,0 -480.449,-105.984 -675.049,-288.549" style="fill:none;fill-rule:nonzero;stroke:#1c4fb5;stroke-width:93.51px;"/><path d="M5130.99,5396.46c158.124,304.337 251.918,683.454 251.918,1094.49c0,198.755 -21.898,390.066 -62.467,569.064" style="fill:none;fill-rule:nonzero;stroke:#1c4fb5;stroke-width:93.51px;"/><path d="M3174.93,7046.14c-54.372,37.53 -120.376,59.49 -191.466,59.49c-186.411,0 -337.586,-151.113 -337.586,-337.555c-0,-186.473 151.175,-337.618 337.586,-337.618c46.649,0 91.034,9.461 131.418,26.551" style="fill:#cfdefc;fill-rule:nonzero;stroke:#1c4fb5;stroke-width:93.51px;"/><path d="M4206.07,6387.09c0,71.804 -31.637,129.991 -70.718,129.991c-39.05,0 -70.687,-58.187 -70.687,-129.991c-0,-71.804 31.637,-130.022 70.687,-130.022c39.081,-0 70.718,58.218 70.718,130.022" style="fill:none;fill-rule:nonzero;stroke:#1c4fb5;stroke-width:93.51px;"/><path d="M4850.02,6994.8c12.406,23.945 26.829,45.998 43.485,65.197" style="fill:none;fill-rule:nonzero;stroke:#1c4fb5;stroke-width:93.51px;"/><path d="M4780.93,6594.7c-5.707,51.301 -3.629,170.344 25.868,283.617" style="fill:none;fill-rule:nonzero;stroke:#1c4fb5;stroke-width:93.51px;"/><path d="M3809.17,7251.62c13.678,91.221 114.079,209.829 255.454,255.454" style="fill:#ecf2fe;fill-rule:nonzero;stroke:#1c4fb5;stroke-width:93.51px;"/><path d="M4006.42,9166.71c-12.592,-101.177 -10.824,-789.718 15.044,-867.508" style="fill:none;fill-rule:nonzero;stroke:#1c4fb5;stroke-width:93.51px;"/><path d="M2914.64,8502.46c-32.599,305.608 -68.113,552.626 -86.134,610.348c71.246,66.19 256.012,104.154 459.079,119.6" style="fill:none;fill-rule:nonzero;stroke:#1c4fb5;stroke-width:93.51px;"/><path d="M2964.59,7118.47c29.807,157.938 23.015,471.3 0.806,804.358" style="fill:none;fill-rule:nonzero;stroke:#1c4fb5;stroke-width:93.51px;"/><path d="M1458.94,5161.58c-128.564,-141.529 -206.882,-329.491 -206.882,-535.721c0,-356.476 233.991,-658.269 556.72,-760.221" style="fill:none;fill-rule:nonzero;stroke:#1c4fb5;stroke-width:93.51px;"/><path d="M2783.62,4315.6c40.353,95.346 62.623,200.214 62.623,310.261c-0,440.252 -356.848,797.131 -797.1,797.131c-65.353,-0 -128.906,-7.878 -189.699,-22.704" style="fill:none;fill-rule:nonzero;stroke:#1c4fb5;stroke-width:93.51px;"/><path d="M4829.89,4654.56c409.483,136.535 647.568,426.077 647.568,880.566c-0,266.248 -82.319,445.835 -139.265,472.354" style="fill:none;fill-rule:nonzero;stroke:#1c4fb5;stroke-width:93.51px;"/><path d="M2049.15,7228.13c140.072,-565.559 267.054,-1276.28 477.751,-1669.35c395.619,-737.889 1001.44,-968.157 1537.84,-994.211" style="fill:none;fill-rule:nonzero;stroke:#1c4fb5;stroke-width:93.51px;"/><path d="M1032.31,9349.72c186.224,-385.042 411.344,-786.833 587.799,-1095.73" style="fill:none;fill-rule:nonzero;stroke:#1c4fb5;stroke-width:93.51px;"/><path d="M4771.76,8914.73c13.338,122.485 33.405,225.337 61.507,281.043" style="fill:none;fill-rule:nonzero;stroke:#1c4fb5;stroke-width:93.51px;"/><path d="M4778.35,8047.38c-22.363,78.317 -33.715,331.166 -25.464,584.046" style="fill:none;fill-rule:nonzero;stroke:#1c4fb5;stroke-width:93.51px;"/><path d="M5214.28,5194.45c-0,642.76 -2230.85,700.792 -2230.85,1235.99" style="fill:none;fill-rule:nonzero;stroke:#1c4fb5;stroke-width:93.51px;"/><path d="M6334.23,14597.6c215.07,36.165 337.679,-317.705 468.446,-299.002c95.532,13.71 552.285,72.3 572.507,104.124c20.254,31.792 -54.403,360.88 -54.403,360.88" style="fill:#eaf0ff;fill-rule:nonzero;"/><path d="M4070.64,14216.6l3250.13,546.914l-339.596,2018.1l-3250.13,-546.915l339.595,-2018.1Z" style="fill:#ecf2fe;"/><path d="M7005.74,15746.5l-152.603,907.023l-1884.67,-317.115" style="fill:none;fill-rule:nonzero;stroke:#1c4fb5;stroke-width:93.51px;"/><path d="M7192.72,14635.4l-63.863,379.552" style="fill:none;fill-rule:nonzero;stroke:#1c4fb5;stroke-width:93.51px;"/><path d="M3899.27,16156.5l-296.303,-49.844l339.571,-2018.14l2767.72,465.747" style="fill:none;fill-rule:nonzero;stroke:#1c4fb5;stroke-width:93.51px;"/><path d="M6206.14,14469.5c215.07,36.196 337.679,-317.705 468.446,-298.971c95.532,13.679 552.253,72.269 572.476,104.093c20.254,31.792 -54.372,360.911 -54.372,360.911" style="fill:none;fill-rule:nonzero;stroke:#1c4fb5;stroke-width:93.51px;"/><path d="M6351.14,14827.2l472.275,79.493l-145.052,861.767l-472.275,-79.493l145.052,-861.767Z" style="fill:#fff;"/><path d="M4222.81,14635.4l1855.49,312.184" style="fill:none;fill-rule:nonzero;stroke:#1c4fb5;stroke-width:93.51px;"/><path d="M5732.06,15294.8l275.925,46.432" style="fill:none;fill-rule:nonzero;stroke:#1c4fb5;stroke-width:93.51px;"/><path d="M4152.54,15029l1066.23,179.401" style="fill:none;fill-rule:nonzero;stroke:#1c4fb5;stroke-width:93.51px;"/><path d="M6237.88,14722.7c-48.572,-373.876 -160.263,-767.231 -951.78,-733.268c-106.822,-87.374 -2185.01,-676.444 -3438.08,-1000.32c145.686,-301.08 315.657,-1218.87 324.466,-1301.37c-92.089,-17.245 -1466.13,-439.755 -1466.13,-439.755c-0,-0 -574.307,2399.27 -449.495,2600.2c768.161,489.352 3650.3,841.888 4951.52,750.575c91.251,71.462 78.876,116.592 208.184,134.923c129.278,18.269 821.324,-10.98 821.324,-10.98" style="fill:#cfdefc;fill-rule:nonzero;"/><path d="M3758.25,13418.1c740.898,212.217 1343.49,397.263 1399.73,443.261c791.548,-34.026 903.27,359.329 951.811,733.267" style="fill:none;fill-rule:nonzero;stroke:#1c4fb5;stroke-width:93.51px;"/><path d="M2044.39,11559.6c-8.871,82.442 -178.842,1000.26 -324.497,1301.31c436.251,112.777 972.53,257.687 1490.82,402.381" style="fill:none;fill-rule:nonzero;stroke:#1c4fb5;stroke-width:93.51px;"/><path d="M5424.57,14243.2c26.737,80.209 53.473,261.502 38.647,392.269" style="fill:none;fill-rule:nonzero;stroke:#1c4fb5;stroke-width:93.51px;"/><path d="M5663.54,14243.1c26.767,80.24 53.504,261.533 38.678,392.3" style="fill:none;fill-rule:nonzero;stroke:#1c4fb5;stroke-width:93.51px;"/><path d="M5855.91,14243.2c26.736,80.209 53.473,261.502 38.647,392.269" style="fill:none;fill-rule:nonzero;stroke:#1c4fb5;stroke-width:93.51px;"/><path d="M160.825,13106.9c-54.218,334.547 -77.263,584.511 -32.072,613.17c1074.05,680.942 4320.29,789.005 4951.49,750.606" style="fill:none;fill-rule:nonzero;stroke:#1c4fb5;stroke-width:93.51px;"/><path d="M578.233,11119.8c-11.663,41.439 -122.516,506.876 -233.991,1033.01" style="fill:none;fill-rule:nonzero;stroke:#1c4fb5;stroke-width:93.51px;"/></g><g><path d="M9377.49,5467.54l0,583.333" style="fill:none;stroke:#fff;stroke-width:74.58px;"/><path d="M9669.16,5759.21l-583.334,0" style="fill:none;stroke:#fff;stroke-width:74.58px;"/></g></g></g></svg>