<?xml version="1.0" encoding="UTF-8" standalone="no"?>
<!DOCTYPE svg PUBLIC "-//W3C//DTD SVG 1.1//EN"
 "http://www.w3.org/Graphics/SVG/1.1/DTD/svg11.dtd">
<!-- Generated by graphviz version 2.38.0 (20140413.2041)
 -->
<!-- Title: G Pages: 1 -->
<svg width="578pt" height="329pt"
 viewBox="0.00 0.00 578.00 329.00" xmlns="http://www.w3.org/2000/svg" xmlns:xlink="http://www.w3.org/1999/xlink">
<g id="graph0" class="graph" transform="scale(1 1) rotate(0) translate(4 325)">
<title>G</title>
<polygon fill="white" stroke="none" points="-4,4 -4,-325 574,-325 574,4 -4,4"/>
<g id="clust1" class="cluster"><title>cluster_hosts</title>
<polygon fill="none" stroke="lightgray" points="8,-91 8,-166 300,-166 300,-91 8,-91"/>
<text text-anchor="middle" x="154" y="-150.8" font-family="lato" font-size="14.00">Hosts</text>
</g>
<g id="clust2" class="cluster"><title>cluster_environments</title>
<polygon fill="none" stroke="lightgray" points="24,-8 24,-83 178,-83 178,-8 24,-8"/>
<text text-anchor="middle" x="101" y="-67.8" font-family="lato" font-size="14.00">Environments</text>
</g>
<g id="clust3" class="cluster"><title>cluster_deployments</title>
<polygon fill="none" stroke="lightgray" points="186,-8 186,-83 414,-83 414,-8 186,-8"/>
<text text-anchor="middle" x="300" y="-67.8" font-family="lato" font-size="14.00">Deployments</text>
</g>
<g id="clust4" class="cluster"><title>cluster_key</title>
<polygon fill="none" stroke="black" points="340,-238 340,-313 562,-313 562,-238 340,-238"/>
<text text-anchor="middle" x="451" y="-297.8" font-family="lato" font-size="14.00">Key</text>
</g>
<!-- stencila -->
<g id="node1" class="node"><title>stencila</title>
<polygon fill="#f1e05a" stroke="#f1e05a" points="335,-210 271,-210 271,-174 335,-174 335,-210"/>
<text text-anchor="middle" x="303" y="-188.3" font-family="lato" font-size="14.00">stencila</text>
</g>
<!-- nodejs -->
<g id="node4" class="node"><title>nodejs</title>
<polygon fill="#f1e05a" stroke="#f1e05a" points="291.5,-135 232.5,-135 232.5,-99 291.5,-99 291.5,-135"/>
<text text-anchor="middle" x="262" y="-113.3" font-family="lato" font-size="14.00">nodejs</text>
</g>
<!-- stencila&#45;&gt;nodejs -->
<g id="edge2" class="edge"><title>stencila&#45;&gt;nodejs</title>
<path fill="none" stroke="black" d="M293.284,-173.7C288.331,-164.882 282.204,-153.973 276.689,-144.153"/>
<polygon fill="black" stroke="black" points="279.595,-142.181 271.647,-135.176 273.492,-145.609 279.595,-142.181"/>
</g>
<!-- mini -->
<g id="node2" class="node"><title>mini</title>
<polygon fill="#f1e05a" stroke="#f1e05a" points="330,-282 276,-282 276,-246 330,-246 330,-282"/>
<text text-anchor="middle" x="303" y="-260.3" font-family="lato" font-size="14.00">mini</text>
</g>
<!-- mini&#45;&gt;stencila -->
<g id="edge1" class="edge"><title>mini&#45;&gt;stencila</title>
<path fill="none" stroke="black" d="M303,-245.697C303,-237.983 303,-228.712 303,-220.112"/>
<polygon fill="black" stroke="black" points="306.5,-220.104 303,-210.104 299.5,-220.104 306.5,-220.104"/>
</g>
<!-- convert -->
<g id="node3" class="node"><title>convert</title>
<polygon fill="#f1e05a" stroke="#f1e05a" points="252.5,-210 187.5,-210 187.5,-174 252.5,-174 252.5,-210"/>
<text text-anchor="middle" x="220" y="-188.3" font-family="lato" font-size="14.00">convert</text>
</g>
<!-- convert&#45;&gt;nodejs -->
<g id="edge3" class="edge"><title>convert&#45;&gt;nodejs</title>
<path fill="none" stroke="black" d="M229.953,-173.7C235.079,-164.791 241.433,-153.748 247.128,-143.85"/>
<polygon fill="black" stroke="black" points="250.165,-145.589 252.118,-135.176 244.097,-142.098 250.165,-145.589"/>
</g>
<!-- images -->
<g id="node9" class="node"><title>images</title>
<polygon fill="#7e7eff" stroke="#7e7eff" points="92,-52 32,-52 32,-16 92,-16 92,-52"/>
<text text-anchor="middle" x="62" y="-30.3" font-family="lato" font-size="14.00">images</text>
</g>
<!-- nodejs&#45;&gt;images -->
<g id="edge6" class="edge"><title>nodejs&#45;&gt;images</title>
<path fill="none" stroke="black" d="M239.465,-98.8786C234.297,-95.7329 228.654,-92.8595 223,-91 197.191,-82.5112 125.137,-95.4734 101,-83 91.2704,-77.972 83.1027,-69.3305 76.7969,-60.7533"/>
<polygon fill="black" stroke="black" points="79.6139,-58.6704 71.1229,-52.3338 73.809,-62.5824 79.6139,-58.6704"/>
</g>
<!-- cli -->
<g id="node10" class="node"><title>cli</title>
<polygon fill="#f1e05a" stroke="#f1e05a" points="406,-52 352,-52 352,-16 406,-16 406,-52"/>
<text text-anchor="middle" x="379" y="-30.3" font-family="lato" font-size="14.00">cli</text>
</g>
<!-- nodejs&#45;&gt;cli -->
<g id="edge4" class="edge"><title>nodejs&#45;&gt;cli</title>
<path fill="none" stroke="black" d="M291.73,-108.154C307.992,-102.863 327.851,-94.6865 343,-83 350.874,-76.9257 357.882,-68.7064 363.574,-60.7867"/>
<polygon fill="black" stroke="black" points="366.523,-62.6738 369.214,-52.4263 360.72,-58.7592 366.523,-62.6738"/>
</g>
<!-- desktop -->
<g id="node11" class="node"><title>desktop</title>
<polygon fill="#f1e05a" stroke="#f1e05a" points="334,-52 266,-52 266,-16 334,-16 334,-52"/>
<text text-anchor="middle" x="300" y="-30.3" font-family="lato" font-size="14.00">desktop</text>
</g>
<!-- nodejs&#45;&gt;desktop -->
<g id="edge5" class="edge"><title>nodejs&#45;&gt;desktop</title>
<path fill="none" stroke="black" d="M270.059,-98.822C275.147,-87.9756 281.824,-73.7437 287.581,-61.4723"/>
<polygon fill="black" stroke="black" points="290.874,-62.6931 291.953,-52.1533 284.537,-59.72 290.874,-62.6931"/>
</g>
<!-- r -->
<g id="node5" class="node"><title>r</title>
<polygon fill="#198ce7" stroke="#198ce7" points="214,-135 160,-135 160,-99 214,-99 214,-135"/>
<text text-anchor="middle" x="187" y="-113.3" font-family="lato" font-size="14.00">r</text>
</g>
<!-- r&#45;&gt;images -->
<g id="edge7" class="edge"><title>r&#45;&gt;images</title>
<path fill="none" stroke="black" d="M165.817,-98.9919C161.153,-95.9194 156.082,-93.0465 151,-91 130.124,-82.5935 120.49,-94.2518 101,-83 91.6546,-77.6048 83.6362,-69.0481 77.3432,-60.6435"/>
<polygon fill="black" stroke="black" points="80.2123,-58.6389 71.6401,-52.4125 74.4585,-62.6256 80.2123,-58.6389"/>
</g>
<!-- py -->
<g id="node6" class="node"><title>py</title>
<polygon fill="#3572a5" stroke="#3572a5" points="142,-135 88,-135 88,-99 142,-99 142,-135"/>
<text text-anchor="middle" x="115" y="-113.3" font-family="lato" font-size="14.00">py</text>
</g>
<!-- py&#45;&gt;images -->
<g id="edge8" class="edge"><title>py&#45;&gt;images</title>
<path fill="none" stroke="black" d="M103.76,-98.822C96.5225,-87.7608 86.9812,-73.1788 78.8459,-60.7456"/>
<polygon fill="black" stroke="black" points="81.6278,-58.6048 73.2237,-52.1533 75.7703,-62.4375 81.6278,-58.6048"/>
</g>
<!-- cloud -->
<g id="node7" class="node"><title>cloud</title>
<polygon fill="#f1e05a" stroke="#f1e05a" points="70,-135 16,-135 16,-99 70,-99 70,-135"/>
<text text-anchor="middle" x="43" y="-113.3" font-family="lato" font-size="14.00">cloud</text>
</g>
<!-- libcore -->
<g id="node8" class="node"><title>libcore</title>
<polygon fill="lightgrey" stroke="black" points="169.5,-52 110.5,-52 110.5,-16 169.5,-16 169.5,-52"/>
<text text-anchor="middle" x="140" y="-30.3" font-family="lato" font-size="14.00">libcore</text>
</g>
<!-- images&#45;&gt;cloud -->
<g id="edge9" class="edge"><title>images&#45;&gt;cloud</title>
<path fill="none" stroke="black" d="M57.9764,-52.1533C55.4837,-62.7799 52.2272,-76.663 49.3877,-88.7683"/>
<polygon fill="black" stroke="black" points="45.9057,-88.2869 47.0294,-98.822 52.7207,-89.8856 45.9057,-88.2869"/>
</g>
<!-- hub -->
<g id="node12" class="node"><title>hub</title>
<polygon fill="#3572a5" stroke="#3572a5" points="248,-52 194,-52 194,-16 248,-16 248,-52"/>
<text text-anchor="middle" x="221" y="-30.3" font-family="lato" font-size="14.00">hub</text>
</g>
<!-- Nix -->
<g id="node13" class="node"><title>Nix</title>
<polygon fill="#7e7eff" stroke="#7e7eff" points="554,-282 500,-282 500,-246 554,-246 554,-282"/>
<text text-anchor="middle" x="527" y="-260.3" font-family="lato" font-size="14.00">Nix</text>
</g>
<!-- Python -->
<g id="node14" class="node"><title>Python</title>
<polygon fill="#3572a5" stroke="#3572a5" points="482,-282 420,-282 420,-246 482,-246 482,-282"/>
<text text-anchor="middle" x="451" y="-260.3" font-family="lato" font-size="14.00">Python</text>
</g>
<!-- R -->
<g id="node15" class="node"><title>R</title>
<polygon fill="#198ce7" stroke="#198ce7" points="402,-282 348,-282 348,-246 402,-246 402,-282"/>
<text text-anchor="middle" x="375" y="-260.3" font-family="lato" font-size="14.00">R</text>
</g>
</g>
</svg>
