<?xml version="1.0" encoding="UTF-8" standalone="no"?>
<!-- Generator: Adobe Illustrator 14.0.0, SVG Export Plug-In . SVG Version: 6.00 Build 43363)  -->

<svg
   xmlns:dc="http://purl.org/dc/elements/1.1/"
   xmlns:cc="http://creativecommons.org/ns#"
   xmlns:rdf="http://www.w3.org/1999/02/22-rdf-syntax-ns#"
   xmlns:svg="http://www.w3.org/2000/svg"
   xmlns="http://www.w3.org/2000/svg"
   xmlns:sodipodi="http://sodipodi.sourceforge.net/DTD/sodipodi-0.dtd"
   xmlns:inkscape="http://www.inkscape.org/namespaces/inkscape"
   version="1.1"
   x="0px"
   y="0px"
   width="200"
   height="40"
   viewBox="0 0 200 40"
   enable-background="new 0 0 180 60"
   xml:space="preserve"
   id="svg2"
   inkscape:version="0.48.4 r9939"
   sodipodi:docname="logo-name-beta.svg"
   inkscape:export-filename="/home/nokome/stencila/source/brand/logo-name-beta.png"
   inkscape:export-xdpi="78.75"
   inkscape:export-ydpi="78.75"><metadata
     id="metadata81"><rdf:RDF><cc:Work
         rdf:about=""><dc:format>image/svg+xml</dc:format><dc:type
           rdf:resource="http://purl.org/dc/dcmitype/StillImage" /><dc:title></dc:title></cc:Work></rdf:RDF></metadata><defs
     id="defs79" /><sodipodi:namedview
     pagecolor="#ffffff"
     bordercolor="#666666"
     borderopacity="1"
     objecttolerance="10"
     gridtolerance="10"
     guidetolerance="10"
     inkscape:pageopacity="0"
     inkscape:pageshadow="2"
     inkscape:window-width="1483"
     inkscape:window-height="771"
     id="namedview77"
     showgrid="false"
     inkscape:snap-global="false"
     inkscape:zoom="3.7743201"
     inkscape:cx="111.32811"
     inkscape:cy="3.3964395"
     inkscape:window-x="2224"
     inkscape:window-y="192"
     inkscape:window-maximized="0"
     inkscape:current-layer="svg2" /><g
     id="Layer_1"
     transform="translate(0,-20)" /><g
     id="Layer_2"
     transform="translate(0,-20)" /><g
     id="g9"
     transform="translate(-9.7092773,-3.3082521)"><path
       d="m 58.107,35.226 c -4.35,0 -5.674,-0.852 -5.98,-1.115 -0.469,-0.413 -0.521,-1.139 -0.111,-1.613 0.221,-0.255 0.404,-0.308 0.605,-0.308 0.279,0 0.666,0.113 1.111,0.255 l 0.379,0.102 c 0.742,0.205 1.449,0.398 3.996,0.398 3.338,0 4.889,-1.393 4.889,-4.386 0,-2.454 -5.117,-4.701 -5.168,-4.729 -3.977,-1.912 -6.092,-4.336 -6.092,-6.993 0,-1.91 0.6,-3.387 1.777,-4.381 1.229,-1.041 2.939,-1.523 5.377,-1.523 1.422,0 3.094,0.163 5.102,0.509 0.621,0.103 1.041,0.693 0.934,1.31 -0.094,0.558 -0.557,0.959 -1.102,0.959 -2.049,-0.331 -3.705,-0.49 -5.014,-0.49 -1.814,0 -3.029,0.312 -3.824,0.981 -0.648,0.547 -0.969,1.411 -0.969,2.636 0,1.734 1.57,3.375 4.654,4.865 1.596,0.689 6.609,3.14 6.609,6.856 0.001,4.302 -2.546,6.667 -7.173,6.667 l 0,0 z"
       id="path11"
       inkscape:connector-curvature="0" /><path
       d="m 77.529,35.226 c -3.492,0 -5.668,-2.354 -5.668,-6.143 v -8.975 h -2.186 c -0.635,0 -1.143,-0.511 -1.143,-1.139 0,-0.629 0.508,-1.137 1.143,-1.137 h 2.186 v -5.624 c 0,-0.628 0.514,-1.142 1.141,-1.142 0.631,0 1.139,0.514 1.139,1.142 v 5.624 h 4.074 c 0.633,0 1.143,0.508 1.143,1.137 0,0.628 -0.51,1.139 -1.143,1.139 H 74.14 v 8.975 c 0,2.49 1.203,3.861 3.389,3.861 1,0 1.428,-0.223 1.506,-0.269 0.42,-0.182 0.713,-0.268 0.951,-0.268 0.234,0 0.432,0.089 0.631,0.289 0.434,0.433 0.426,1.189 -0.021,1.646 -0.21,0.208 -1.044,0.884 -3.067,0.884 l 0,0 z"
       id="path13"
       inkscape:connector-curvature="0" /><path
       d="m 118.384,34.921 c -0.627,0 -1.141,-0.51 -1.141,-1.143 v -9.804 c 0,-2.576 -1.363,-3.882 -4.047,-3.882 -2.322,0 -4.154,2.02 -5.039,2.988 l -0.307,0.412 v 10.285 c 0,0.633 -0.518,1.143 -1.146,1.143 -0.628,0 -1.141,-0.51 -1.141,-1.143 v -14.5 c 0,-0.634 0.512,-1.146 1.141,-1.146 0.629,0 1.146,0.512 1.146,1.146 v 1.132 l 0.488,-0.461 c 1.557,-1.457 3.102,-2.138 4.857,-2.138 3.961,0 6.334,2.305 6.334,6.165 v 9.804 c 0.002,0.633 -0.512,1.142 -1.145,1.142 l 0,0 z"
       id="path15"
       inkscape:connector-curvature="0" /><path
       d="m 154.078,34.921 c -0.633,0 -1.145,-0.506 -1.145,-1.138 V 12.242 c 0,-0.627 0.512,-1.143 1.145,-1.143 0.627,0 1.139,0.516 1.139,1.143 v 21.542 c -0.001,0.632 -0.512,1.137 -1.139,1.137 l 0,0 z"
       id="path17"
       inkscape:connector-curvature="0" /><path
       d="m 145.292,34.921 c -0.627,0 -1.145,-0.506 -1.145,-1.138 V 19.279 c 0,-0.633 0.518,-1.145 1.145,-1.145 0.625,0 1.148,0.512 1.148,1.145 v 14.505 c 0.001,0.632 -0.523,1.137 -1.148,1.137 l 0,0 z"
       id="path19"
       inkscape:connector-curvature="0" /><path
       d="m 145.292,13.72 c -0.725,0 -1.307,-0.586 -1.307,-1.308 0,-0.726 0.582,-1.313 1.307,-1.313 0.719,0 1.307,0.588 1.307,1.313 0,0.722 -0.588,1.308 -1.307,1.308 l 0,0 z"
       id="path21"
       inkscape:connector-curvature="0" /><path
       d="m 93.232,35.226 c -5.223,0 -8.107,-3.125 -8.111,-8.803 0,-3.133 0.854,-5.509 2.535,-7.069 1.848,-1.713 4.115,-1.845 4.764,-1.845 0.18,0 0.293,0.006 0.316,0.011 2.234,0.006 4.047,0.737 5.316,2.126 2.342,2.545 1.971,6.291 1.971,6.325 -0.055,0.576 -0.518,1.022 -1.092,1.05 h -11.49 l 0.035,0.324 c 0.291,2.558 1.514,5.6 5.756,5.6 0.365,0 0.744,-0.041 1.096,-0.096 1.287,-0.334 2.469,-1.072 2.809,-1.288 0.178,-0.136 0.395,-0.201 0.629,-0.201 0.387,0 0.752,0.185 0.957,0.481 0.363,0.517 0.232,1.229 -0.285,1.586 -0.245,0.196 -2.3,1.799 -5.206,1.799 l 0,0 z M 92.441,19.791 c -0.32,0 -1.98,0.062 -3.254,1.256 -0.863,0.811 -1.477,1.698 -1.697,3.402 l -0.043,0.335 H 97.74 l -0.037,-0.33 C 97.588,23.498 97.258,22.161 96.365,21.18 95.519,20.263 94.261,19.799 92.638,19.799 l -0.197,-0.008 z"
       id="path23"
       inkscape:connector-curvature="0" /><path
       d="m 132.654,35.197 c -5.232,0 -8.115,-3.124 -8.121,-8.806 0.006,-5.708 2.889,-8.854 8.121,-8.854 2.801,0 4.822,1.49 5.195,1.788 0.535,0.371 0.658,1.082 0.299,1.594 -0.207,0.299 -0.574,0.486 -0.959,0.486 -0.238,0 -0.457,-0.069 -0.637,-0.196 -0.238,-0.162 -1.475,-0.949 -2.812,-1.297 -0.344,-0.055 -0.723,-0.095 -1.086,-0.095 -4.414,0 -5.586,3.265 -5.799,6.004 v 1.098 c 0.297,3.875 2.354,5.999 5.799,5.999 0.365,0 0.742,-0.041 1.088,-0.092 1.293,-0.339 2.477,-1.073 2.811,-1.293 0.188,-0.132 0.398,-0.201 0.637,-0.201 0.385,0 0.752,0.186 0.959,0.475 0.359,0.521 0.225,1.232 -0.285,1.591 -0.113,0.093 -2.23,1.799 -5.21,1.799 l 0,0 z"
       id="path25"
       inkscape:connector-curvature="0" /><path
       d="m 167.052,17.556 h -0.701 c -2.986,0 -5.096,1.717 -5.207,1.806 -0.518,0.355 -0.645,1.07 -0.291,1.588 0.209,0.293 0.58,0.476 0.961,0.476 0.236,0 0.451,-0.065 0.639,-0.199 0.33,-0.218 1.514,-0.955 2.803,-1.291 0.357,-0.052 0.73,-0.095 1.096,-0.095 0.162,0 0.377,0 0.701,0 1.469,0 3.637,0.869 3.637,3.159 v 1.444 l -0.238,0.041 c -1.012,0.187 -2.693,0.454 -4.225,0.699 -0.988,0.153 -1.861,0.294 -2.328,0.376 -1.145,0.201 -4.174,0.726 -4.174,4.81 0,2.963 2.125,4.804 5.539,4.804 1.727,0 4.027,-0.499 5.24,-1.133 l 0.211,-0.114 c 0.07,0.559 0.537,0.995 1.117,0.995 0.625,0 1.143,-0.506 1.143,-1.138 V 33.526 25.444 23 c -0.001,-3.893 -3.011,-5.444 -5.923,-5.444 z m 2.239,14.575 c -0.758,0.306 -2.473,0.763 -4.027,0.763 -2.158,0 -3.254,-0.853 -3.254,-2.524 0,-1.84 0.74,-2.294 2.279,-2.558 0.465,-0.082 1.332,-0.222 2.307,-0.373 1.271,-0.197 2.736,-0.433 3.748,-0.605 l 0.344,-0.061 v 4.655 c -0.335,0.258 -0.745,0.449 -1.397,0.703 z"
       id="path27"
       inkscape:connector-curvature="0" /></g><path
     d="m 35.860723,32.111748 c 0,2.255 -1.83,4.081 -4.084,4.081 H 7.2887227 c -2.25,0 -4.08,-1.826 -4.08,-4.081 V 7.6247479 c 0,-2.252 1.83,-4.081 4.08,-4.081 H 31.776723 c 2.254,0 4.084,1.829 4.084,4.081 V 32.111748 z m -27.5510003,-14.287 h 8.1620003 c 0.568,0 1.02,-0.453 1.02,-1.017 V 8.6457479 c 0,-0.564 -0.451,-1.021 -1.02,-1.021 H 8.3097227 c -0.561,0 -1.021,0.457 -1.021,1.021 v 8.1620001 c 0,0.564 0.46,1.017 1.021,1.017 z m 14.2830003,8.165 c -0.562,0 -1.02,0.458 -1.02,1.019 v 4.084 c 0,0.564 0.457,1.02 1.02,1.02 0.57,0 1.021,-0.455 1.021,-1.02 v -4.084 c 0.001,-0.561 -0.45,-1.019 -1.021,-1.019 z m 4.08,-2.04 c -0.561,0 -1.02,0.455 -1.02,1.021 v 6.122 c 0,0.564 0.459,1.02 1.02,1.02 0.57,0 1.025,-0.455 1.025,-1.02 v -6.122 c 0.001,-0.566 -0.454,-1.021 -1.025,-1.021 z m 4.084,-2.042 c -0.561,0 -1.02,0.458 -1.02,1.021 v 8.163 c 0,0.564 0.459,1.02 1.02,1.02 0.564,0 1.02,-0.455 1.02,-1.02 v -8.163 c 0,-0.563 -0.455,-1.021 -1.02,-1.021 z m -4.084,-4.083 c 2.811,0 5.104,-2.285 5.104,-5.099 0,-2.8140001 -2.293,-5.1020001 -5.104,-5.1020001 -2.811,0 -5.1,2.287 -5.1,5.1020001 0.001,2.814 2.29,5.099 5.1,5.099 z m -13.394,4.596 c -0.184,-0.316 -0.523,-0.513 -0.883,-0.513 -0.365,0 -0.703,0.196 -0.885,0.513 l -4.7130003,8.159 c -0.184,0.316 -0.184,0.707 0,1.021 0.182,0.314 0.518,0.511 0.881,0.511 h 9.4260003 c 0.365,0 0.701,-0.196 0.885,-0.511 0.18,-0.314 0.18,-0.702 0,-1.021 l -4.711,-8.159 z"
     id="path29"
     inkscape:connector-curvature="0"
     style="fill:#99f054;fill-opacity:1" /><g
     id="g31"
     transform="translate(0,-20)"><g
       id="g3127"
       transform="matrix(1.5704271,0,0,1.5704271,-75.232361,-45.546796)"><path
         style="fill:#999999"
         inkscape:connector-curvature="0"
         id="path57"
         d="m 162.38552,45.613342 c 0.602,0 1.075,0.177 1.422,0.53 0.346,0.353 0.519,0.82 0.519,1.4 v 0.608 c 0,0.112 -0.04,0.215 -0.12,0.31 -0.081,0.094 -0.194,0.142 -0.341,0.142 h -2.706 v 0.566 c 0,0.35 0.101,0.644 0.304,0.881 0.203,0.238 0.511,0.357 0.923,0.357 0.231,0 0.439,-0.023 0.624,-0.068 0.186,-0.045 0.365,-0.103 0.54,-0.173 0.112,-0.042 0.196,-0.063 0.252,-0.063 0.098,0 0.179,0.031 0.241,0.094 0.063,0.063 0.095,0.14 0.095,0.231 0,0.14 -0.066,0.241 -0.199,0.304 -0.23,0.105 -0.491,0.188 -0.781,0.247 -0.291,0.06 -0.548,0.089 -0.771,0.089 -0.308,0 -0.582,-0.047 -0.823,-0.142 -0.241,-0.095 -0.444,-0.227 -0.608,-0.398 -0.164,-0.171 -0.29,-0.376 -0.377,-0.614 -0.088,-0.238 -0.132,-0.497 -0.132,-0.776 v -1.595 c 0,-0.294 0.046,-0.56 0.137,-0.797 0.091,-0.237 0.221,-0.44 0.388,-0.608 0.168,-0.167 0.373,-0.297 0.614,-0.388 0.241,-0.091 0.506,-0.137 0.799,-0.137 z m 0,0.661 c -0.405,0 -0.711,0.112 -0.917,0.335 -0.207,0.224 -0.31,0.524 -0.31,0.902 v 0.419 h 2.454 v -0.398 c 0,-0.392 -0.104,-0.699 -0.31,-0.923 -0.206,-0.224 -0.512,-0.335 -0.917,-0.335 z" /><path
         style="fill:#999999"
         inkscape:connector-curvature="0"
         id="path69"
         d="m 155.788,43.552179 c -0.098,0 -0.182,0.033 -0.252,0.1 -0.069,0.066 -0.104,0.152 -0.104,0.257 v 6.503 c 0,0.104 0.027,0.194 0.084,0.267 0.056,0.074 0.133,0.128 0.23,0.163 0.259,0.098 0.524,0.168 0.797,0.21 0.273,0.042 0.549,0.063 0.829,0.063 0.58,0 1.05,-0.157 1.41,-0.472 0.36,-0.314 0.54,-0.793 0.54,-1.437 v -1.636 c 0,-0.315 -0.047,-0.593 -0.142,-0.834 -0.094,-0.241 -0.226,-0.44 -0.394,-0.598 -0.167,-0.158 -0.365,-0.276 -0.592,-0.357 -0.228,-0.08 -0.478,-0.121 -0.75,-0.121 -0.203,0 -0.42,0.033 -0.65,0.1 -0.23,0.067 -0.447,0.17 -0.65,0.31 v -2.161 c 0,-0.105 -0.033,-0.19 -0.1,-0.257 -0.067,-0.067 -0.152,-0.1 -0.256,-0.1 z m 1.584,2.769 c 0.398,0 0.704,0.104 0.917,0.314 0.214,0.21 0.32,0.507 0.32,0.892 v 1.73 c 0,0.377 -0.106,0.671 -0.32,0.881 -0.213,0.21 -0.519,0.315 -0.917,0.315 -0.21,0 -0.418,-0.014 -0.624,-0.042 -0.207,-0.028 -0.407,-0.074 -0.604,-0.137 v -3.492 c 0.182,-0.147 0.378,-0.261 0.587,-0.341 0.21,-0.08 0.424,-0.12 0.641,-0.12 z" /><path
         style="fill:#999999"
         inkscape:connector-curvature="0"
         id="path73"
         d="m 165.761,43.553179 c 0.104,0 0.19,0.033 0.257,0.1 0.067,0.067 0.1,0.152 0.1,0.257 v 1.856 h 1.228 c 0.111,0 0.199,0.033 0.262,0.1 0.063,0.066 0.095,0.149 0.095,0.247 0,0.098 -0.031,0.178 -0.095,0.241 -0.062,0.063 -0.15,0.094 -0.262,0.094 h -1.228 v 3.178 c 0,0.272 0.063,0.477 0.189,0.613 0.125,0.136 0.304,0.205 0.534,0.205 0.14,0 0.243,-0.009 0.31,-0.026 0.066,-0.017 0.135,-0.026 0.205,-0.026 0.098,0 0.18,0.028 0.246,0.084 0.066,0.056 0.1,0.14 0.1,0.251 0,0.189 -0.102,0.301 -0.304,0.335 -0.112,0.021 -0.21,0.035 -0.294,0.042 -0.084,0.007 -0.179,0.011 -0.283,0.011 -0.406,0 -0.743,-0.124 -1.013,-0.373 -0.269,-0.248 -0.403,-0.624 -0.403,-1.127 v -5.706 c 0,-0.105 0.035,-0.19 0.104,-0.257 0.07,-0.066 0.154,-0.099 0.252,-0.099 z" /><path
         style="fill:#999999"
         inkscape:connector-curvature="0"
         id="path75"
         d="m 171.226,45.661179 c 0.259,0 0.5,0.032 0.724,0.095 0.224,0.062 0.42,0.161 0.588,0.293 0.168,0.132 0.301,0.297 0.398,0.493 0.097,0.196 0.146,0.423 0.146,0.682 v 3.22 c 0,0.098 -0.024,0.186 -0.073,0.262 -0.049,0.077 -0.126,0.133 -0.23,0.168 -0.21,0.077 -0.447,0.136 -0.713,0.178 -0.267,0.042 -0.532,0.063 -0.798,0.063 -0.308,0 -0.589,-0.03 -0.844,-0.089 -0.256,-0.059 -0.474,-0.154 -0.656,-0.283 -0.182,-0.129 -0.321,-0.295 -0.419,-0.498 -0.098,-0.203 -0.146,-0.447 -0.146,-0.734 0,-0.287 0.056,-0.531 0.167,-0.734 0.112,-0.203 0.263,-0.367 0.451,-0.493 0.188,-0.126 0.407,-0.218 0.655,-0.278 0.248,-0.059 0.509,-0.089 0.782,-0.089 h 1.111 v -0.692 c 0,-0.266 -0.097,-0.482 -0.288,-0.65 -0.192,-0.168 -0.467,-0.251 -0.823,-0.251 -0.378,0 -0.728,0.08 -1.049,0.241 -0.063,0.035 -0.123,0.062 -0.179,0.083 -0.056,0.021 -0.115,0.032 -0.179,0.032 -0.076,0 -0.15,-0.03 -0.22,-0.089 -0.07,-0.059 -0.105,-0.138 -0.105,-0.236 0,-0.126 0.057,-0.224 0.168,-0.293 0.182,-0.105 0.404,-0.198 0.666,-0.278 0.264,-0.083 0.552,-0.123 0.866,-0.123 z m 0.011,2.916 c -0.385,0 -0.701,0.072 -0.949,0.215 -0.248,0.144 -0.372,0.386 -0.372,0.729 0,0.189 0.033,0.343 0.1,0.461 0.066,0.119 0.159,0.213 0.277,0.283 0.119,0.07 0.261,0.119 0.425,0.147 0.165,0.028 0.349,0.042 0.551,0.042 0.182,0 0.365,-0.014 0.551,-0.042 0.186,-0.028 0.369,-0.07 0.551,-0.126 v -1.709 h -1.134 z" /></g></g></svg>