<svg viewBox="0 0 33 32" fill="none" xmlns="http://www.w3.org/2000/svg">
<g clip-path="url(#clip0_2051_4296)">
<path d="M0.666504 0V32H32.6665V0H0.666504ZM16.6665 24.5333C11.9199 24.5333 8.07985 20.6933 8.07985 15.9466C8.07985 11.2 11.9199 7.36 16.6665 7.36C21.4132 7.36 25.2532 11.2 25.2532 15.9466C25.2532 20.6933 21.4132 24.5333 16.6665 24.5333Z" fill="#66FF66"/>
<g style="mix-blend-mode:darken">
<path d="M16.802 24.5579C21.5443 24.5579 25.3887 20.7136 25.3887 15.9713C25.3887 11.229 21.5443 7.38464 16.802 7.38464C12.0597 7.38464 8.21533 11.229 8.21533 15.9713C8.21533 20.7136 12.0597 24.5579 16.802 24.5579Z" fill="#2568EF"/>
</g>
</g>
<defs>
<clipPath id="clip0_2051_4296">
<rect width="32" height="32" fill="white" transform="translate(0.666504)"/>
</clipPath>
</defs>
</svg>
