<svg viewBox="0 0 32 32" fill="none" xmlns="http://www.w3.org/2000/svg">
<g clip-path="url(#clip0_2051_3890)">
<path d="M0 0V32H32V0H0ZM16 24.5333C11.2533 24.5333 7.41335 20.6933 7.41335 15.9466C7.41335 11.2 11.2533 7.36 16 7.36C20.7467 7.36 24.5867 11.2 24.5867 15.9466C24.5867 20.6933 20.7467 24.5333 16 24.5333Z" fill="#66FF66"/>
<g style="mix-blend-mode:darken">
<path d="M8.5867 24.5579C13.3289 24.5579 17.1734 20.7136 17.1734 15.9713C17.1734 11.229 13.3289 7.38464 8.5867 7.38464C3.8444 7.38464 0 11.229 0 15.9713C0 20.7136 3.8444 24.5579 8.5867 24.5579Z" fill="#2568EF"/>
</g>
</g>
<defs>
<clipPath id="clip0_2051_3890">
<rect width="32" height="32" fill="white"/>
</clipPath>
</defs>
</svg>
