<svg viewBox="0 0 33 32" fill="none" xmlns="http://www.w3.org/2000/svg">
<g clip-path="url(#clip0_2051_3550)">
<path d="M0.333496 0V32H32.3335V0H0.333496ZM16.3335 24.5333C11.5868 24.5333 7.74685 20.6933 7.74685 15.9466C7.74685 11.2 11.5868 7.36 16.3335 7.36C21.0801 7.36 24.9201 11.2 24.9201 15.9466C24.9201 20.6933 21.0801 24.5333 16.3335 24.5333Z" fill="#66FF66"/>
<g style="mix-blend-mode:darken">
<path d="M23.5252 24.5579C28.2674 24.5579 32.1118 20.7136 32.1118 15.9713C32.1118 11.229 28.2674 7.38464 23.5252 7.38464C18.7829 7.38464 14.9385 11.229 14.9385 15.9713C14.9385 20.7136 18.7829 24.5579 23.5252 24.5579Z" fill="#2568EF"/>
</g>
</g>
<defs>
<clipPath id="clip0_2051_3550">
<rect width="32" height="32" fill="white" transform="translate(0.333496)"/>
</clipPath>
</defs>
</svg>
