<svg xmlns="http://www.w3.org/2000/svg" height="64" width="310">
  <svg xmlns="http://www.w3.org/2000/svg" height="64" width="64">
    <path
      d="m0 0v64h64v-64zm32 49.0667c-9.4933 0-17.1733-7.68-17.1733-17.1734 0-9.4933 7.68-17.1733 17.1733-17.1733s17.1733 7.68 17.1733 17.1733c0 9.4934-7.68 17.1734-17.1733 17.1734z"
      fill="#6f6"
    />
    <path
      d="m46.5067 49.1733c9.4845 0 17.1733-7.6887 17.1733-17.1733s-7.6888-17.1733-17.1733-17.1733c-9.4846 0-17.1734 7.6887-17.1734 17.1733s7.6888 17.1733 17.1734 17.1733z"
      fill="#2568ef"
    />
    <path
      d="m46.5066 14.8267c-2.6667 0-5.2267.64-7.36 1.7066 5.76 2.7734 9.7067 8.64 9.7067 15.4667s-3.9467 12.6933-9.7067 15.4667c2.24 1.0666 4.8 1.7066 7.36 1.7066 9.4933 0 17.1733-7.68 17.1733-17.1733s-7.7866-17.1733-17.1733-17.1733z"
      fill="#0f6860"
    />
  </svg>
  <svg viewBox="0 -7.5 120 50">
    <path
      d="M24.7467 24.64C24.7467 30.2933 18.9867 34.0267 12.6933 34.0267C6.4 34.0267 2.02667 30.8267 0 27.4133L5.33333 24C6.93333 26.7733 9.6 28.2667 12.6933 28.3733C15.36 28.48 17.3867 27.52 18.0267 25.7067C18.56 24 17.7067 22.2933 15.68 21.44C13.8667 20.6933 8.96 18.3467 7.89333 17.92C4.16 16.1067 1.6 13.8667 1.6 9.49333C1.49333 3.84 6.61333 0 12.9067 0C18.24 0 22.08 2.45333 24.32 5.97333L18.9867 8.96C17.92 7.14667 15.7867 5.33333 13.0133 5.33333C9.81333 5.33333 8.10667 6.82667 7.68 8.53333C7.36 10.4533 8.74667 11.84 10.88 12.6933C12.2667 13.3333 16.96 15.5733 18.6667 16.32C21.9733 17.92 24.7467 20.3733 24.7467 24.64Z"
      fill="#2568EF"
    />
    <path
      d="M45.5467 31.8933C43.8401 32.96 41.4934 33.7067 39.3601 33.7067C34.7734 33.7067 32.3201 30.2933 32.3201 26.0267V14.6133H27.0934V10.0267H32.4267V2.88001H38.4001V10.0267H45.3334V14.6133H38.5067V25.7067C38.5067 27.7333 39.4667 28.48 41.2801 28.48C42.1334 28.5867 43.2001 28.16 43.7334 27.84L45.5467 31.8933Z"
      fill="#2568EF"
    />
    <path
      d="M67.6267 23.7867H53.12C53.9733 26.4533 56.5333 28.3733 59.0933 28.3733C61.5467 28.3733 63.4667 27.3067 64.4267 26.24C64.64 25.92 64.96 25.6 64.96 25.6L69.2267 29.2267C67.4133 31.4667 63.7867 33.7067 59.2 33.7067C52.5867 33.7067 47.1467 28.2667 47.1467 21.5467C47.1467 14.8267 52.6933 9.38665 59.2 9.38665C62.9333 9.38665 66.7733 11.2 68.9067 14.2933C70.4 16.32 71.04 18.4533 71.04 20.9067C70.9333 22.4 69.8667 23.7867 67.6267 23.7867ZM53.0133 19.52H64.8533C64.32 17.4933 62.5067 15.04 59.0933 15.04C56.2133 14.9333 53.8667 16.96 53.0133 19.52Z"
      fill="#2568EF"
    />
    <path
      d="M97.6 20.2667V33.1733H91.7333V20.3733C91.7333 17.3867 89.28 15.04 86.2933 15.04C83.3066 15.04 80.8533 17.28 80.8533 20.6933V33.0667H74.9866V10.0267H80.4266V12.6933C82.24 10.4533 84.9066 9.49333 87.5733 9.49333C93.6533 9.49333 97.6 14.1867 97.6 20.2667Z"
      fill="#2568EF"
    />
    <path
      d="M124.8 29.2267C122.56 32.1067 118.827 33.92 114.88 33.92C108.053 33.92 102.293 28.3733 102.293 21.6533C102.293 14.9333 108.053 9.38665 114.88 9.38665C118.827 9.38665 122.453 11.2 124.693 13.9733L119.893 17.28C118.72 15.8933 116.8 15.1467 114.88 15.1467C111.253 15.1467 108.373 18.0267 108.373 21.76C108.373 25.3867 111.253 28.3733 114.88 28.3733C116.907 28.3733 118.933 27.52 120.107 26.0267L124.8 29.2267Z"
      fill="#2568EF"
    />
    <path
      d="M127.893 3.94666C127.893 2.02666 129.6 0.426659 131.733 0.426659C133.76 0.426659 135.467 2.02666 135.467 3.94666C135.467 5.86666 133.76 7.46666 131.733 7.46666C129.6 7.46666 127.893 5.86666 127.893 3.94666ZM128.64 10.0267H134.507V33.1733H128.64V10.0267Z"
      fill="#2568EF"
    />
    <path
      d="M149.44 28.48L151.04 32.4267C149.44 33.3867 147.627 33.8133 146.56 33.8133C142.827 33.8133 140.693 31.1467 140.693 27.3067V0.426659H146.667V26.88C146.667 27.52 146.987 27.9467 147.307 28.2667C147.733 28.48 148.267 28.6933 149.44 28.48Z"
      fill="#2568EF"
    />
    <path
      d="M176.64 10.0267V33.1733H171.2V30.72C169.493 32.64 166.827 33.92 163.947 33.92C157.12 33.92 151.893 28.3733 151.893 21.6533C151.893 14.8267 157.12 9.38665 163.947 9.38665C166.827 9.38665 169.6 10.6667 171.2 12.48V10.0267H176.64ZM170.667 24.2133V18.9867C169.6 16.64 167.253 14.9333 164.587 14.9333C163.2 14.9333 161.813 15.36 160.747 16.1067C159.04 17.28 157.867 19.3067 157.867 21.5467C157.867 23.7867 159.04 25.8133 160.747 26.9867C161.813 27.7333 163.093 28.16 164.587 28.16C167.253 28.2667 169.6 26.56 170.667 24.2133Z"
      fill="#2568EF"
    />
  </svg>
</svg>