<svg width="32" height="32" viewBox="0 0 32 32" fill="none" xmlns="http://www.w3.org/2000/svg">
<rect width="32" height="32" fill="#E7E7E7"/>
<g clip-path="url(#clip0_0_1)">
<path d="M0 0V32H32V0H0ZM16 24.5333C11.2533 24.5333 7.41335 20.6933 7.41335 15.9466C7.41335 11.2 11.2533 7.36 16 7.36C20.7467 7.36 24.5867 11.2 24.5867 15.9466C24.5867 20.6933 20.7467 24.5333 16 24.5333Z" fill="#66FF66"/>
<path d="M23.2533 24.5866C27.9956 24.5866 31.84 20.7423 31.84 16C31.84 11.2577 27.9956 7.41333 23.2533 7.41333C18.511 7.41333 14.6666 11.2577 14.6666 16C14.6666 20.7423 18.511 24.5866 23.2533 24.5866Z" fill="#2568EF"/>
<path d="M23.2533 7.41333C21.92 7.41333 20.64 7.73333 19.5733 8.26663C22.4533 9.65333 24.4267 12.5866 24.4267 16C24.4267 19.4133 22.4533 22.3466 19.5733 23.7333C20.6933 24.2666 21.9733 24.5866 23.2533 24.5866C28 24.5866 31.84 20.7466 31.84 16C31.84 11.2533 27.9467 7.41333 23.2533 7.41333Z" fill="#0F6860"/>
</g>
<defs>
<clipPath id="clip0_0_1">
<rect width="32" height="32" fill="white"/>
</clipPath>
</defs>
</svg>
