<?xml version="1.0" encoding="UTF-8" standalone="no"?><!DOCTYPE svg PUBLIC "-//W3C//DTD SVG 1.1//EN" "http://www.w3.org/Graphics/SVG/1.1/DTD/svg11.dtd"><svg width="100%" height="100%" viewBox="0 0 205 51" version="1.1" xmlns="http://www.w3.org/2000/svg" xmlns:xlink="http://www.w3.org/1999/xlink" xml:space="preserve" xmlns:serif="http://www.serif.com/" style="fill-rule:evenodd;clip-rule:evenodd;"><rect id="Artboard1" x="0" y="0.239" width="205" height="50" style="fill:none;"/><clipPath id="_clip1"><rect x="0" y="0.239" width="205" height="50"/></clipPath><g clip-path="url(#_clip1)"><g id="elife-logo-xs"><rect id="Rectangle" x="69" y="-0.261" width="136" height="51" style="fill:none;"/><g id="logo"><g id="symbol"><circle id="Oval" cx="59.447" cy="25.239" r="20.5" style="fill:#fff;stroke:#bec3c5;stroke-width:2px;"/><path id="Fill-2" d="M56.401,22.193c1.094,1.094 2.884,1.094 3.978,0l10.293,-10.292c-1.471,-1.253 -3.15,-2.264 -4.979,-2.976l-9.292,9.291c-1.094,1.094 -1.094,2.883 0,3.977" style="fill:#7cb13f;"/><path id="Fill-4" d="M62.368,28.16c1.094,1.094 1.094,2.883 -0,3.977l-7.955,7.955c-1.094,1.094 -2.884,1.094 -3.978,0c-1.094,-1.094 -1.094,-2.883 0,-3.977l7.955,-7.955c1.094,-1.094 2.884,-1.094 3.978,-0" style="fill:#d71d62;"/><path id="Fill-6" d="M54.413,24.182c1.094,1.094 1.094,2.884 -0,3.978c-1.094,1.094 -2.884,1.094 -3.978,-0c-1.094,-1.094 -1.094,-2.884 0,-3.978c1.094,-1.094 2.884,-1.094 3.978,0" style="fill:#336a2d;"/><path id="Fill-8" d="M64.356,14.239c1.094,1.094 1.094,2.883 0,3.977c-1.094,1.094 -2.884,1.094 -3.977,0c-1.094,-1.094 -1.094,-2.883 -0,-3.977c1.093,-1.094 2.883,-1.094 3.977,-0" style="fill:#336a2d;"/><path id="Fill-10" d="M56.401,34.126c1.094,1.094 1.094,2.884 0,3.977c-1.094,1.094 -2.884,1.094 -3.977,0c-1.094,-1.093 -1.094,-2.883 -0,-3.977c1.093,-1.094 2.883,-1.094 3.977,-0" style="fill:#861450;"/><path id="Fill-12" d="M74.3,16.227c1.094,1.094 1.094,2.884 0,3.978c-1.094,1.094 -2.884,1.094 -3.977,-0c-1.094,-1.094 -1.094,-2.884 -0,-3.978c1.093,-1.094 2.883,-1.094 3.977,0" style="fill:#861450;"/><path id="Fill-14" d="M68.334,22.193c1.094,1.094 1.094,2.884 0,3.978c-1.094,1.094 -2.884,1.094 -3.978,-0c-1.094,-1.094 -1.094,-2.884 0,-3.978c1.094,-1.094 2.884,-1.094 3.978,0" style="fill:#d71d62;"/><path id="Fill-16" d="M70.323,32.137c1.094,1.094 1.094,2.884 -0,3.978c-1.094,1.094 -2.884,1.094 -3.978,-0c-1.094,-1.094 -1.094,-2.884 0,-3.978c1.094,-1.094 2.884,-1.094 3.978,0" style="fill:#2994d2;"/><path id="Fill-18" d="M54.413,12.25c1.094,1.094 1.094,2.883 -0,3.977c-1.094,1.094 -2.884,1.094 -3.978,0c-1.094,-1.094 -1.094,-2.883 0,-3.977c1.094,-1.094 2.884,-1.094 3.978,-0" style="fill:#08589b;"/><path id="Fill-20" d="M48.447,30.149c-1.094,-1.094 -2.884,-1.094 -3.978,-0l-1.336,1.336c0.712,1.829 1.723,3.508 2.976,4.979l2.338,-2.338c1.094,-1.094 1.094,-2.883 -0,-3.977" style="fill:#861450;"/><path id="Fill-22" d="M56.401,10.261c1.094,1.094 2.884,1.094 3.978,0l1.989,-1.989c0.073,-0.073 0.13,-0.157 0.193,-0.237c-1.03,-0.191 -2.091,-0.296 -3.176,-0.296c-1.303,0 -2.571,0.148 -3.793,0.421c-0.031,0.758 0.234,1.526 0.809,2.101" style="fill:#d71d62;"/><path id="Fill-24" d="M48.447,22.193c1.094,-1.094 1.094,-2.883 -0,-3.977c-1.094,-1.094 -2.884,-1.094 -3.978,-0l-1.714,1.714c-0.524,1.657 -0.808,3.419 -0.808,5.246c0,0.925 0.074,1.832 0.213,2.718c0.482,-0.118 0.94,-0.354 1.315,-0.729l4.972,-4.972Z" style="fill:#2994d2;"/><path id="Fill-26" d="M72.312,26.171c-1.094,1.094 -1.094,2.884 -0.001,3.978c1.016,1.015 2.625,1.075 3.727,0.205c0.51,-1.637 0.784,-3.375 0.784,-5.177c0,-1.086 -0.105,-2.146 -0.295,-3.177c-0.08,0.064 -0.164,0.12 -0.238,0.194l-3.978,3.977Z" style="fill:#08589b;"/><path id="Fill-28" d="M64.356,38.103c-1.094,-1.094 -2.884,-1.094 -3.977,0l-3.978,3.978c-0.074,0.074 -0.13,0.158 -0.194,0.238c1.031,0.19 2.092,0.295 3.178,0.295c1.801,-0 3.54,-0.275 5.176,-0.784c0.871,-1.102 0.811,-2.711 -0.205,-3.727" style="fill:#7cb13f;"/></g><g id="letters"><path id="Fill-32" d="M95.281,21.554c-1.136,-0 -2.027,0.36 -2.672,1.081c-0.644,0.721 -1.013,1.743 -1.107,3.067l7.523,0c-0.023,-1.324 -0.369,-2.346 -1.037,-3.067c-0.668,-0.721 -1.57,-1.081 -2.707,-1.081m0.756,16.558c-3.164,0 -5.637,-0.873 -7.418,-2.619c-1.781,-1.746 -2.672,-4.219 -2.672,-7.418c0,-3.293 0.824,-5.839 2.47,-7.637c1.646,-1.799 3.923,-2.699 6.829,-2.699c2.777,0 4.94,0.791 6.486,2.373c1.547,1.582 2.321,3.768 2.321,6.557l-0,2.602l-12.674,-0c0.059,1.523 0.51,2.712 1.353,3.568c0.844,0.855 2.028,1.283 3.551,1.283c1.184,0 2.303,-0.123 3.358,-0.369c1.054,-0.246 2.156,-0.639 3.304,-1.178l0,4.149c-0.937,0.468 -1.939,0.817 -3.006,1.046c-1.066,0.228 -2.367,0.342 -3.902,0.342" style="fill:#666b6e;"/><path id="Fill-34" d="M106.947,37.739l0,-25l5,0l0,21l10,0l0,4l-15,0Z" style="fill:#666b6e;"/><path id="Fill-36" d="M124.947,37.739l5,0l0,-19l-5,0l0,19Zm0,-23.508c0,-1.661 0.834,-2.492 2.5,-2.492c1.667,0 2.5,0.831 2.5,2.492c0,0.792 -0.208,1.407 -0.625,1.847c-0.416,0.441 -1.041,0.661 -1.875,0.661c-1.666,0 -2.5,-0.836 -2.5,-2.508Z" style="fill:#666b6e;"/><path id="Fill-38" d="M145.947,22.739l-5,0l0,15l-5,0l0,-15l-3,0l0,-3l3,-1l0,-1c0,-2.238 0.608,-4.422 1.709,-5.453c1.102,-1.031 2.865,-1.547 5.291,-1.547c1.852,0 3.498,0.276 4.94,0.826l-1.451,3.684c-1.079,-0.34 -2.575,-0.51 -3.489,-0.51c-0.761,0 -1.312,0.226 -1.652,0.677c-0.34,0.451 -0.348,1.62 -0.348,2.323l0,1l5,0l0,4Z" style="fill:#666b6e;"/><path id="Fill-39" d="M157.281,21.554c-1.136,-0 -2.027,0.36 -2.672,1.081c-0.644,0.721 -1.013,1.743 -1.107,3.067l7.523,0c-0.023,-1.324 -0.369,-2.346 -1.037,-3.067c-0.668,-0.721 -1.57,-1.081 -2.707,-1.081m0.756,16.558c-3.164,0 -5.637,-0.873 -7.418,-2.619c-1.781,-1.746 -2.672,-4.219 -2.672,-7.418c0,-3.293 0.824,-5.839 2.47,-7.637c1.646,-1.799 3.923,-2.699 6.829,-2.699c2.777,0 4.94,0.791 6.486,2.373c1.547,1.582 2.321,3.768 2.321,6.557l-0,2.602l-12.674,-0c0.059,1.523 0.51,2.712 1.353,3.568c0.844,0.855 2.028,1.283 3.551,1.283c1.184,0 2.303,-0.123 3.358,-0.369c1.054,-0.246 2.156,-0.639 3.304,-1.178l0,4.149c-0.937,0.468 -1.939,0.817 -3.006,1.046c-1.066,0.228 -2.367,0.342 -3.902,0.342" style="fill:#666b6e;"/></g></g></g></g></svg>