<svg fill="none" height="64" viewBox="0 0 257 64" width="257" xmlns="http://www.w3.org/2000/svg"><g fill="#2568ef"><path d="m104.387 39.64c0 5.6533-5.7603 9.3867-12.0537 9.3867-6.2933 0-10.6666-3.2-12.6933-6.6134l5.3333-3.4133c1.6 2.7733 4.2667 4.2667 7.36 4.3733 2.6667.1067 4.6934-.8533 5.3334-2.6666.5333-1.7067-.32-3.4134-2.3467-4.2667-1.8133-.7467-6.72-3.0933-7.7867-3.52-3.7333-1.8133-6.2933-4.0533-6.2933-8.4267-.1067-5.6533 5.0133-9.4933 11.3067-9.4933 5.3333 0 9.1733 2.4533 11.4133 5.9733l-5.3333 2.9867c-1.0667-1.8133-3.2-3.6267-5.9734-3.6267-3.2 0-4.9066 1.4934-5.3333 3.2-.32 1.92 1.0667 3.3067 3.2 4.16 1.3867.64 6.08 2.88 7.7867 3.6267 3.3063 1.6 6.0803 4.0533 6.0803 8.32z"/><path d="m125.187 46.8933c-1.707 1.0667-4.054 1.8134-6.187 1.8134-4.587 0-7.04-3.4134-7.04-7.68v-11.4134h-5.227v-4.5866h5.334v-7.1467h5.973v7.1467h6.933v4.5866h-6.826v11.0934c0 2.0266.96 2.7733 2.773 2.7733.853.1067 1.92-.32 2.453-.64z"/><path d="m147.267 38.7867h-14.507c.853 2.6666 3.413 4.5866 5.973 4.5866 2.454 0 4.374-1.0666 5.334-2.1333.213-.32.533-.64.533-.64l4.267 3.6267c-1.814 2.24-5.44 4.48-10.027 4.48-6.613 0-12.053-5.44-12.053-12.16s5.546-12.16 12.053-12.16c3.733 0 7.573 1.8133 9.707 4.9066 1.493 2.0267 2.133 4.16 2.133 6.6134-.107 1.4933-1.173 2.88-3.413 2.88zm-14.614-4.2667h11.84c-.533-2.0267-2.346-4.48-5.76-4.48-2.88-.1067-5.226 1.92-6.08 4.48z"/><path d="m177.24 35.2667v12.9066h-5.867v-12.8c0-2.9866-2.453-5.3333-5.44-5.3333-2.986 0-5.44 2.24-5.44 5.6533v12.3734h-5.866v-23.04h5.44v2.6666c1.813-2.24 4.48-3.2 7.146-3.2 6.08 0 10.027 4.6934 10.027 10.7734z"/><path d="m204.44 44.2267c-2.24 2.88-5.973 4.6933-9.92 4.6933-6.827 0-12.587-5.5467-12.587-12.2667s5.76-12.2666 12.587-12.2666c3.947 0 7.573 1.8133 9.813 4.5866l-4.8 3.3067c-1.173-1.3867-3.093-2.1333-5.013-2.1333-3.627 0-6.507 2.88-6.507 6.6133 0 3.6267 2.88 6.6133 6.507 6.6133 2.027 0 4.053-.8533 5.227-2.3466z"/><path d="m207.533 18.9467c0-1.92 1.707-3.52 3.84-3.52 2.027 0 3.734 1.6 3.734 3.52s-1.707 3.52-3.734 3.52c-2.133 0-3.84-1.6-3.84-3.52zm.747 6.08h5.867v23.1466h-5.867z"/><path d="m229.08 43.48 1.6 3.9467c-1.6.96-3.413 1.3866-4.48 1.3866-3.733 0-5.867-2.6666-5.867-6.5066v-26.88h5.974v26.4533c0 .64.32 1.0667.64 1.3867.426.2133.96.4266 2.133.2133z"/><path d="m256.28 25.0267v23.1466h-5.44v-2.4533c-1.707 1.92-4.373 3.2-7.253 3.2-6.827 0-12.054-5.5467-12.054-12.2667 0-6.8266 5.227-12.2666 12.054-12.2666 2.88 0 5.653 1.28 7.253 3.0933v-2.4533zm-5.973 14.1866v-5.2266c-1.067-2.3467-3.414-4.0534-6.08-4.0534-1.387 0-2.774.4267-3.84 1.1734-1.707 1.1733-2.88 3.2-2.88 5.44s1.173 4.2666 2.88 5.44c1.066.7466 2.346 1.1733 3.84 1.1733 2.666.1067 5.013-1.6 6.08-3.9467z"/></g><path d="m0 0v64h64v-64zm32 49.0667c-9.4933 0-17.1733-7.68-17.1733-17.1734 0-9.4933 7.68-17.1733 17.1733-17.1733s17.1733 7.68 17.1733 17.1733c0 9.4934-7.68 17.1734-17.1733 17.1734z" fill="#6f6"/><path d="m46.5067 49.1733c9.4846 0 17.1733-7.6887 17.1733-17.1733s-7.6887-17.1733-17.1733-17.1733-17.1734 7.6887-17.1734 17.1733 7.6888 17.1733 17.1734 17.1733z" fill="#2568ef"/><path d="m46.5066 14.8267c-2.6667 0-5.2267.64-7.36 1.7066 5.76 2.7734 9.7067 8.64 9.7067 15.4667s-3.9467 12.6933-9.7067 15.4667c2.24 1.0666 4.8 1.7066 7.36 1.7066 9.4933 0 17.1733-7.68 17.1733-17.1733s-7.7866-17.1733-17.1733-17.1733z" fill="#0f6860"/></svg>