<svg viewBox="0 0 25 26" stroke="currentColor">
    <path fill-rule="evenodd" clip-rule="evenodd"
        d="M0 1.5C0 0.947714 0.447716 0.5 1 0.5H24C24.5523 0.5 25 0.947718 25 1.5V24.5C25 25.0523 24.5523 25.5 24 25.5H1C0.447714 25.5 0 25.0523 0 24.5V1.5ZM24 1.5L1 1.5V24.5L24 24.5L24 1.5ZM4.5 12.2929L8.81311 7.97978L9.52022 8.68689L5.20711 13L9.52022 17.3131L8.81311 18.0202L4.5 13.7071C4.10948 13.3166 4.10947 12.6834 4.5 12.2929ZM19.8415 13L16.1204 8.65873L16.8796 8.00794L20.6007 12.3492C20.9217 12.7237 20.9217 13.2763 20.6007 13.6508L16.8796 17.9921L16.1204 17.3413L19.8415 13Z" />
</svg>