<svg viewBox="0 0 24 24" fill="currentColor">
    <g id="Google G logo 1">
        <path id="Vector"
            d="M22.56 12.25C22.56 11.47 22.49 10.72 22.36 10H12V14.26H17.92C17.66 15.63 16.88 16.79 15.71 17.57V20.34H19.28C21.36 18.42 22.56 15.6 22.56 12.25Z" />
        <path id="Vector_2"
            d="M12.0002 23C14.9702 23 17.4602 22.02 19.2802 20.34L15.7102 17.57C14.7302 18.23 13.4802 18.63 12.0002 18.63C9.14018 18.63 6.71018 16.7 5.84018 14.1H2.18018V16.94C3.99018 20.53 7.70018 23 12.0002 23Z" />
        <path id="Vector_3"
            d="M5.84 14.0899C5.62 13.4299 5.49 12.7299 5.49 11.9999C5.49 11.2699 5.62 10.5699 5.84 9.90995V7.06995H2.18C1.43 8.54995 1 10.2199 1 11.9999C1 13.7799 1.43 15.4499 2.18 16.9299L5.03 14.7099L5.84 14.0899Z" />
        <path id="Vector_4"
            d="M12.0002 5.38C13.6202 5.38 15.0602 5.94 16.2102 7.02L19.3602 3.87C17.4502 2.09 14.9702 1 12.0002 1C7.70018 1 3.99018 3.47 2.18018 7.07L5.84018 9.91C6.71018 7.31 9.14018 5.38 12.0002 5.38Z" />
    </g>
</svg>