<svg viewBox="0 0 348 377" fillColor="current">
   <circle
      cx="263.92313"
      cy="320.00369"
      r="27.152658" />
   <circle
      cx="264.30444"
      cy="59.584072"
      r="27.152658" />
   <path
      d="m 197.7119,250.69093 c 13.86395,12.11438 28.34699,23.51629 41.86051,36.03141 1.13836,7.05592 -6.58069,10.8552 -10.2873,15.5457 -5.73702,-0.24807 -8.8903,-6.59852 -13.37654,-9.59345 -17.34665,-14.10959 -33.39957,-29.8987 -52.06867,-42.31505 -10.76997,-7.34323 -23.03197,-11.9081 -35.21203,-16.28871 -3.33967,-3.29545 5.88848,-4.05943 7.30937,-6.90185 9.22633,-6.97663 16.15677,-16.92348 19.54013,-27.98208 7.86388,21.32077 24.59841,37.89145 42.23453,51.50403 z"
   />
   <path
      d="m 138.33664,141.46158 c 23.29599,-6.73622 40.40174,-24.85974 58.63245,-39.76867 10.32901,-8.72786 20.46545,-17.691183 31.09344,-26.058845 5.89269,2.531893 10.28872,8.315762 11.42884,14.588975 -2.72006,6.685081 -10.3711,8.931541 -14.6899,14.2978 -17.0303,14.87363 -35.41082,28.33061 -50.89561,44.88501 -7.43726,8.76728 -13.34944,18.77491 -17.81127,29.35617 -4.85185,-5.26489 -5.01855,-13.3279 -10.59152,-18.17823 -5.21744,-6.64707 -12.02279,-12.06318 -19.73632,-15.53176 4.19127,-1.19224 8.38289,-2.38328 12.56989,-3.59045 z"
   />
   <path
      d="m 84.98806,19.732384 c 12.530881,5.751206 27.29513,6.600423 40.19406,1.519175 2.08653,-0.630827 5.76883,-3.188408 3.34296,0.585455 -6.99463,17.032163 -12.10215,35.242477 -11.47944,53.807844 -0.17934,21.571058 -0.0276,43.147102 0.0168,64.715202 -0.1436,5.68829 -6.84167,4.52877 -10.73899,4.47266 -5.29751,0.95236 -10.268799,-2.69208 -9.219375,-8.35886 C 96.837319,112.03769 97.613673,87.576792 96.587906,63.155593 95.331072,48.109066 90.008672,33.840267 84.98806,19.732384 Z"
   />
   <path
      d="m 117.14683,244.53574 c 0.41023,25.77697 -0.76111,51.59628 0.83463,77.34236 1.55706,12.37056 5.49652,24.35501 10.85091,35.58397 -13.82634,-5.8803 -29.906208,-5.50943 -43.795192,-0.0298 11.78879,-21.07655 12.674934,-45.97389 12.062795,-69.53683 -0.279012,-17.23903 -0.184461,-34.48192 0.07427,-51.72056 2.937473,-5.29122 9.539303,-2.37397 14.249023,-3.04097 5.22658,0.4209 6.55827,6.61422 5.73065,10.89104 l -0.004,0.26407 z"
   />
   <path
      d=" M131.292847,195.041718   C127.179321,208.295349 117.068481,216.121475 104.852562,215.832001   C93.187798,215.555603 82.866386,207.482254 79.889954,196.306396   C76.715530,184.387115 81.370430,172.115005 91.789993,166.038666   C101.254242,160.519394 110.959076,160.566162 120.064713,166.786102   C129.839218,173.462936 133.338776,183.024918 131.292847,195.041718  z"
   />
   <path
      d=" M247.030884,243.014328   C247.530334,243.021149 247.886093,243.171448 248.241821,243.321747   C247.942520,243.621429 247.643219,243.921127 247.343933,244.220825   C247.191681,243.866501 247.039429,243.512161 247.030884,243.014328  z"
   />
</svg>