<svg viewBox="0 0 24 24" fill="none">
    <path fill-rule="evenodd" clip-rule="evenodd"
        d="M6.53033 1.21967C6.23744 0.926777 5.76256 0.926777 5.46967 1.21967C5.17678 1.51256 5.17678 1.98744 5.46967 2.28033L6.18934 3H6C3.92894 3 2.25 4.67894 2.25 6.75C2.25 7.16421 2.58579 7.5 3 7.5C3.41421 7.5 3.75 7.16421 3.75 6.75C3.75 5.50736 4.75736 4.5 6 4.5H6.18934L5.46967 5.21967C5.17678 5.51256 5.17678 5.98744 5.46967 6.28033C5.76256 6.57322 6.23744 6.57322 6.53033 6.28033L8.53033 4.28033C8.82322 3.98744 8.82322 3.51256 8.53033 3.21967L6.53033 1.21967ZM20 5.25H12C11.7239 5.25 11.5 5.47386 11.5 5.75V8.75H12C13.1046 8.75 14 9.64543 14 10.75V14.25H20C20.2761 14.25 20.5 14.0261 20.5 13.75V5.75C20.5 5.47386 20.2761 5.25 20 5.25ZM14 15.75V18.75C14 19.8546 13.1046 20.75 12 20.75H4C2.89543 20.75 2 19.8546 2 18.75V10.75C2 9.64543 2.89543 8.75 4 8.75H10V5.75C10 4.64543 10.8954 3.75 12 3.75H20C21.1046 3.75 22 4.64543 22 5.75V13.75C22 14.8546 21.1046 15.75 20 15.75H14ZM17.4697 23.2803L15.4697 21.2803C15.1768 20.9874 15.1768 20.5126 15.4697 20.2197L17.4697 18.2197C17.7626 17.9268 18.2374 17.9268 18.5303 18.2197C18.8232 18.5126 18.8232 18.9874 18.5303 19.2803L17.8107 20H18C19.2426 20 20.25 18.9926 20.25 17.75C20.25 17.3358 20.5858 17 21 17C21.4142 17 21.75 17.3358 21.75 17.75C21.75 19.8211 20.0711 21.5 18 21.5H17.8107L18.5303 22.2197C18.8232 22.5126 18.8232 22.9874 18.5303 23.2803C18.2374 23.5732 17.7626 23.5732 17.4697 23.2803ZM4 10.25H12C12.2761 10.25 12.5 10.4739 12.5 10.75V18.75C12.5 19.0261 12.2761 19.25 12 19.25H4C3.72386 19.25 3.5 19.0261 3.5 18.75V10.75C3.5 10.4739 3.72386 10.25 4 10.25Z"
        fill="black" />
</svg>