<svg viewBox="0 0 64 64">
<path fill-rule="evenodd" clip-rule="evenodd" d="M0 64V0H64V64H0ZM49.239 32C49.239 41.4846 41.5502 49.1733 32.0657 49.1733C22.5811 49.1733 14.8923 41.4846 14.8923 32C14.8923 22.5154 22.5811 14.8267 32.0657 14.8267C41.5502 14.8267 49.239 22.5154 49.239 32Z" fill="#66FF66"/>
<path fill-rule="evenodd" clip-rule="evenodd" d="M39.2862 47.5861C41.4813 48.6047 43.9276 49.1733 46.5067 49.1733C55.9912 49.1733 63.68 41.4846 63.68 32C63.68 22.5154 55.9912 14.8267 46.5067 14.8267C43.9276 14.8267 41.4813 15.3952 39.2862 16.4138C45.1633 19.141 49.239 25.0945 49.239 32C49.239 38.9054 45.1633 44.8589 39.2862 47.5861Z" fill="#0F6860"/>
<mask id="path-3-inside-1_1640_24268" fill="white">
<path fill-rule="evenodd" clip-rule="evenodd" d="M39.2862 16.4138C33.4091 19.141 29.3333 25.0945 29.3333 32C29.3333 38.9054 33.4091 44.8589 39.2862 47.5861C45.1633 44.8589 49.239 38.9054 49.239 32C49.239 25.0945 45.1633 19.141 39.2862 16.4138Z"/>
</mask>
<path fill-rule="evenodd" clip-rule="evenodd" d="M39.2862 16.4138C33.4091 19.141 29.3333 25.0945 29.3333 32C29.3333 38.9054 33.4091 44.8589 39.2862 47.5861C45.1633 44.8589 49.239 38.9054 49.239 32C49.239 25.0945 45.1633 19.141 39.2862 16.4138Z" fill="#2568EF"/>
<path d="M39.2862 16.4138L39.7071 15.5067L39.2862 15.3114L38.8652 15.5067L39.2862 16.4138ZM39.2862 47.5861L38.8652 48.4932L39.2862 48.6886L39.7071 48.4932L39.2862 47.5861ZM38.8652 15.5067C32.6482 18.3917 28.3333 24.6909 28.3333 32H30.3333C30.3333 25.4981 34.1699 19.8904 39.7071 17.3209L38.8652 15.5067ZM28.3333 32C28.3333 39.3091 32.6482 45.6083 38.8652 48.4932L39.7071 46.6791C34.1699 44.1096 30.3333 38.5018 30.3333 32H28.3333ZM39.7071 48.4932C45.9241 45.6083 50.239 39.3091 50.239 32H48.239C48.239 38.5018 44.4024 44.1096 38.8652 46.6791L39.7071 48.4932ZM50.239 32C50.239 24.6909 45.9241 18.3917 39.7071 15.5067L38.8652 17.3209C44.4024 19.8904 48.239 25.4981 48.239 32H50.239Z" fill="#2568EF" mask="url(#path-3-inside-1_1640_24268)"/>
</svg>
